<svg width="40" height="40" viewBox="0 0 40 40" fill="none" xmlns="http://www.w3.org/2000/svg">
<path fill-rule="evenodd" clip-rule="evenodd" d="M31.6667 7.66667H8.33333C7.96514 7.66667 7.66667 7.96514 7.66667 8.33333V31.6667C7.66667 32.0349 7.96514 32.3333 8.33333 32.3333H31.6667C32.0349 32.3333 32.3333 32.0349 32.3333 31.6667V8.33333C32.3333 7.96514 32.0349 7.66667 31.6667 7.66667ZM8.33333 5C6.49238 5 5 6.49238 5 8.33333V31.6667C5 33.5076 6.49238 35 8.33333 35H31.6667C33.5076 35 35 33.5076 35 31.6667V8.33333C35 6.49238 33.5076 5 31.6667 5H8.33333ZM20 13.8334C18.8954 13.8334 18 14.7288 18 15.8334C18 16.9379 18.8954 17.8334 20 17.8334C21.1046 17.8334 22 16.9379 22 15.8334C22 14.7288 21.1046 13.8334 20 13.8334ZM15.3333 15.8334C15.3333 13.256 17.4227 11.1667 20 11.1667C22.5773 11.1667 24.6667 13.256 24.6667 15.8334C24.6667 18.4107 22.5773 20.5 20 20.5C17.4227 20.5 15.3333 18.4107 15.3333 15.8334ZM16.4345 24.8619C17.4139 24.2089 18.6735 23.8334 20 23.8334C21.3266 23.8334 22.5861 24.2089 23.5655 24.8619C24.5427 25.5133 25.1513 26.3768 25.3728 27.2666C25.5507 27.9811 26.2742 28.4162 26.9888 28.2383C27.7033 28.0604 28.1384 27.3369 27.9605 26.6224C27.5575 25.0035 26.4975 23.6116 25.0447 22.6431C23.5942 21.6761 21.8118 21.1667 20 21.1667C18.1882 21.1667 16.4058 21.6761 14.9553 22.6431C13.5025 23.6116 12.4425 25.0035 12.0395 26.6224C11.8616 27.3369 12.2967 28.0604 13.0112 28.2383C13.7258 28.4162 14.4493 27.9811 14.6272 27.2666C14.8487 26.3768 15.4573 25.5133 16.4345 24.8619Z" fill="#303336"/>
</svg>
