<svg width="40" height="40" viewBox="0 0 40 40" fill="none" xmlns="http://www.w3.org/2000/svg">
<path fill-rule="evenodd" clip-rule="evenodd" d="M18 16.3337C14.5 16.3337 11.6667 13.5003 11.6667 10.0003C11.6667 6.50033 14.5 3.66699 18 3.66699C21.5 3.66699 24.3333 6.50033 24.3333 10.0003C24.3333 13.5003 21.5 16.3337 18 16.3337ZM18 6.33366C16 6.33366 14.3333 8.00033 14.3333 10.0003C14.3333 12.0003 16 13.667 18 13.667C20 13.667 21.6667 12.0003 21.6667 10.0003C21.6667 8.00033 20 6.33366 18 6.33366ZM18.1654 33.0003H6.66536C5.9987 33.0003 5.33203 32.3337 5.33203 31.667V30.3337C5.33203 28.3337 5.9987 26.3337 6.9987 24.5003C7.9987 22.8337 9.66537 21.3337 11.4987 20.3337C13.332 19.3337 15.4987 18.667 17.4987 18.667H18.6654C20.832 18.667 22.832 19.3337 24.6654 20.3337C25.6654 21.0003 26.6654 21.667 27.4987 22.5003C27.9987 23.0003 27.9987 23.8337 27.4987 24.3337C26.9987 24.8337 26.1654 24.8337 25.6654 24.3337C24.9987 23.667 24.332 23.167 23.4987 22.667C21.9987 21.8337 20.332 21.3337 18.6654 21.3337H17.6654C15.9987 21.3337 14.332 21.8337 12.832 22.667C11.332 23.5003 10.1654 24.667 9.33203 26.0003C8.4987 27.3337 7.9987 28.8337 7.9987 30.3337H18.1654C18.832 30.3337 19.4987 31.0003 19.4987 31.667C19.4987 32.3337 18.832 33.0003 18.1654 33.0003ZM26.5017 34.5003C26.6683 34.6669 26.835 34.6669 27.1683 34.6669L27.0017 34.8336C27.335 34.8336 27.6683 34.6669 28.0017 34.3336L35.0017 26.0003C35.6683 25.5003 35.5017 24.6669 35.0017 24.1669C34.5017 23.5003 33.6683 23.6669 33.1683 24.1669L27.0017 31.6669L23.335 29.1669C22.6683 28.6669 21.835 28.8336 21.5017 29.5003C21.0017 30.1669 21.1683 31.0003 21.835 31.3336L26.5017 34.5003Z" fill="#303336"/>
</svg>
