<svg width="40" height="40" viewBox="0 0 40 40" fill="none" xmlns="http://www.w3.org/2000/svg">
<path fill-rule="evenodd" clip-rule="evenodd" d="M21.0443 3.01105C20.7916 2.68845 20.4045 2.5 19.9947 2.5C19.5849 2.5 19.1979 2.68845 18.9451 3.01105C17.0656 5.41013 14.1809 6.96444 10.9107 6.96444C9.59152 6.96444 8.3274 6.6969 7.15468 6.23424C6.74416 6.07229 6.2801 6.12395 5.91525 6.37223C5.5504 6.62051 5.33203 7.03323 5.33203 7.47454V18.2003C5.33203 25.6701 8.93243 30.3556 12.5154 33.1315C14.2938 34.5093 16.0661 35.4183 17.3925 35.9837C18.0574 36.2671 18.6149 36.4662 19.0117 36.5958C19.2103 36.6607 19.369 36.7083 19.4813 36.7405C19.5375 36.7566 19.582 36.7689 19.6142 36.7775L19.6531 36.7878L19.6654 36.791L19.6698 36.7921L19.6715 36.7926C19.6722 36.7927 19.6729 36.7929 19.9987 35.5L19.6729 36.7929C19.886 36.8466 20.1091 36.8468 20.3224 36.7935L19.9987 35.5C20.3224 36.7935 20.323 36.7933 20.3238 36.7931L20.3255 36.7927L20.3298 36.7916L20.3421 36.7884L20.381 36.7782C20.4133 36.7696 20.4579 36.7574 20.5141 36.7413C20.6264 36.7093 20.7852 36.6619 20.9838 36.5974C21.3807 36.4684 21.9383 36.2702 22.6033 35.9877C23.93 35.4242 25.7026 34.5173 27.4814 33.1408C31.0655 30.3672 34.6654 25.6814 34.6654 18.2003V7.47454C34.6654 7.03347 34.4472 6.62094 34.0827 6.37262C33.7182 6.12429 33.2545 6.07229 32.844 6.23374C31.6658 6.69716 30.4052 6.96444 29.0867 6.96444H29.0787C25.8085 6.96444 22.9238 5.41013 21.0443 3.01105ZM20.1595 34.0613C20.1015 34.0802 20.0482 34.0971 19.9998 34.1121C19.9513 34.097 19.8979 34.08 19.8398 34.061C19.5075 33.9524 19.0233 33.78 18.4382 33.5306C17.2646 33.0304 15.7036 32.2281 14.1486 31.0234C11.065 28.6344 7.9987 24.6699 7.9987 18.2003V9.28833C8.93055 9.50906 9.90485 9.63111 10.9107 9.63111C14.4812 9.63111 17.6758 8.16498 19.9947 5.84159C22.3136 8.16498 25.5083 9.63111 29.0787 9.63111H29.0867C30.0935 9.63111 31.067 9.50882 31.9987 9.28793V18.2003C31.9987 24.6824 28.9319 28.6465 25.8494 31.0319C24.2948 32.2349 22.7341 33.0349 21.5607 33.5333C20.9757 33.7818 20.4917 33.9533 20.1595 34.0613ZM27.5891 17.2949C28.1201 16.7847 28.137 15.9407 27.6269 15.4096C27.1167 14.8786 26.2727 14.8617 25.7416 15.3718L18.0376 22.7729L14.302 18.8119C13.7968 18.2761 12.9529 18.2514 12.4172 18.7567C11.8815 19.2619 11.8568 20.1057 12.362 20.6415L17.0209 25.5815C17.265 25.8403 17.6024 25.9908 17.958 25.9996C18.3137 26.0084 18.6581 25.8747 18.9146 25.6282L27.5891 17.2949Z" fill="#303336"/>
</svg>
