<svg width="40" height="40" viewBox="0 0 40 40" fill="none" xmlns="http://www.w3.org/2000/svg">
<path fill-rule="evenodd" clip-rule="evenodd" d="M33.6653 5C34.019 4.99999 34.3581 5.14046 34.6082 5.39051C34.8582 5.64056 34.9987 5.97971 34.9987 6.33333V33.6714C34.9987 34.4077 34.4017 35.0047 33.6654 35.0047H21.3333C20.597 35.0047 20 34.4077 20 33.6714C20 32.935 20.597 32.338 21.3333 32.338H32.332V7.6667L21.3334 7.66699C20.597 7.66701 20 7.07007 20 6.33369C20 5.59731 20.5969 5.00034 21.3333 5.00033L33.6653 5ZM25.9241 20.9614C26.1856 20.7101 26.3333 20.363 26.3333 20.0003C26.3333 19.6376 26.1856 19.2906 25.9241 19.0392L17.2575 10.7059C16.7267 10.1955 15.8826 10.212 15.3722 10.7428C14.8618 11.2737 14.8784 12.1177 15.4092 12.6281L21.6896 18.667H5.66927C4.93289 18.667 4.33594 19.2639 4.33594 20.0003C4.33594 20.7367 4.93289 21.3337 5.66927 21.3337H21.6896L15.4092 27.3725C14.8784 27.8829 14.8618 28.727 15.3722 29.2578C15.8826 29.7886 16.7267 29.8052 17.2575 29.2948L25.9241 20.9614Z" fill="#33363D"/>
</svg>
