<svg width="40" height="40" viewBox="0 0 40 40" fill="none" xmlns="http://www.w3.org/2000/svg">
<path fill-rule="evenodd" clip-rule="evenodd" d="M6.66536 9.33366H33.332C33.7002 9.33366 33.9987 9.63214 33.9987 10.0003V30.0003C33.9987 30.3685 33.7002 30.667 33.332 30.667H6.66537C6.29717 30.667 5.9987 30.3685 5.9987 30.0003V10.0003C5.9987 9.63214 6.29717 9.33366 6.66536 9.33366ZM3.33203 10.0003C3.33203 8.15938 4.82442 6.66699 6.66536 6.66699H33.332C35.173 6.66699 36.6654 8.15938 36.6654 10.0003V30.0003C36.6654 31.8413 35.173 33.3337 33.332 33.3337H6.66537C4.82442 33.3337 3.33203 31.8413 3.33203 30.0003V10.0003ZM25.832 22.0003C25.0957 22.0003 24.4987 22.5973 24.4987 23.3337C24.4987 24.0701 25.0957 24.667 25.832 24.667H29.9987C30.7351 24.667 31.332 24.0701 31.332 23.3337C31.332 22.5973 30.7351 22.0003 29.9987 22.0003H25.832ZM10.832 22.5003C12.2127 22.5003 13.332 21.381 13.332 20.0003C13.332 18.6196 12.2127 17.5003 10.832 17.5003C9.45132 17.5003 8.33203 18.6196 8.33203 20.0003C8.33203 21.381 9.45132 22.5003 10.832 22.5003ZM21.6654 20.0003C21.6654 21.381 20.5461 22.5003 19.1654 22.5003C17.7847 22.5003 16.6654 21.381 16.6654 20.0003C16.6654 18.6196 17.7847 17.5003 19.1654 17.5003C20.5461 17.5003 21.6654 18.6196 21.6654 20.0003Z" fill="#303336"/>
</svg>
