<svg width="40" height="40" viewBox="0 0 40 40" fill="none" xmlns="http://www.w3.org/2000/svg">
<path fill-rule="evenodd" clip-rule="evenodd" d="M6.5651 11.0948C6.5651 13.2642 8.32377 15.0228 10.4933 15.0228C12.1904 15.0228 13.6361 13.9465 14.1852 12.4394H11.1448C10.4084 12.4394 9.81143 11.8425 9.81143 11.1061C9.81143 10.3697 10.4084 9.77275 11.1448 9.77275H14.1935C13.6507 8.2537 12.1989 7.16665 10.4933 7.16667C8.32378 7.16669 6.5651 8.9254 6.5651 11.0948ZM10.4933 17.6894C13.6747 17.6894 16.3299 15.4367 16.9509 12.4394H23.0433C23.2142 13.2717 23.542 14.0468 23.9943 14.7325L14.8106 23.916C13.6539 22.9141 12.1451 22.3078 10.4946 22.3078C6.85243 22.3079 3.89979 25.2604 3.89979 28.9026C3.89979 32.5448 6.85244 35.4973 10.4946 35.4973C13.6805 35.4972 16.3387 33.2382 16.9549 30.2346H23.0484C23.6636 33.2396 26.3225 35.5 29.5093 35.5C33.1514 35.5 36.104 32.5474 36.1039 28.9052C36.1038 25.263 33.1511 22.3104 29.5089 22.3104C26.3249 22.3104 23.6679 24.5669 23.0499 27.568H16.9544C16.8453 27.0372 16.6724 26.5296 16.4441 26.0537L25.8807 16.6173C26.9204 17.302 28.1652 17.7004 29.5032 17.7003C33.1454 17.7002 36.0979 14.7476 36.0979 11.1054C36.0979 7.46318 33.1454 4.51065 29.5032 4.51075C26.3176 4.51083 23.6596 6.76953 23.0431 9.77275H16.9556C16.3434 6.76407 13.6827 4.49996 10.4933 4.5C6.85108 4.50004 3.89844 7.45262 3.89844 11.0948C3.89844 14.737 6.85108 17.6895 10.4933 17.6894ZM25.8117 30.2346H29.5065C30.2429 30.2346 30.8398 29.6377 30.8398 28.9013C30.8398 28.1649 30.2429 27.568 29.5065 27.568H25.8144C26.3614 26.0569 27.8091 24.9771 29.509 24.9771C31.6784 24.9771 33.4372 26.7357 33.4372 28.9052C33.4373 31.0746 31.6786 32.8333 29.5092 32.8333C27.8064 32.8333 26.3566 31.7498 25.8117 30.2346ZM25.575 11.1056C25.575 13.2751 27.3337 15.0337 29.5032 15.0337C31.6726 15.0336 33.4313 13.2749 33.4313 11.1054C33.4313 8.936 31.6726 7.17736 29.5032 7.17741C27.3337 7.17747 25.575 8.9362 25.575 11.1056ZM10.4946 32.8306C8.32513 32.8306 6.56646 31.072 6.56646 28.9026C6.56645 26.7332 8.32514 24.9745 10.4946 24.9745C12.6641 24.9745 14.4228 26.7331 14.4228 28.9025C14.4228 31.0719 12.6641 32.8306 10.4946 32.8306Z" fill="#303336"/>
</svg>
