<svg width="24" height="24" viewBox="0 0 24 24" fill="none" xmlns="http://www.w3.org/2000/svg">
<path d="M0 4C0 1.79086 1.79086 0 4 0H20C22.2091 0 24 1.79086 24 4V20C24 22.2091 22.2091 24 20 24H4C1.79086 24 0 22.2091 0 20V4Z" fill="#D6E0EB"/>
<path fill-rule="evenodd" clip-rule="evenodd" d="M12.5328 6.53333C12.5328 6.23878 12.294 6 11.9995 6C11.7049 6 11.4661 6.23878 11.4661 6.53333V11.4668H6.53333C6.23878 11.4668 6 11.7056 6 12.0001C6 12.2947 6.23878 12.5335 6.53333 12.5335H11.4661V17.4668C11.4661 17.7613 11.7049 18.0001 11.9995 18.0001C12.294 18.0001 12.5328 17.7613 12.5328 17.4668V12.5335H17.4667C17.7612 12.5335 18 12.2947 18 12.0001C18 11.7056 17.7612 11.4668 17.4667 11.4668H12.5328V6.53333Z" fill="#33363D"/>
</svg>
