<svg width="24" height="24" viewBox="0 0 24 24" fill="none" xmlns="http://www.w3.org/2000/svg">
<path d="M0 4C0 1.79086 1.79086 0 4 0H20C22.2091 0 24 1.79086 24 4V20C24 22.2091 22.2091 24 20 24H4C1.79086 24 0 22.2091 0 20V4Z" fill="#EEF2F7"/>
<path fill-rule="evenodd" clip-rule="evenodd" d="M6 6.53333C6 6.23878 6.23878 6 6.53333 6H16.7995C17.4622 6 17.9995 6.53726 17.9995 7.2V9.33281C17.9995 9.99555 17.4622 10.5328 16.7995 10.5328H10.5328V16.7995C10.5328 17.4622 9.99555 17.9995 9.33281 17.9995H7.2C6.53726 17.9995 6 17.4622 6 16.7995V6.53333ZM10.2204 9.46615H16.7995C16.8731 9.46615 16.9328 9.40645 16.9328 9.33281V7.2C16.9328 7.12636 16.8731 7.06667 16.7995 7.06667H7.82091L10.2204 9.46615ZM7.06667 7.82091V16.7995C7.06667 16.8731 7.12636 16.9328 7.2 16.9328H9.33281C9.40645 16.9328 9.46615 16.8731 9.46615 16.7995V10.2204L7.06667 7.82091Z" fill="#052B57"/>
</svg>
