<svg width="24" height="24" viewBox="0 0 24 24" fill="none" xmlns="http://www.w3.org/2000/svg">
<path d="M0 4C0 1.79086 1.79086 0 4 0H20C22.2091 0 24 1.79086 24 4V20C24 22.2091 22.2091 24 20 24H4C1.79086 24 0 22.2091 0 20V4Z" fill="#EEF2F7"/>
<path fill-rule="evenodd" clip-rule="evenodd" d="M5.33203 11.9994C5.33203 8.31756 8.3168 5.33276 11.9987 5.33276C15.6806 5.33276 18.6654 8.31756 18.6654 11.9994C18.6654 12.6271 18.5785 13.2353 18.4158 13.8123C18.3629 13.9997 18.2122 14.1434 18.0226 14.1872C17.8329 14.2311 17.6345 14.1681 17.5048 14.023C17.0523 13.5167 16.396 13.1992 15.6648 13.1992C14.3025 13.1992 13.1982 14.3036 13.1982 15.6659C13.1982 16.397 13.5156 17.0532 14.0217 17.5057C14.1669 17.6354 14.2298 17.8339 14.1859 18.0235C14.1421 18.2132 13.9984 18.3638 13.811 18.4167C13.2342 18.5793 12.6261 18.6661 11.9987 18.6661C8.3168 18.6661 5.33203 15.6813 5.33203 11.9994ZM11.9987 6.39943C8.9059 6.39943 6.3987 8.90666 6.3987 11.9994C6.3987 15.0922 8.9059 17.5994 11.9987 17.5994C12.2297 17.5994 12.4573 17.5855 12.6806 17.5584C12.3331 17.0114 12.1315 16.362 12.1315 15.6659C12.1315 13.7145 13.7134 12.1326 15.6648 12.1326C16.3611 12.1326 17.0105 12.3343 17.5576 12.6819C17.5847 12.4583 17.5987 12.2306 17.5987 11.9994C17.5987 8.90666 15.0915 6.39943 11.9987 6.39943ZM12.0336 8.65099C12.0336 9.09282 11.6754 9.45099 11.2336 9.45099C10.7918 9.45099 10.4336 9.09282 10.4336 8.65099C10.4336 8.20916 10.7918 7.85099 11.2336 7.85099C11.6754 7.85099 12.0336 8.20916 12.0336 8.65099ZM14.5826 10.3481C15.0244 10.3481 15.3826 9.98996 15.3826 9.54813C15.3826 9.1063 15.0244 8.74813 14.5826 8.74813C14.1407 8.74813 13.7826 9.1063 13.7826 9.54813C13.7826 9.98996 14.1407 10.3481 14.5826 10.3481ZM10.4815 14.4505C10.4815 14.8923 10.1233 15.2505 9.68151 15.2505C9.23968 15.2505 8.88151 14.8923 8.88151 14.4505C8.88151 14.0086 9.23968 13.6505 9.68151 13.6505C10.1233 13.6505 10.4815 14.0086 10.4815 14.4505ZM9.58307 11.1031C9.58307 10.6612 9.2249 10.3031 8.78307 10.3031C8.34124 10.3031 7.98307 10.6612 7.98307 11.1031C7.98307 11.5449 8.34124 11.9031 8.78307 11.9031C9.2249 11.9031 9.58307 11.5449 9.58307 11.1031Z" fill="#052B57"/>
</svg>
