<svg width="24" height="24" viewBox="0 0 24 24" fill="none" xmlns="http://www.w3.org/2000/svg">
<path d="M0 4C0 1.79086 1.79086 0 4 0H20C22.2091 0 24 1.79086 24 4V20C24 22.2091 22.2091 24 20 24H4C1.79086 24 0 22.2091 0 20V4Z" fill="#EEF2F7"/>
<path fill-rule="evenodd" clip-rule="evenodd" d="M17.4667 6C17.7612 6 18 6.23878 18 6.53333V11.8667C18 12.1612 17.7612 12.4 17.4667 12.4C17.1721 12.4 16.9333 12.1612 16.9333 11.8667V7.80982L7.6985 16.932H11.8667C12.1612 16.932 12.4 17.1708 12.4 17.4654C12.4 17.7599 12.1612 17.9987 11.8667 17.9987H6.53333C6.23878 17.9987 6 17.7599 6 17.4654V12.132C6 11.8375 6.23878 11.5987 6.53333 11.5987C6.82789 11.5987 7.06667 11.8375 7.06667 12.132V16.0568L16.1678 7.06667H12.1333C11.8388 7.06667 11.6 6.82789 11.6 6.53333C11.6 6.23878 11.8388 6 12.1333 6H17.4667Z" fill="#052B57"/>
</svg>
