<svg width="24" height="24" viewBox="0 0 24 24" fill="none" xmlns="http://www.w3.org/2000/svg">
<path d="M0 4C0 1.79086 1.79086 0 4 0H20C22.2091 0 24 1.79086 24 4V20C24 22.2091 22.2091 24 20 24H4C1.79086 24 0 22.2091 0 20V4Z" fill="#EEF2F7"/>
<path fill-rule="evenodd" clip-rule="evenodd" d="M7.06667 7.06667V8.66667C7.06667 8.96122 6.82789 9.2 6.53333 9.2C6.23878 9.2 6 8.96122 6 8.66667V6.86667C6 6.38802 6.38802 6 6.86667 6H17.1331C17.6118 6 17.9998 6.38802 17.9998 6.86667V8.66667C17.9998 8.96122 17.761 9.2 17.4665 9.2C17.1719 9.2 16.9331 8.96122 16.9331 8.66667V7.06667H12.5334L12.534 16.9331H14.7995C15.094 16.9331 15.3328 17.1719 15.3328 17.4665C15.3328 17.761 15.094 17.9998 14.7995 17.9998H9.19948C8.90493 17.9998 8.66615 17.761 8.66615 17.4665C8.66615 17.1719 8.90493 16.9331 9.19948 16.9331H11.4674L11.4668 7.06667H7.06667Z" fill="#052B57"/>
</svg>
