<svg width="24" height="24" viewBox="0 0 24 24" fill="none" xmlns="http://www.w3.org/2000/svg">
<path d="M0 4C0 1.79086 1.79086 0 4 0H20C22.2091 0 24 1.79086 24 4V20C24 22.2091 22.2091 24 20 24H4C1.79086 24 0 22.2091 0 20V4Z" fill="#EEF2F7"/>
<path fill-rule="evenodd" clip-rule="evenodd" d="M13.6003 8.66667C13.8948 8.66667 14.1336 8.90545 14.1336 9.2V9.86628H14.8C15.0946 9.86628 15.3333 10.1051 15.3333 10.3996C15.3333 10.6942 15.0946 10.9329 14.8 10.9329H14.1336V13.0668H14.8C15.0946 13.0668 15.3333 13.3056 15.3333 13.6001C15.3333 13.8947 15.0946 14.1335 14.8 14.1335H14.1336V14.8C14.1336 15.0946 13.8948 15.3333 13.6003 15.3333C13.3057 15.3333 13.0669 15.0946 13.0669 14.8V14.1335L10.9331 14.1335V14.8C10.9331 15.0946 10.6943 15.3333 10.3997 15.3333C10.1052 15.3333 9.86641 15.0946 9.86641 14.8V14.1335H9.2C8.90545 14.1335 8.66667 13.8947 8.66667 13.6001C8.66667 13.3056 8.90545 13.0668 9.2 13.0668H9.86641L9.86641 10.9329H9.2C8.90545 10.9329 8.66667 10.6942 8.66667 10.3996C8.66667 10.1051 8.90545 9.86628 9.2 9.86628H9.86641V9.2C9.86641 8.90545 10.1052 8.66667 10.3997 8.66667C10.6943 8.66667 10.9331 8.90545 10.9331 9.2V9.86628H13.0669V9.2C13.0669 8.90545 13.3057 8.66667 13.6003 8.66667ZM13.0669 10.9329H10.9331L10.9331 13.0668H13.0669V10.9329Z" fill="#052B57"/>
<path fill-rule="evenodd" clip-rule="evenodd" d="M6 7.2C6 6.53726 6.53726 6 7.2 6H16.8C17.4627 6 18 6.53726 18 7.2V16.8C18 17.4627 17.4627 18 16.8 18H7.2C6.53726 18 6 17.4627 6 16.8V7.2ZM7.2 7.06667C7.12636 7.06667 7.06667 7.12636 7.06667 7.2V16.8C7.06667 16.8736 7.12636 16.9333 7.2 16.9333H16.8C16.8736 16.9333 16.9333 16.8736 16.9333 16.8V7.2C16.9333 7.12636 16.8736 7.06667 16.8 7.06667H7.2Z" fill="#052B57"/>
</svg>
