<svg width="24" height="24" viewBox="0 0 24 24" fill="none" xmlns="http://www.w3.org/2000/svg">
<path d="M0 4C0 1.79086 1.79086 0 4 0H20C22.2091 0 24 1.79086 24 4V20C24 22.2091 22.2091 24 20 24H4C1.79086 24 0 22.2091 0 20V4Z" fill="#EEF2F7"/>
<path d="M7.2 6C6.53726 6 6 6.53726 6 7.2V8.40002C6 8.69457 6.23878 8.93335 6.53333 8.93335C6.82789 8.93335 7.06667 8.69457 7.06667 8.40002V7.2C7.06667 7.12636 7.12636 7.06667 7.2 7.06667H8.39994C8.69449 7.06667 8.93327 6.82789 8.93327 6.53333C8.93327 6.23878 8.69449 6 8.39994 6H7.2Z" fill="#052B57"/>
<path d="M10.7998 6C10.5053 6 10.2665 6.23878 10.2665 6.53333C10.2665 6.82789 10.5053 7.06667 10.7998 7.06667H13.1997C13.4942 7.06667 13.733 6.82789 13.733 6.53333C13.733 6.23878 13.4942 6 13.1997 6H10.7998Z" fill="#052B57"/>
<path fill-rule="evenodd" clip-rule="evenodd" d="M15.5995 6C15.305 6 15.0662 6.23878 15.0662 6.53333C15.0662 6.82789 15.305 7.06667 15.5995 7.06667H16.7995C16.8731 7.06667 16.9328 7.12636 16.9328 7.2V7.80014L16.9289 7.80013C11.8869 7.80006 7.79948 11.8874 7.79948 16.9294C7.79948 16.9308 7.79948 16.9321 7.79949 16.9335H7.2C7.12636 16.9335 7.06667 16.8738 7.06667 16.8001V15.6001C7.06667 15.3056 6.82789 15.0668 6.53333 15.0668C6.23878 15.0668 6 15.3056 6 15.6001V16.8001C6 17.4629 6.53726 18.0001 7.2 18.0001H8.39994C8.4682 18.0001 8.53347 17.9873 8.59346 17.9639C8.6817 17.9875 8.77441 18 8.87006 18H10.7883C10.7921 18.0001 10.796 18.0001 10.7998 18.0001H13.1997C13.2035 18.0001 13.2074 18.0001 13.2112 18H15.588C15.5919 18.0001 15.5957 18.0001 15.5995 18.0001H16.7995C17.4312 18.0001 17.9488 17.5121 17.996 16.8925C17.9983 16.862 17.9995 16.8312 17.9995 16.8001L17.9995 8.87071C17.9995 8.77487 18 8.66667 18 8.66667C18 8.66667 17.9995 8.4683 17.9995 8.40002V7.2C17.9995 6.53726 17.4622 6 16.7995 6H15.5995ZM16.9328 8.87071L16.9328 8.86967L16.9317 8.86794L16.9303 8.86689L16.9289 8.8668C12.476 8.86673 8.86615 12.4765 8.86615 16.9294L8.86619 16.9305L8.86729 16.9322L8.8687 16.9333L8.87006 16.9333H16.7995C16.8731 16.9333 16.9328 16.8736 16.9328 16.8V8.87071Z" fill="#052B57"/>
<path d="M7.06667 10.8C7.06667 10.5055 6.82789 10.2667 6.53333 10.2667C6.23878 10.2667 6 10.5055 6 10.8V13.2001C6 13.4946 6.23878 13.7334 6.53333 13.7334C6.82789 13.7334 7.06667 13.4946 7.06667 13.2001V10.8Z" fill="#052B57"/>
</svg>
