<svg width="24" height="24" viewBox="0 0 24 24" fill="none" xmlns="http://www.w3.org/2000/svg">
<path d="M0.5 4C0.5 2.067 2.067 0.5 4 0.5H20C21.933 0.5 23.5 2.067 23.5 4V20C23.5 21.933 21.933 23.5 20 23.5H4C2.067 23.5 0.5 21.933 0.5 20V4Z" fill="white"/>
<path d="M0.5 4C0.5 2.067 2.067 0.5 4 0.5H20C21.933 0.5 23.5 2.067 23.5 4V20C23.5 21.933 21.933 23.5 20 23.5H4C2.067 23.5 0.5 21.933 0.5 20V4Z" stroke="#B1B8BE"/>
<path fill-rule="evenodd" clip-rule="evenodd" d="M8.13281 9.33346C8.13281 8.67072 8.67007 8.13346 9.33281 8.13346H16.7995C17.4622 8.13346 17.9995 8.67072 17.9995 9.33346V16.8001C17.9995 17.4629 17.4622 18.0001 16.7995 18.0001H9.33281C8.67007 18.0001 8.13281 17.4629 8.13281 16.8001V9.33346ZM9.33281 9.20013C9.25917 9.20013 9.19948 9.25983 9.19948 9.33346V16.8001C9.19948 16.8738 9.25917 16.9335 9.33281 16.9335H16.7995C16.8731 16.9335 16.9328 16.8738 16.9328 16.8001V9.33346C16.9328 9.25982 16.8731 9.20013 16.7995 9.20013H9.33281Z" fill="#464C53"/>
<path fill-rule="evenodd" clip-rule="evenodd" d="M6 7.2C6 6.53726 6.53726 6 7.2 6H16.1328C16.4274 6 16.6661 6.23878 16.6661 6.53333C16.6661 6.82789 16.4274 7.06667 16.1328 7.06667H7.2C7.12636 7.06667 7.06667 7.12636 7.06667 7.2V16.1335C7.06667 16.428 6.82789 16.6668 6.53333 16.6668C6.23878 16.6668 6 16.428 6 16.1335V7.2Z" fill="#464C53"/>
</svg>
