<svg width="100" height="38" viewBox="0 0 100 38" fill="none" xmlns="http://www.w3.org/2000/svg">
<path d="M32.6049 19C32.6049 27.8377 25.4168 35 16.5539 35C7.69106 35 0.5 27.8377 0.5 19C0.5 10.1623 7.68514 3 16.5539 3C25.4227 3 32.6049 10.1653 32.6049 19Z" fill="white"/>
<path d="M24.079 17.8859C21.5269 16.1574 18.2603 16.8606 16.5441 19.4608C15.1154 21.6326 12.9545 21.9044 12.1216 21.9044C9.39156 21.9044 7.5271 19.9897 6.97281 18.01C6.96688 17.9893 6.96095 17.9716 6.95798 17.9539C6.95206 17.9332 6.94909 17.9096 6.9402 17.8859C6.72085 17.0586 6.6675 16.6656 6.6675 15.7881C6.6675 11.0575 11.5406 5.78621 18.5538 5.78621C25.567 5.78621 29.8502 11.2377 30.9144 14.2693C30.8936 14.2132 30.8758 14.1629 30.858 14.1098C28.8187 8.17956 23.1779 3.91881 16.5382 3.91881C8.18811 3.91881 1.41203 10.6675 1.41203 18.9999C1.41203 26.4459 6.79792 32.8163 14.2735 32.8163C20.2315 32.8163 24.2361 29.4893 26.0709 24.8946C27.0787 22.3831 26.3673 19.4342 24.079 17.883" fill="#003964"/>
<path d="M31.0039 14.5619C30.1176 11.6042 25.9796 5.78627 18.5515 5.78627C11.5382 5.78627 6.66515 11.0576 6.66515 15.7881C6.66515 16.6657 6.72147 17.0587 6.93785 17.886C6.84596 17.5226 6.79853 17.1621 6.79853 16.8105C6.79853 11.8819 11.7487 8.46624 16.8382 8.46624C23.7298 8.46624 29.3143 14.033 29.3143 20.8998C29.3143 26.2805 26.2049 30.9431 21.6935 33.1798C27.5151 31.0819 31.6708 25.524 31.6708 18.9999C31.6708 17.4546 31.4634 16.0925 31.0069 14.5619" fill="#ED1A3B"/>
<path d="M49.8806 23.1848V24.4761H38.8945V23.1848H43.6384V20.8115H39.7811V14.0846H41.2431V15.8148H47.5268V14.0846H48.9993V20.8115H45.1264V23.1848H49.8858H49.8806ZM47.5217 19.5457V17.0806H41.238V19.5457H47.5217Z" fill="#575756"/>
<path d="M56.9261 20.0816H55.4381V15.2279H51.0572V13.9213H56.9261V20.0816ZM51.8452 25.1089V20.8064H53.3332V23.8126H61.6389V25.1038H51.8452V25.1089ZM59.9124 13.5793H61.4004V21.1126H59.9124V17.6675H57.9578V16.3864H59.9124V13.5742V13.5793Z" fill="#575756"/>
<path d="M74.3311 19.3569V20.6124H63.345V19.3569H68.0888V18.3259H64.2315V13.7222H65.6936V14.8196H71.9773V13.7222H73.4497V18.3259H69.5768V19.3569H74.3311ZM73.4445 21.572V25.3692H71.9565V22.8122H63.9412V21.572H73.4445ZM71.9721 16.0343H65.6884V17.101H71.9721V16.0343Z" fill="#575756"/>
<path d="M75.8144 15.6006V14.3093H82.9432V15.6006H79.9413L83.2646 23.2921L81.9529 23.8484L79.4073 17.831L76.8773 23.9403L75.5345 23.384L78.8733 15.6006H75.8144ZM84.6852 13.5845H86.1732V25.3489H84.6852V13.5845Z" fill="#575756"/>
<path d="M87.9363 21.0105H98.9224V22.3018H94.1681V25.3335H92.6802V22.3018H87.9363V21.0105ZM90.2797 15.2585H96.5634V13.7681H98.0358V19.4283H88.8177V13.7681H90.2797V15.2585ZM96.5634 16.5242H90.2797V18.1473H96.5634V16.5242Z" fill="#575756"/>
</svg>
