<svg width="156" height="38" viewBox="0 0 156 38" fill="none" xmlns="http://www.w3.org/2000/svg">
<g clip-path="url(#clip0_1363_53845)">
<path d="M50.8281 21.3719V17.5826H49.0506V30.0078C49.0506 30.498 49.4513 30.8945 49.9415 30.8945C50.4316 30.8945 50.8323 30.498 50.8323 30.0078V22.7701H51.7786V30.0078C51.7786 30.498 52.175 30.8945 52.6695 30.8945C53.1639 30.8945 53.5604 30.498 53.5604 30.0078V17.5826H51.7829V21.3719H50.8281Z" fill="#00479D"/>
<path d="M76.1431 25.7123C76.1431 26.2622 76.5863 26.7055 77.1362 26.7055C77.6862 26.7055 78.1294 26.258 78.1294 25.7123V19.4975C78.1294 18.8326 77.5927 18.2955 76.9316 18.2955H68.9095V19.6936H76.1431V25.7123Z" fill="#00479D"/>
<path d="M11.4801 29.3725H5.00963V26.3844H3.02328V29.5728C3.02328 30.2377 3.5561 30.7749 4.22106 30.7749H11.4801C11.8681 30.7749 12.1792 30.4594 12.1792 30.0715C12.1792 29.6836 11.8681 29.3725 11.4801 29.3725Z" fill="#00479D"/>
<path d="M13.0106 21.1289H11.8213V17.5826H9.83501V26.1289C9.83501 26.6788 10.2826 27.1221 10.8281 27.1221C11.3737 27.1221 11.8213 26.6788 11.8213 26.1289V22.5271H13.0106C13.3985 22.5271 13.7096 22.2159 13.7096 21.828C13.7096 21.4401 13.3942 21.1247 13.0106 21.1247V21.1289Z" fill="#00479D"/>
<path d="M40.4826 20.0679H39.2934V17.5871H37.307V23.7294C37.307 24.2793 37.7503 24.7226 38.3002 24.7226C38.8501 24.7226 39.2934 24.2793 39.2934 23.7294V21.4703H40.4826C40.8705 21.4703 41.1817 21.1549 41.1817 20.7712C41.1817 20.3876 40.8705 20.0721 40.4826 20.0721V20.0679Z" fill="#00479D"/>
<path d="M8.00219 22.2667C8.00219 21.849 7.87855 21.4909 7.60575 21.1671C7.28606 20.7919 6.56142 20.7408 6.26305 21.0605C5.98598 21.3546 5.96467 21.653 6.06271 22.1133C6.26305 23.0298 5.56826 24.0272 4.56656 24.0272C3.72258 24.0272 3.04057 23.2343 3.04057 22.2625C3.04057 21.3418 3.63307 20.5106 4.67312 20.5106H8.32183C8.70976 20.5106 9.0209 20.1994 9.0209 19.8115C9.0209 19.4237 8.70551 19.1125 8.32183 19.1125H5.59383V17.3862H3.53502V19.1125H0.227295V20.5106H1.75755C1.36539 21.005 1.13096 21.6103 1.13096 22.2625C1.13096 23.9419 2.66973 25.3059 4.56656 25.3059C6.55716 25.3059 8.00219 23.9419 8.00219 22.2625V22.2667Z" fill="#00479D"/>
<path d="M65.7173 29.377H59.3917V26.1034H57.4053V29.5816C57.4053 30.2423 57.9424 30.7837 58.6031 30.7837H65.7131C66.1009 30.7837 66.4121 30.4682 66.4121 30.0846C66.4121 29.701 66.0967 29.3813 65.7131 29.3813L65.7173 29.377Z" fill="#00479D"/>
<path d="M79.1781 27.6254H73.7303V22.9495H71.7439V27.6254H67.4345V29.0278H79.182C79.5702 29.0278 79.8811 28.7124 79.8811 28.3288C79.8811 27.9452 79.5656 27.6298 79.182 27.6298L79.1781 27.6254Z" fill="#00479D"/>
<path d="M105.231 23.2439H103.658C104.114 22.6131 104.212 21.6284 104.212 20.746V19.0794C104.212 18.4188 103.671 17.8816 103.01 17.8816H94.6723V19.2798H102.221V21.2874C102.221 21.9012 102.192 22.6429 101.859 23.2397H99.8215V20.729H97.8354V23.2397H92.9507V24.642H96.4797C95.6104 25.1109 94.9066 26.3215 94.9066 27.3444C94.9066 28.3675 95.3459 29.1816 96.2322 29.885C97.1193 30.5883 98.1804 30.9378 99.4294 30.9378C100.678 30.9378 101.74 30.584 102.63 29.885C103.521 29.1816 103.969 28.3632 103.969 27.3444C103.969 26.5431 103.649 25.8867 103.01 25.3411C102.601 24.9958 101.94 24.9575 101.548 25.3155C101.19 25.6437 101.228 26.2448 101.578 26.5474C102.064 26.9736 102.157 28.0265 101.181 28.8321C100.67 29.2541 100.081 29.4673 99.4255 29.4673C98.7689 29.4673 98.185 29.2541 97.6777 28.8321C97.1742 28.4101 96.9228 27.8986 96.9228 27.3018C96.9228 25.4817 98.9306 24.6377 99.9538 24.6377H105.222C105.61 24.6377 105.921 24.3223 105.921 23.9344C105.921 23.5466 105.61 23.2353 105.222 23.2353L105.231 23.2439Z" fill="#00479D"/>
<path d="M118.381 21.0441H117.195V17.5871H115.209V22.8769C114.659 23.1156 113.888 23.2435 113.172 23.2435H108.679V19.2836H112.852C113.24 19.2836 113.551 18.9725 113.551 18.5845C113.551 18.1967 113.235 17.8855 112.852 17.8855H106.692V23.4481C106.692 24.1088 107.23 24.6501 107.894 24.6501H113.018C113.79 24.6501 114.681 24.5137 115.214 24.2409V26.142C115.214 26.6919 115.657 27.1352 116.207 27.1352C116.756 27.1352 117.2 26.6919 117.2 26.142V22.4464H118.384C118.773 22.4464 119.088 22.1352 119.088 21.7474C119.088 21.3594 118.773 21.0483 118.384 21.0483L118.381 21.0441Z" fill="#00479D"/>
<path d="M116.756 29.3815H110.483V25.963H108.496V29.5819C108.496 30.2426 109.029 30.7839 109.694 30.7839H116.756C117.145 30.7839 117.456 30.4685 117.456 30.0848C117.456 29.7012 117.141 29.3858 116.756 29.3858V29.3815Z" fill="#00479D"/>
<path d="M65.1588 27.1352C65.7087 27.1352 66.152 26.6919 66.152 26.142V17.5871H64.1657V26.142C64.1657 26.6919 64.6089 27.1352 65.1588 27.1352Z" fill="#00479D"/>
<path d="M32.0601 22.1487C32.5759 22.9671 33.6202 23.5809 34.4685 23.939C35.3252 24.3013 36.0328 24.3524 36.3098 23.875C36.506 23.534 36.2928 23.0481 35.9688 22.9543C35.4787 22.8094 34.5793 22.3234 34.1061 21.8546C33.5009 21.2493 33.1641 20.0984 33.0959 19.2842H35.1078C35.4957 19.2842 35.8069 18.9731 35.8069 18.5852C35.8069 18.1973 35.4914 17.8862 35.1078 17.8862H28.4454V19.2842H31.0371C30.9689 20.0984 30.6321 21.2493 30.0184 21.8546C29.4045 22.4556 28.5052 22.8904 27.512 23.1589L28.4028 24.3183C29.9331 23.9475 31.3099 23.1291 32.0559 22.153L32.0601 22.1487Z" fill="#00479D"/>
<path d="M24.6175 22.4383C25.048 21.931 25.1929 21.0785 25.1929 20.2601V19.0794C25.1929 18.4188 24.6558 17.8816 23.9951 17.8816H15.7046V19.2798H23.2066V20.9293C23.2066 21.5261 23.1214 22.0973 22.7718 22.434H13.9867V23.8364H19.4768V25.6309H15.7088V27.0333H23.0659V29.902C23.0659 30.4519 23.5135 30.8952 24.0634 30.8952C24.6132 30.8952 25.0565 30.4519 25.0565 29.902V26.8329C25.0565 26.1723 24.5194 25.6309 23.8587 25.6309H21.4675V23.8364H26.3907C26.7786 23.8364 27.0898 23.521 27.0898 23.1374C27.0898 22.7537 26.7743 22.4383 26.3907 22.4383H24.6175Z" fill="#00479D"/>
<path d="M35.1208 24.6548C32.9255 24.6548 31.1395 26.1169 31.1395 27.9199C31.1395 29.723 32.9212 31.185 35.1208 31.185C37.3202 31.185 39.1019 29.723 39.1019 27.9199C39.1019 26.1169 37.3202 24.6548 35.1208 24.6548ZM35.1208 29.7912C34.0423 29.7912 33.1642 28.9515 33.1642 27.9199C33.1642 26.8884 34.0423 26.0487 35.1208 26.0487C36.1992 26.0487 37.0815 26.8884 37.0815 27.9199C37.0815 28.9515 36.2034 29.7912 35.1208 29.7912Z" fill="#00479D"/>
<path d="M92.0209 23.7209H89.6729V21.6962C90.1455 21.2103 90.427 20.6178 90.427 19.9784C90.427 18.316 88.526 16.9647 86.1857 16.9647C83.8454 16.9647 81.9444 18.3118 81.9444 19.9784C81.9444 20.6434 82.2515 21.2529 82.7634 21.7516V23.7209H79.7449V25.119H83.304C82.4773 25.6689 81.847 26.5853 81.847 27.5273C81.847 28.4694 82.2731 29.275 83.1254 29.9442C83.9777 30.6091 85.014 30.9459 86.2244 30.9459C87.4347 30.9459 88.4749 30.6092 89.3318 29.9357C90.1888 29.2622 90.6188 28.4907 90.6188 27.5273C90.6188 26.8453 90.2011 26.1974 89.775 25.8394C89.3233 25.46 88.7054 25.3023 88.2831 25.7201C88.0271 25.9758 87.874 26.3467 88.3218 26.9903C88.6837 27.5061 88.4363 28.4139 87.8438 28.8999C87.3752 29.2835 86.8384 29.4753 86.2197 29.4753C85.6018 29.4753 85.0651 29.2835 84.6088 28.8999C84.1486 28.5163 83.9228 28.0517 83.9228 27.4975C83.9228 26.0823 85.4695 25.1147 86.9065 25.1147H92.0171C92.4053 25.1147 92.7162 24.8036 92.7162 24.4157C92.7162 24.0278 92.4007 23.7167 92.0171 23.7167L92.0209 23.7209ZM86.1857 18.333C87.4092 18.333 88.3984 19.0705 88.3984 19.9784C88.3984 20.8863 87.4092 21.628 86.1857 21.628C84.9622 21.628 83.9738 20.8905 83.9738 19.9784C83.9738 19.0662 84.9668 18.333 86.1857 18.333ZM84.7194 22.8045C85.1757 22.9238 85.6698 22.9963 86.1857 22.9963C86.7016 22.9963 87.2429 22.9195 87.7162 22.7917V23.7252H84.7194V22.8045Z" fill="#00479D"/>
<path d="M44.8813 17.7744C42.9291 17.7744 41.3476 19.3601 41.3476 21.3208C41.3476 23.2816 42.9291 24.8672 44.8813 24.8672C46.8335 24.8672 48.415 23.2774 48.415 21.3208C48.415 19.3643 46.8335 17.7744 44.8813 17.7744ZM44.8813 23.3711C44.0203 23.3711 43.3255 22.4546 43.3255 21.3208C43.3255 20.187 44.0246 19.2748 44.8813 19.2748C45.7381 19.2748 46.4414 20.1912 46.4414 21.3208C46.4414 22.4504 45.7424 23.3711 44.8813 23.3711Z" fill="#00479D"/>
<path d="M62.3923 21.3333C62.3923 19.3683 60.7129 17.7699 58.6413 17.7699C56.5697 17.7699 54.8903 19.364 54.8903 21.3333C54.8903 23.3026 56.5697 24.9011 58.6413 24.9011C60.7129 24.9011 62.3923 23.3069 62.3923 21.3333ZM56.8511 21.3333C56.8511 20.1611 57.6524 19.2063 58.6413 19.2063C59.6302 19.2063 60.4315 20.1568 60.4315 21.3333C60.4315 22.5097 59.6302 23.4646 58.6413 23.4646C57.6524 23.4646 56.8511 22.514 56.8511 21.3333Z" fill="#00479D"/>
<path d="M123.514 11.0952V15.6135C123.514 14.6161 124.626 13.6953 126.502 12.9452C126.502 12.9452 126.745 12.8471 126.843 12.813C128.169 12.2674 128.94 11.3467 128.94 9.74827V7.65536C125.62 8.49082 123.514 9.72268 123.514 11.0952Z" fill="#F39800"/>
<path d="M136.383 2.80049C136.383 4.34779 135.129 5.60098 133.582 5.60098C132.035 5.60098 130.782 4.34779 130.782 2.80049C130.782 1.25319 132.035 0 133.582 0C135.129 0 136.383 1.25319 136.383 2.80049Z" fill="#F39800"/>
<path d="M139.268 6.53908C137.789 6.53908 135.857 6.59875 134.506 6.7522C132.264 7.00369 130.837 8.59785 130.837 10.9082V25.9635C130.837 26.8714 132.064 27.6088 133.581 27.6088C135.099 27.6088 136.327 26.8756 136.327 25.9635V12.042C136.327 11.5305 136.736 11.1682 137.247 11.1C137.908 11.0744 138.581 11.0574 139.268 11.0574C147.968 11.0574 155.022 13.0991 155.022 15.6183V11.1C155.022 8.58509 147.968 6.54334 139.268 6.54334V6.53908Z" fill="#F39800"/>
<path d="M148.317 14.8294V16.8924C148.317 18.0092 149.442 19.0962 151.1 18.6273C153.539 17.826 155.018 16.7731 155.018 15.6222V11.1039C155.018 12.647 152.366 14.011 148.317 14.8379V14.8294Z" fill="#00479D"/>
<path d="M146.476 11.637C146.476 13.1844 145.222 14.4376 143.675 14.4376C142.128 14.4376 140.874 13.1844 140.874 11.637C140.874 10.0898 142.128 8.83659 143.675 8.83659C145.222 8.83659 146.476 10.0898 146.476 11.637Z" fill="#00479D"/>
<path d="M142.218 15.5748C142.218 15.5748 140.278 15.6557 139.268 15.6557C130.568 15.6557 123.514 13.6144 123.514 11.0952V15.6135C123.514 18.1327 130.568 20.1698 139.268 20.1698C139.511 20.1698 139.98 20.1655 139.98 20.1655C140.504 20.1655 140.926 20.5918 140.926 21.1118V36.3546C140.926 37.2626 142.158 38 143.671 38C145.185 38 146.416 37.2626 146.416 36.3546V19.7776C146.416 17.4588 144.537 15.3915 142.213 15.5748H142.218Z" fill="#00479D"/>
</g>
<defs>
<clipPath id="clip0_1363_53845">
<rect width="155" height="38" fill="white" transform="translate(0.227295)"/>
</clipPath>
</defs>
</svg>
