<svg width="123" height="38" viewBox="0 0 123 38" fill="none" xmlns="http://www.w3.org/2000/svg">
<path fill-rule="evenodd" clip-rule="evenodd" d="M114.915 18.4437H116.102V20.7982H120.623V22.0447H114.519V18.8394C114.173 19.1659 113.797 19.4725 113.441 19.7396L112.61 18.5624C113.194 18.1172 113.965 17.4742 114.133 16.7619H111.759V15.5155H113.431C112.699 15.0901 112.234 14.3976 112.234 13.6161C112.234 12.3201 113.54 11.2715 115.152 11.2715C116.765 11.2715 118.071 12.3201 118.071 13.6161C118.071 14.3976 117.596 15.0901 116.874 15.5155H118.991V11.3803H120.574V19.8683H118.991V18.7899H117.22V17.5435H118.991V16.7718H115.944C115.756 17.3654 115.38 17.9293 114.915 18.4437ZM37.5538 15.1692C36.6932 16.4355 35.1796 17.2467 33.6165 17.8304L32.9834 16.7422C35.1697 15.8023 36.6536 14.724 36.8218 12.9137H34.7839C34.1606 12.9137 33.5374 12.7752 32.9933 12.4784L33.5869 11.3902C33.9628 11.5979 34.3585 11.6771 34.7839 11.6771H38.4739V12.3993C38.4739 12.9236 38.3947 13.3984 38.2463 13.8535H40.2051V11.3803H41.7879V18.9581H40.2051V15.0901H37.6231C37.5934 15.1099 37.5736 15.1395 37.5538 15.1692ZM37.4153 17.7512H35.8325V22.0447H41.9363V20.7982H37.4153V17.7512ZM55.519 13.2203C55.519 12.518 55.4102 11.9046 55.0244 11.2814L53.58 11.8552C53.8768 12.33 53.9362 12.7653 53.9362 13.2995V18.1271H56.5281V20.1848H52.3731V21.4313H62.2955V20.1848H58.1109V18.1271H60.7424V11.3803H59.1595V13.8337H55.519V13.2203ZM59.1595 16.8807H55.519V15.0802H59.1595V16.8807ZM105.329 12.9137H103.538C102.915 12.9137 102.292 12.7752 101.748 12.4784L102.341 11.3902C102.717 11.5979 103.113 11.6771 103.538 11.6771H107.149C107.11 12.7851 106.941 14.1404 106.714 15.0307C106.061 17.583 104.735 19.2054 102.47 20.541L101.639 19.433C103.726 18.1667 105.279 16.4256 105.329 12.9137ZM109.909 11.3803H108.326V22.0447H109.909V15.0802H111.235V13.8337H109.909V11.3803ZM97.9885 18.5723C98.7403 18.5723 99.3537 19.1263 99.3537 19.8089C99.3537 20.4915 98.7403 21.0455 97.9885 21.0455C97.2366 21.0455 96.6233 20.4915 96.6233 19.8089C96.6233 19.1263 97.2366 18.5723 97.9885 18.5723ZM100.986 11.3803H99.4031V12.8741H97.8994V14.081H99.3932V15.0307H97.8994V15.7727H97.2267V12.9038H97.6917V11.6672H93.7148C93.2894 11.6672 92.8937 11.5881 92.5178 11.3803L91.9242 12.4685C92.4683 12.7752 93.1015 12.9038 93.7148 12.9038H95.6538V15.7727H94.4864V13.4281H92.9827V15.7727H92.1023V17.0192H98.0775V16.2376H99.4031V17.3753H100.986V11.3803ZM97.9885 17.3753C96.277 17.3753 94.9019 18.4635 94.9019 19.799C94.9019 21.1345 96.2869 22.2227 97.9885 22.2227C99.6999 22.2227 101.075 21.1345 101.075 19.799C101.075 18.4635 99.6999 17.3753 97.9885 17.3753ZM90.1435 11.3803H88.5607V22.0447H90.1435V15.0802H91.5978V13.8337H90.1435V11.3803ZM87.1955 20.2936L84.841 17.3456C84.0892 18.7009 83.0801 19.7298 82.4668 20.264L81.5665 19.1758C82.0612 18.7306 82.8625 17.771 83.3077 16.9004C83.8122 15.9013 84.0694 14.7834 84.0694 13.6556V11.3803C84.6135 11.3803 85.1675 11.3803 85.7116 11.3803V13.3292C85.7116 14.0316 85.6226 15.3176 85.5038 15.7232L88.3628 19.0867L87.1955 20.2936ZM79.4 20.7982H76.6004V18.9878H79.4V20.7982ZM80.9928 11.3803H79.4099V17.3753H80.9928V11.3803ZM75.1857 15.1C74.7801 15.8815 73.4347 16.9301 72.6037 17.3852L71.7826 16.297C72.485 15.8914 73.0192 15.4165 73.4743 14.8922C74.0481 14.0909 74.2954 13.2006 74.2954 12.2904V11.3803C74.8395 11.3803 75.3737 11.3803 75.9079 11.3803V12.2904C75.9079 12.7455 75.8584 13.3193 75.7496 13.7644L78.6878 16.1486L77.7381 17.3456L75.1857 15.1ZM75.0176 17.7413V22.0545C77.006 22.0545 79.0043 22.0545 80.9928 22.0545V17.7413C78.9944 17.7413 77.006 17.7413 75.0176 17.7413ZM67.598 12.8049H64.9567C64.3334 12.8049 63.7102 12.6664 63.1661 12.3696L63.7596 11.2814C64.1356 11.4891 64.5313 11.5683 64.9567 11.5683H67.598V12.8049ZM69.6854 20.7982H66.8857V18.9878H69.6854V20.7982ZM65.293 17.7413V22.0545C67.2815 22.0545 69.2798 22.0545 71.2682 22.0545V17.7413C69.2798 17.7413 67.2815 17.7413 65.293 17.7413ZM67.8157 14.2492L66.4208 14.7933C66.6087 14.8724 66.6978 15.0604 66.7077 15.1692C66.7275 15.7925 66.2031 16.2277 65.5107 16.2277C64.8182 16.2277 64.3532 15.8518 64.3532 15.2681C64.3829 14.2393 65.5502 14.1107 66.124 14.1107H68.429V15.0802H69.6854V17.3753H71.2682V11.3803H69.6854V13.9524H68.8148V12.9829H62.6517C62.6517 13.3984 62.6517 13.6952 62.6517 14.1107H63.3343C63.0177 14.358 62.7902 14.8032 62.7902 15.4066C62.7902 16.7224 64.0267 17.3753 65.5107 17.3753C66.9946 17.3753 68.2015 16.7026 68.2015 15.4066C68.2015 15.0802 68.063 14.447 67.8157 14.2492ZM48.0797 17.3753C49.7911 17.3753 51.1662 18.4635 51.1662 19.799C51.1662 21.1345 49.7812 22.2227 48.0797 22.2227C46.3682 22.2227 44.9932 21.1345 44.9932 19.799C44.9932 18.4635 46.3781 17.3753 48.0797 17.3753ZM51.0277 11.3803H49.4449V17.3753H51.0277V15.0802H52.2247V13.8337H51.0277V11.3803ZM48.0797 18.5723C47.3278 18.5723 46.7145 19.1263 46.7145 19.8089C46.7145 20.4915 47.3278 21.0455 48.0797 21.0455C48.8315 21.0455 49.4449 20.4915 49.4449 19.8089C49.4449 19.1263 48.8414 18.5723 48.0797 18.5723ZM47.5949 15.1692C48.1786 14.3085 48.5051 13.438 48.5051 12.3894V11.6672H44.8151C44.3897 11.6672 43.994 11.5881 43.6181 11.3803L43.0245 12.4685C43.5686 12.7752 44.2017 12.9038 44.8151 12.9038H46.853C46.6947 14.7142 45.2108 15.7925 43.0146 16.7323L43.6478 17.8205C45.2207 17.2467 46.7343 16.4256 47.5949 15.1692ZM115.142 12.3597C114.43 12.3597 113.856 12.9434 113.856 13.6556C113.856 14.3679 114.43 14.9516 115.142 14.9516C115.855 14.9516 116.428 14.3679 116.428 13.6556C116.438 12.9335 115.855 12.3597 115.142 12.3597Z" fill="black"/>
<path fill-rule="evenodd" clip-rule="evenodd" d="M32.9739 25H33.4982V26.1475H34.4479V25H34.9722V27.7402H34.4479V26.4641H33.4982V27.7402H32.9739V25ZM35.4372 25H37.0398V25.3165H35.9615V26.1574H36.9903V26.474H35.9615V27.4138H37.0794V27.7402H35.4372V25ZM38.0389 25H38.5732L39.5229 27.7402H38.9689L38.7314 26.9587H37.8015L37.5542 27.7402H37.0892L38.0389 25ZM37.8906 26.6718H38.6424L38.2764 25.455H38.2665L37.8906 26.6718ZM39.7009 25H40.2252V27.4138H41.2541V27.7402H39.7108V25H39.7009ZM41.7883 25.3165V27.7402H42.3126V25.3165H42.9754V25H41.1354V25.3165H41.7883ZM43.1436 25H43.6679V26.1475H44.6176V25H45.1419V27.7402H44.6176V26.4641H43.6679V27.7402H43.1436V25ZM46.8929 25H47.4172V27.7402H46.8929V25ZM47.8921 25H48.456L49.5145 27.0378H49.5244V25H49.9498V27.7402H49.4354L48.3274 25.6034H48.3175V27.7402H47.8921V25ZM51.8789 25.455C51.8591 25.4451 51.8195 25.4253 51.77 25.4056C51.7206 25.3858 51.6612 25.366 51.592 25.3462C51.5227 25.3264 51.4535 25.3066 51.3644 25.2967C51.2853 25.2868 51.2062 25.2769 51.127 25.2769C51.0182 25.2769 50.9292 25.3066 50.8599 25.3561C50.7907 25.4056 50.761 25.4748 50.761 25.5638C50.761 25.6529 50.7907 25.732 50.8599 25.8013C50.9292 25.8705 51.0083 25.9299 51.1072 25.9892C51.2062 26.0486 51.315 26.1079 51.4337 26.1673C51.5524 26.2266 51.6513 26.2959 51.7601 26.3651C51.8591 26.4443 51.9382 26.5333 52.0075 26.6322C52.0767 26.7312 52.1064 26.8499 52.1064 26.9983C52.1064 27.1467 52.0767 27.2753 52.0273 27.3742C51.9778 27.4731 51.8986 27.5622 51.8096 27.6314C51.7206 27.7007 51.6118 27.7402 51.4832 27.7699C51.3545 27.7996 51.216 27.8095 51.0776 27.8095C50.9984 27.8095 50.9193 27.7996 50.8401 27.7897C50.761 27.7798 50.6917 27.7699 50.6225 27.7501C50.5532 27.7402 50.4939 27.7204 50.4444 27.7106C50.395 27.7007 50.3554 27.6908 50.3356 27.6809V27.1961C50.3851 27.2258 50.4444 27.2654 50.5137 27.2951C50.573 27.3346 50.6423 27.3643 50.7115 27.394C50.7808 27.4237 50.8599 27.4435 50.9292 27.4632C51.0083 27.483 51.0874 27.4929 51.1567 27.4929C51.1963 27.4929 51.2457 27.483 51.2952 27.4731C51.3447 27.4632 51.3941 27.4435 51.4337 27.4237C51.4733 27.394 51.5128 27.3643 51.5425 27.3247C51.5722 27.2852 51.5821 27.2258 51.5821 27.1665C51.5821 27.0675 51.5524 26.9785 51.4832 26.8994C51.4238 26.8301 51.3348 26.7609 51.2457 26.7015C51.1468 26.6421 51.0479 26.5828 50.9292 26.5234C50.8203 26.4641 50.7115 26.3948 50.6126 26.3256C50.5137 26.2464 50.4345 26.1673 50.3752 26.0684C50.3158 25.9694 50.2762 25.8507 50.2762 25.7023C50.2762 25.4847 50.3554 25.3066 50.5137 25.178C50.6719 25.0494 50.8995 24.9901 51.1963 24.9901C51.2655 24.9901 51.3348 24.9901 51.4139 25C51.4832 25.0098 51.5524 25.0098 51.6118 25.0197C51.6711 25.0296 51.7305 25.0395 51.77 25.0395C51.8195 25.0494 51.8492 25.0494 51.8789 25.0593V25.455ZM54.3125 26.8103C54.3125 26.929 54.3026 27.0477 54.2828 27.1665C54.263 27.2852 54.2234 27.3841 54.1542 27.483C54.0849 27.5721 53.986 27.6512 53.8475 27.7007C53.709 27.7501 53.5408 27.7798 53.3133 27.7798C53.0957 27.7798 52.9176 27.7501 52.789 27.7007C52.6604 27.6413 52.5615 27.5721 52.4922 27.483C52.423 27.394 52.3834 27.2852 52.3636 27.1665C52.3438 27.0477 52.3339 26.929 52.3339 26.8103V25H52.8582V26.8103C52.8582 26.9191 52.8681 27.0181 52.878 27.1071C52.8879 27.1961 52.9077 27.2654 52.9473 27.3346C52.977 27.394 53.0264 27.4435 53.0858 27.483C53.1451 27.5127 53.2243 27.5325 53.3232 27.5325C53.432 27.5325 53.5112 27.5127 53.5804 27.483C53.6398 27.4533 53.6892 27.4039 53.7189 27.3346C53.7486 27.2753 53.7783 27.1961 53.7882 27.1071C53.798 27.0181 53.8079 26.9191 53.8079 26.8103V25H54.3323V26.8103H54.3125ZM54.7477 25H55.371C55.5194 25 55.6678 25.0098 55.8063 25.0197C55.9448 25.0395 56.0635 25.0692 56.1723 25.1187C56.2811 25.1681 56.3603 25.2374 56.4295 25.3363C56.4889 25.4352 56.5284 25.5539 56.5284 25.7122C56.5284 25.821 56.5087 25.9101 56.4691 25.9793C56.4295 26.0585 56.3899 26.1178 56.3306 26.1673C56.2712 26.2168 56.2119 26.2563 56.1426 26.286C56.0734 26.3157 56.014 26.3355 55.9547 26.3553V26.3651C56.0536 26.3849 56.1327 26.4146 56.202 26.4542C56.2613 26.4938 56.3108 26.5432 56.3504 26.6026C56.3899 26.6619 56.4097 26.7213 56.4295 26.7905C56.4493 26.8598 56.4691 26.9389 56.479 27.0181L56.6373 27.7501H56.1129L56.014 27.2357C55.9942 27.1071 55.9646 27.0082 55.9349 26.9191C55.9052 26.8301 55.8755 26.7609 55.8359 26.7114C55.7964 26.6619 55.7469 26.6224 55.6777 26.5927C55.6183 26.5729 55.5293 26.5531 55.4303 26.5531H55.2721V27.7501H54.7477V25ZM55.2721 26.2563H55.371C55.46 26.2563 55.5491 26.2464 55.6282 26.2365C55.7073 26.2266 55.7667 26.197 55.8261 26.1574C55.8854 26.1178 55.925 26.0684 55.9547 26.009C55.9843 25.9497 56.0041 25.8606 56.0041 25.7617C56.0041 25.6529 55.9843 25.5638 55.9547 25.5045C55.9151 25.4451 55.8755 25.3957 55.8162 25.366C55.7568 25.3363 55.6876 25.3165 55.6084 25.3066C55.5293 25.2967 55.4501 25.2967 55.371 25.2967H55.2721V26.2563ZM57.5672 25L56.6175 27.7402H57.0824L57.3298 26.9587H58.2597L58.4971 27.7402H59.0511L58.1014 25H57.5672ZM57.4188 26.6718L57.7947 25.455H57.8046L58.1706 26.6718H57.4188ZM59.2291 25H59.793L60.8516 27.0378H60.8614V25H61.2868V27.7402H60.7724L59.6644 25.6034H59.6545V27.7402H59.2291V25ZM63.6215 27.6116C63.5325 27.6413 63.4237 27.6809 63.2951 27.7204C63.1665 27.76 63.0181 27.7798 62.8499 27.7798C62.6322 27.7798 62.4443 27.7402 62.2959 27.6611C62.1475 27.5819 62.0189 27.4731 61.9299 27.3346C61.8309 27.1961 61.7617 27.0477 61.7221 26.8697C61.6825 26.6916 61.6529 26.5036 61.6529 26.3157C61.6529 26.1376 61.6727 25.9595 61.7122 25.7914C61.7518 25.6232 61.8111 25.4847 61.9002 25.3561C61.9892 25.2275 62.1079 25.1286 62.2464 25.0593C62.3849 24.9802 62.563 24.9505 62.7707 24.9505C63.0972 24.9505 63.3346 25.0197 63.4929 25.1681C63.6512 25.3066 63.7303 25.5045 63.7303 25.7419H63.1368C63.1368 25.6924 63.1269 25.6331 63.117 25.5737C63.1071 25.5144 63.0873 25.455 63.0576 25.4056C63.028 25.3561 62.9884 25.3066 62.9389 25.2769C62.8895 25.2473 62.8202 25.2275 62.7312 25.2275C62.6125 25.2275 62.5234 25.2671 62.4542 25.3363C62.3849 25.4056 62.3256 25.4946 62.2959 25.5935C62.2563 25.6924 62.2266 25.8112 62.2168 25.9299C62.2069 26.0486 62.197 26.1475 62.197 26.2464C62.197 26.2959 62.197 26.3651 62.197 26.4443C62.197 26.5234 62.2069 26.6125 62.2266 26.7015C62.2365 26.7905 62.2662 26.8796 62.2959 26.9785C62.3256 27.0675 62.3651 27.1467 62.4245 27.2258C62.4839 27.2951 62.5531 27.3544 62.6322 27.4039C62.7114 27.4533 62.8202 27.4731 62.9389 27.4731C63.028 27.4731 63.1071 27.4632 63.1763 27.4434C63.2456 27.4237 63.3148 27.394 63.3742 27.3643C63.4336 27.3346 63.483 27.305 63.5226 27.2753C63.5622 27.2456 63.6017 27.2159 63.6215 27.206V27.6116ZM63.9282 25H65.5308V25.3165H64.4525V26.1574H65.4813V26.474H64.4525V27.4138H65.5704V27.7402H63.9381V25H63.9282ZM67.173 25H67.7962C67.9446 25 68.093 25.0098 68.2315 25.0197C68.37 25.0395 68.4887 25.0692 68.5976 25.1187C68.7064 25.1681 68.7855 25.2374 68.8548 25.3363C68.9141 25.4352 68.9537 25.5539 68.9537 25.7122C68.9537 25.821 68.9339 25.9101 68.8943 25.9793C68.8548 26.0585 68.8152 26.1178 68.7558 26.1673C68.6965 26.2168 68.6371 26.2563 68.5679 26.286C68.4986 26.3157 68.4393 26.3355 68.3799 26.3553V26.3651C68.4788 26.3849 68.558 26.4146 68.6272 26.4542C68.6866 26.4938 68.736 26.5432 68.7756 26.6026C68.8152 26.6619 68.835 26.7213 68.8548 26.7905C68.8746 26.8598 68.8943 26.9389 68.9042 27.0181L69.0625 27.7501H68.5382L68.4393 27.2357C68.4195 27.1071 68.3898 27.0082 68.3601 26.9191C68.3305 26.8301 68.3008 26.7609 68.2612 26.7114C68.2216 26.6619 68.1722 26.6224 68.1029 26.5927C68.0436 26.5729 67.9545 26.5531 67.8556 26.5531H67.6973V27.7501H67.173V25ZM67.6973 26.2563H67.7962C67.8853 26.2563 67.9743 26.2464 68.0535 26.2365C68.1326 26.2266 68.192 26.197 68.2513 26.1574C68.3107 26.1178 68.3502 26.0684 68.3799 26.009C68.4096 25.9497 68.4294 25.8606 68.4294 25.7617C68.4294 25.6529 68.4096 25.5638 68.3799 25.5045C68.3403 25.4451 68.3008 25.3957 68.2414 25.366C68.1821 25.3363 68.1128 25.3165 68.0436 25.3066C67.9644 25.2967 67.8853 25.2967 67.8061 25.2967H67.7072V26.2563H67.6973ZM69.3395 25H70.9421V25.3165H69.8638V26.1574H70.8927V26.474H69.8638V27.4138H70.9817V27.7402H69.3494V25H69.3395ZM70.9223 25L71.8523 27.7402H72.3865L73.3362 25H72.8712L72.1589 27.117H72.149L71.4467 25H70.9223ZM73.445 25H73.9693V27.7402H73.445V25ZM74.4343 25H76.0369V25.3165H74.9586V26.1574H75.9874V26.474H74.9586V27.4138H76.0765V27.7402H74.4442V25H74.4343ZM76.1754 25H76.6601L77.0558 27.0873H77.0657L77.7879 25H78.0649L78.7871 27.0873H78.797L79.2025 25H79.6081L79.064 27.7402H78.609L77.8868 25.7716H77.8769L77.1844 27.7402H76.7294L76.1754 25ZM81.5174 26.6619C81.4284 26.84 81.4383 27.0181 81.5471 27.1961C81.6559 27.3643 81.7845 27.4435 81.9329 27.4237C82.0912 27.4138 82.2495 27.3346 82.4078 27.206L81.8043 26.3454C81.6559 26.4542 81.5669 26.563 81.5174 26.6619ZM81.8439 25.0494C81.745 25.0989 81.7054 25.1978 81.7252 25.3363C81.7351 25.4451 81.7747 25.5539 81.8439 25.6727L81.9428 25.8408C82.0418 25.7518 82.1011 25.643 82.1407 25.5144C82.1902 25.366 82.1803 25.2275 82.111 25.1088C82.0418 25.0098 81.9527 24.9901 81.8439 25.0494ZM82.8134 27.1071L83.1992 27.6314H82.6947L82.5166 27.3841C82.2792 27.5721 82.0121 27.671 81.6955 27.671C81.4185 27.671 81.2108 27.5721 81.0723 27.3841C80.9536 27.2258 80.914 27.0576 80.9536 26.8598C80.9832 26.6817 81.0822 26.5135 81.2404 26.3553C81.3196 26.2761 81.4383 26.1871 81.5966 26.0783C81.4185 25.7518 81.3295 25.5836 81.3295 25.5836C81.2701 25.4056 81.2998 25.2374 81.4284 25.0692C81.5471 24.9109 81.7549 24.8417 82.0517 24.8615C82.1506 24.8713 82.2396 24.901 82.3188 24.9604C82.3979 25.0197 82.4474 25.089 82.477 25.178C82.5463 25.3759 82.5067 25.5836 82.3682 25.8013C82.2891 25.92 82.2 26.0189 82.1011 26.0881L82.6848 26.929C82.7639 26.8499 82.8134 26.7411 82.8233 26.6125C82.8233 26.5927 82.8233 26.474 82.8233 26.2464H83.0508L83.0607 26.4938C83.0805 26.7411 82.9915 26.9389 82.8134 27.1071ZM85.3855 25H85.9197L86.8694 27.7402H86.3253L86.0879 26.9587H85.158L84.9106 27.7402H84.4457L85.3855 25ZM85.2371 26.6718H85.989L85.6229 25.455H85.613L85.2371 26.6718ZM88.5017 25.455C88.4819 25.4451 88.4424 25.4253 88.3929 25.4056C88.3434 25.3858 88.2841 25.366 88.2148 25.3462C88.1456 25.3264 88.0763 25.3066 87.9972 25.2967C87.918 25.2868 87.8389 25.2769 87.7598 25.2769C87.6509 25.2769 87.5619 25.3066 87.4926 25.3561C87.4234 25.4056 87.3937 25.4748 87.3937 25.5638C87.3937 25.6529 87.4234 25.732 87.4926 25.8013C87.5619 25.8705 87.641 25.9299 87.74 25.9892C87.8389 26.0486 87.9477 26.1079 88.0664 26.1673C88.1851 26.2266 88.294 26.2959 88.3929 26.3651C88.4918 26.4443 88.571 26.5333 88.6402 26.6322C88.7095 26.7312 88.7391 26.8499 88.7391 26.9983C88.7391 27.1467 88.7094 27.2753 88.66 27.3742C88.6105 27.4731 88.5314 27.5622 88.4424 27.6314C88.3533 27.7007 88.2445 27.7402 88.1159 27.7699C87.9873 27.7996 87.8488 27.8095 87.7103 27.8095C87.6311 27.8095 87.552 27.7996 87.4729 27.7897C87.3937 27.7798 87.3245 27.7699 87.2552 27.7501C87.186 27.7402 87.1266 27.7204 87.0772 27.7106C87.0277 27.7007 86.9881 27.6908 86.9683 27.6809V27.1961C87.0178 27.2258 87.0772 27.2654 87.1464 27.2951C87.2058 27.3346 87.275 27.3643 87.3443 27.394C87.4135 27.4237 87.4926 27.4435 87.5619 27.4632C87.641 27.483 87.7202 27.4929 87.7894 27.4929C87.829 27.4929 87.8785 27.483 87.9279 27.4731C87.9774 27.4632 88.0269 27.4435 88.0664 27.4237C88.106 27.394 88.1456 27.3643 88.1752 27.3247C88.2049 27.2852 88.2148 27.2258 88.2148 27.1665C88.2148 27.0675 88.1851 26.9785 88.1159 26.8994C88.0565 26.8301 87.9675 26.7609 87.8785 26.7015C87.7795 26.6421 87.6806 26.5828 87.5619 26.5234C87.4531 26.4641 87.3443 26.3948 87.2453 26.3256C87.1464 26.2464 87.0673 26.1673 87.0079 26.0684C86.9486 25.9694 86.909 25.8507 86.909 25.7023C86.909 25.4847 86.9881 25.3066 87.1464 25.178C87.3047 25.0494 87.5322 24.9901 87.829 24.9901C87.8983 24.9901 87.9675 24.9901 88.0466 25C88.1159 25.0098 88.1851 25.0098 88.2445 25.0197C88.3039 25.0296 88.3632 25.0395 88.4028 25.0395C88.4522 25.0494 88.4819 25.0494 88.5116 25.0593V25.455H88.5017ZM90.4506 25.455C90.4308 25.4451 90.3912 25.4253 90.3417 25.4056C90.2923 25.3858 90.2329 25.366 90.1637 25.3462C90.0944 25.3264 90.0252 25.3066 89.946 25.2967C89.8669 25.2868 89.7878 25.2769 89.7086 25.2769C89.5998 25.2769 89.5108 25.3066 89.4415 25.3561C89.3723 25.4056 89.3426 25.4748 89.3426 25.5638C89.3426 25.6529 89.3723 25.732 89.4415 25.8013C89.5108 25.8705 89.5899 25.9299 89.6888 25.9892C89.7878 26.0486 89.8966 26.1079 90.0153 26.1673C90.134 26.2266 90.2329 26.2959 90.3417 26.3651C90.4407 26.4443 90.5198 26.5333 90.5891 26.6322C90.6583 26.7312 90.688 26.8499 90.688 26.9983C90.688 27.1467 90.6583 27.2753 90.6089 27.3742C90.5594 27.4731 90.4802 27.5622 90.3912 27.6314C90.3022 27.7007 90.1934 27.7402 90.0648 27.7699C89.9361 27.7996 89.7977 27.8095 89.6592 27.8095C89.58 27.8095 89.5009 27.7996 89.4217 27.7897C89.3426 27.7798 89.2733 27.7699 89.2041 27.7501C89.1348 27.7402 89.0755 27.7204 89.026 27.7106C88.9766 27.7007 88.937 27.6908 88.9172 27.6809V27.1961C88.9667 27.2258 89.026 27.2654 89.0953 27.2951C89.1546 27.3346 89.2239 27.3643 89.2931 27.394C89.3624 27.4237 89.4415 27.4435 89.5108 27.4632C89.5899 27.483 89.669 27.4929 89.7383 27.4929C89.7779 27.4929 89.8273 27.483 89.8768 27.4731C89.9263 27.4632 89.9757 27.4435 90.0153 27.4237C90.0549 27.394 90.0944 27.3643 90.1241 27.3247C90.1538 27.2852 90.1637 27.2258 90.1637 27.1665C90.1637 27.0675 90.134 26.9785 90.0648 26.8994C90.0054 26.8301 89.9164 26.7609 89.8273 26.7015C89.7284 26.6421 89.6295 26.5828 89.5108 26.5234C89.4019 26.4641 89.2931 26.3948 89.1942 26.3256C89.0953 26.2464 89.0161 26.1673 88.9568 26.0684C88.8974 25.9694 88.8578 25.8507 88.8578 25.7023C88.8578 25.4847 88.937 25.3066 89.0953 25.178C89.2536 25.0494 89.4811 24.9901 89.7779 24.9901C89.8471 24.9901 89.9164 24.9901 89.9955 25C90.0648 25.0098 90.134 25.0098 90.1934 25.0197C90.2527 25.0296 90.3121 25.0395 90.3516 25.0395C90.4011 25.0494 90.4308 25.0494 90.4605 25.0593V25.455H90.4506ZM90.9353 25H92.5379V25.3165H91.4596V26.1574H92.4885V26.474H91.4596V27.4138H92.5775V27.7402H90.9452V25H90.9353ZM94.3384 25.455C94.3186 25.4451 94.2791 25.4253 94.2296 25.4056C94.1801 25.3858 94.1208 25.366 94.0515 25.3462C93.9823 25.3264 93.913 25.3066 93.824 25.2967C93.7448 25.2868 93.6657 25.2769 93.5866 25.2769C93.4777 25.2769 93.3887 25.3066 93.3195 25.3561C93.2502 25.4056 93.2205 25.4748 93.2205 25.5638C93.2205 25.6529 93.2502 25.732 93.3195 25.8013C93.3887 25.8705 93.4678 25.9299 93.5668 25.9892C93.6657 26.0486 93.7745 26.1079 93.8932 26.1673C94.0119 26.2266 94.1109 26.2959 94.2197 26.3651C94.3186 26.4443 94.3978 26.5333 94.467 26.6322C94.5363 26.7312 94.5659 26.8499 94.5659 26.9983C94.5659 27.1467 94.5363 27.2753 94.4868 27.3742C94.4373 27.4731 94.3582 27.5622 94.2692 27.6314C94.1801 27.7007 94.0713 27.7402 93.9427 27.7699C93.8141 27.7996 93.6756 27.8095 93.5371 27.8095C93.458 27.8095 93.3788 27.7996 93.2997 27.7897C93.2205 27.7798 93.1513 27.7699 93.082 27.7501C93.0128 27.7402 92.9534 27.7204 92.904 27.7106C92.8545 27.7007 92.8149 27.6908 92.7951 27.6809V27.1961C92.8446 27.2258 92.904 27.2654 92.9732 27.2951C93.0326 27.3346 93.1018 27.3643 93.1711 27.394C93.2403 27.4237 93.3195 27.4435 93.3887 27.4632C93.4679 27.483 93.547 27.4929 93.6162 27.4929C93.6558 27.4929 93.7053 27.483 93.7547 27.4731C93.8042 27.4632 93.8537 27.4435 93.8932 27.4237C93.9328 27.394 93.9724 27.3643 94.0021 27.3247C94.0317 27.2852 94.0416 27.2258 94.0416 27.1665C94.0416 27.0675 94.0119 26.9785 93.9427 26.8994C93.8833 26.8301 93.7943 26.7609 93.7053 26.7015C93.6063 26.6421 93.5074 26.5828 93.3887 26.5234C93.2799 26.4641 93.1711 26.3948 93.0721 26.3256C92.9732 26.2464 92.8941 26.1673 92.8347 26.0684C92.7754 25.9694 92.7358 25.8507 92.7358 25.7023C92.7358 25.4847 92.8149 25.3066 92.9732 25.178C93.1315 25.0494 93.359 24.9901 93.6558 24.9901C93.7251 24.9901 93.7943 24.9901 93.8735 25C93.9427 25.0098 94.0119 25.0098 94.0713 25.0197C94.1307 25.0296 94.19 25.0395 94.2296 25.0395C94.2791 25.0494 94.3087 25.0494 94.3384 25.0593V25.455ZM96.2873 25.455C96.2675 25.4451 96.2279 25.4253 96.1785 25.4056C96.129 25.3858 96.0696 25.366 96.0004 25.3462C95.9311 25.3264 95.8619 25.3066 95.7729 25.2967C95.6937 25.2868 95.6146 25.2769 95.5354 25.2769C95.4266 25.2769 95.3376 25.3066 95.2683 25.3561C95.1991 25.4056 95.1694 25.4748 95.1694 25.5638C95.1694 25.6529 95.1991 25.732 95.2683 25.8013C95.3376 25.8705 95.4167 25.9299 95.5156 25.9892C95.6146 26.0486 95.7234 26.1079 95.8421 26.1673C95.9608 26.2266 96.0597 26.2959 96.1686 26.3651C96.2675 26.4443 96.3466 26.5333 96.4159 26.6322C96.4851 26.7312 96.5148 26.8499 96.5148 26.9983C96.5148 27.1467 96.4851 27.2753 96.4357 27.3742C96.3862 27.4731 96.3071 27.5622 96.218 27.6314C96.129 27.7007 96.0202 27.7402 95.8916 27.7699C95.763 27.7996 95.6245 27.8095 95.486 27.8095C95.4068 27.8095 95.3277 27.7996 95.2485 27.7897C95.1694 27.7798 95.1001 27.7699 95.0309 27.7501C94.9617 27.7402 94.9023 27.7204 94.8528 27.7106C94.8034 27.7007 94.7638 27.6908 94.744 27.6809V27.1961C94.7935 27.2258 94.8528 27.2654 94.9221 27.2951C94.9814 27.3346 95.0507 27.3643 95.1199 27.394C95.1892 27.4237 95.2683 27.4435 95.3376 27.4632C95.4167 27.483 95.4959 27.4929 95.5651 27.4929C95.6047 27.4929 95.6541 27.483 95.7036 27.4731C95.7531 27.4632 95.8025 27.4435 95.8421 27.4237C95.8817 27.394 95.9212 27.3643 95.9509 27.3247C95.9806 27.2852 95.9905 27.2258 95.9905 27.1665C95.9905 27.0675 95.9608 26.9785 95.8916 26.8994C95.8322 26.8301 95.7432 26.7609 95.6541 26.7015C95.5552 26.6421 95.4563 26.5828 95.3376 26.5234C95.2288 26.4641 95.1199 26.3948 95.021 26.3256C94.9221 26.2464 94.8429 26.1673 94.7836 26.0684C94.7242 25.9694 94.6847 25.8507 94.6847 25.7023C94.6847 25.4847 94.7638 25.3066 94.9221 25.178C95.0804 25.0494 95.3079 24.9901 95.6047 24.9901C95.6739 24.9901 95.7432 24.9901 95.8223 25C95.8916 25.0098 95.9608 25.0098 96.0202 25.0197C96.0795 25.0296 96.1389 25.0395 96.1785 25.0395C96.2279 25.0494 96.2576 25.0494 96.2873 25.0593V25.455ZM96.772 25H97.415L98.2065 27.2357H98.2164L98.988 25H99.6508V27.7402H99.1858V25.3957H99.1759L98.3647 27.7402H97.969L97.1578 25.4451H97.1479V27.7402H96.7621V25H96.772ZM100.116 25H101.718V25.3165H100.64V26.1574H101.659V26.474H100.63V27.4138H101.748V27.7402H100.116V25ZM102.065 25H102.629L103.687 27.0378H103.697V25H104.122V27.7402H103.608L102.5 25.6034H102.49V27.7402H102.065V25ZM104.963 25.3165H104.3V25H106.14V25.3165H105.478V27.7402H104.953V25.3165H104.963ZM109.069 25.455C109.049 25.4451 109.009 25.4253 108.96 25.4056C108.91 25.3858 108.851 25.366 108.782 25.3462C108.713 25.3264 108.643 25.3066 108.554 25.2967C108.475 25.2868 108.396 25.2769 108.317 25.2769C108.208 25.2769 108.119 25.3066 108.05 25.3561C107.98 25.4056 107.951 25.4748 107.951 25.5638C107.951 25.6529 107.98 25.732 108.05 25.8013C108.119 25.8705 108.198 25.9299 108.297 25.9892C108.396 26.0486 108.505 26.1079 108.623 26.1673C108.742 26.2266 108.841 26.2959 108.95 26.3651C109.049 26.4443 109.128 26.5333 109.197 26.6322C109.267 26.7312 109.296 26.8499 109.296 26.9983C109.296 27.1467 109.267 27.2753 109.217 27.3742C109.168 27.4731 109.088 27.5622 108.999 27.6314C108.91 27.7007 108.802 27.7402 108.673 27.7699C108.544 27.7996 108.406 27.8095 108.267 27.8095C108.188 27.8095 108.109 27.7996 108.03 27.7897C107.951 27.7798 107.882 27.7699 107.812 27.7501C107.743 27.7402 107.684 27.7204 107.634 27.7106C107.585 27.7007 107.545 27.6908 107.525 27.6809V27.1961C107.575 27.2258 107.634 27.2654 107.703 27.2951C107.763 27.3346 107.832 27.3643 107.901 27.394C107.971 27.4237 108.05 27.4435 108.119 27.4632C108.198 27.483 108.277 27.4929 108.346 27.4929C108.386 27.4929 108.436 27.483 108.485 27.4731C108.534 27.4632 108.584 27.4435 108.623 27.4237C108.663 27.394 108.703 27.3643 108.732 27.3247C108.762 27.2852 108.772 27.2258 108.772 27.1665C108.772 27.0675 108.742 26.9785 108.673 26.8994C108.614 26.8301 108.525 26.7609 108.436 26.7015C108.337 26.6421 108.238 26.5828 108.119 26.5234C108.01 26.4641 107.901 26.3948 107.802 26.3256C107.703 26.2464 107.624 26.1673 107.565 26.0684C107.506 25.9694 107.466 25.8507 107.466 25.7023C107.466 25.4847 107.545 25.3066 107.703 25.178C107.862 25.0494 108.089 24.9901 108.386 24.9901C108.455 24.9901 108.525 24.9901 108.604 25C108.673 25.0098 108.742 25.0098 108.802 25.0197C108.861 25.0296 108.92 25.0395 108.96 25.0395C109.009 25.0494 109.039 25.0494 109.069 25.0593V25.455ZM109.553 25H111.156V25.3165H110.078V26.1574H111.107V26.474H110.078V27.4138H111.196V27.7402H109.563V25H109.553ZM111.502 25H112.126C112.274 25 112.422 25.0098 112.561 25.0197C112.699 25.0395 112.818 25.0692 112.927 25.1187C113.036 25.1681 113.115 25.2374 113.184 25.3363C113.243 25.4352 113.283 25.5539 113.283 25.7122C113.283 25.821 113.263 25.9101 113.224 25.9793C113.184 26.0585 113.144 26.1178 113.085 26.1673C113.026 26.2168 112.966 26.2563 112.897 26.286C112.828 26.3157 112.769 26.3355 112.709 26.3553V26.3651C112.808 26.3849 112.887 26.4146 112.956 26.4542C113.016 26.4938 113.065 26.5432 113.105 26.6026C113.144 26.6619 113.164 26.7213 113.184 26.7905C113.204 26.8598 113.224 26.9389 113.233 27.0181L113.392 27.7501H112.867L112.769 27.2357C112.749 27.1071 112.719 27.0082 112.689 26.9191C112.66 26.8301 112.63 26.7609 112.59 26.7114C112.551 26.6619 112.501 26.6224 112.432 26.5927C112.373 26.5729 112.284 26.5531 112.185 26.5531H112.027V27.7501H111.502V25ZM112.027 26.2563H112.126C112.215 26.2563 112.304 26.2464 112.383 26.2365C112.462 26.2266 112.521 26.197 112.581 26.1574C112.64 26.1178 112.68 26.0684 112.709 26.009C112.739 25.9497 112.759 25.8606 112.759 25.7617C112.759 25.6529 112.739 25.5638 112.709 25.5045C112.67 25.4451 112.63 25.3957 112.571 25.366C112.511 25.3363 112.442 25.3165 112.363 25.3066C112.284 25.2967 112.205 25.2967 112.126 25.2967H112.027V26.2563ZM113.303 25L114.233 27.7402H114.767L115.717 25H115.252L114.539 27.117H114.529L113.827 25H113.303ZM115.835 25H116.36V27.7402H115.835V25ZM118.674 27.6116C118.585 27.6413 118.477 27.6809 118.348 27.7204C118.219 27.76 118.071 27.7798 117.903 27.7798C117.685 27.7798 117.497 27.7402 117.349 27.6611C117.2 27.5819 117.072 27.4731 116.983 27.3346C116.884 27.1961 116.815 27.0477 116.775 26.8697C116.736 26.6916 116.706 26.5036 116.706 26.3157C116.706 26.1376 116.726 25.9595 116.765 25.7914C116.805 25.6232 116.864 25.4847 116.953 25.3561C117.042 25.2275 117.161 25.1286 117.299 25.0593C117.438 24.9802 117.616 24.9505 117.824 24.9505C118.15 24.9505 118.388 25.0197 118.546 25.1681C118.704 25.3066 118.783 25.5045 118.783 25.7419H118.19C118.19 25.6924 118.18 25.6331 118.17 25.5737C118.16 25.5144 118.14 25.455 118.111 25.4056C118.081 25.3561 118.041 25.3066 117.992 25.2769C117.942 25.2473 117.873 25.2275 117.794 25.2275C117.675 25.2275 117.586 25.2671 117.517 25.3363C117.448 25.4056 117.388 25.4946 117.359 25.5935C117.319 25.6924 117.299 25.8112 117.28 25.9299C117.27 26.0486 117.26 26.1475 117.26 26.2464C117.26 26.2959 117.26 26.3651 117.26 26.4443C117.26 26.5234 117.27 26.6125 117.29 26.7015C117.299 26.7905 117.329 26.8796 117.359 26.9785C117.388 27.0675 117.428 27.1467 117.487 27.2258C117.547 27.2951 117.616 27.3544 117.695 27.4039C117.774 27.4533 117.883 27.4731 118.002 27.4731C118.091 27.4731 118.17 27.4632 118.239 27.4434C118.308 27.4237 118.378 27.394 118.427 27.3643C118.487 27.3346 118.536 27.305 118.576 27.2753C118.615 27.2456 118.655 27.2159 118.674 27.206V27.6116ZM118.981 25H120.584V25.3165H119.505V26.1574H120.534V26.474H119.505V27.4138H120.623V27.7402H118.991V25H118.981Z" fill="#808080"/>
<path fill-rule="evenodd" clip-rule="evenodd" d="M23.3581 16.4336C22.3788 17.2745 21.0828 17.7394 20.3409 18.3033C19.8759 18.6594 19.5395 18.976 19.5395 19.53C19.5395 19.1046 19.777 18.8177 20.1133 18.5902C20.8553 18.0857 22.4183 18.1054 23.1603 16.8689C23.2295 16.7304 23.2988 16.5919 23.3581 16.4336ZM23.3581 16.4336C23.467 16.1566 23.5362 15.8499 23.5857 15.5235C23.9616 15.1772 24.3177 14.8112 24.6244 14.4155C24.4068 15.2366 24.0209 15.8697 23.3581 16.4336ZM24.6244 14.4254C25.2377 13.6142 25.5741 12.7535 25.6829 11.7543C25.4356 12.249 25.119 12.7139 24.7827 13.1591C24.7728 13.6043 24.7233 14.0296 24.6244 14.4254ZM25.673 11.7543C25.7225 11.2201 25.7027 10.676 25.6038 10.1418C25.9006 9.59771 26.1677 9.05361 26.3853 8.47983C26.4743 9.52846 26.227 10.6661 25.673 11.7543ZM26.3853 8.47983C27.0877 6.60022 27.0184 4.95803 25.9105 3.79069C24.8519 2.6827 22.8635 1.99021 21.2312 2.0001C20.6871 2.0001 20.1826 2.07925 19.7671 2.24742C18.4118 2.79152 18.0062 4.27543 17.8974 6.43204C18.1447 5.41309 18.5997 4.67114 19.4109 4.29522C20.9542 3.59283 23.7934 4.27543 25.2476 5.81869C25.9302 6.56065 26.3062 7.48067 26.3853 8.47983ZM17.1356 26.6231C16.9378 25.8119 16.8784 24.9017 16.8784 24.1103C16.8784 23.7344 16.918 23.3684 16.9674 23.0023C17.0268 22.6363 17.0664 22.2703 17.0466 21.8845C17.2148 22.5473 17.1851 23.2002 17.1653 23.863C17.1455 24.5258 17.1158 25.1886 17.1158 25.8514C17.1257 26.0988 17.1257 26.3659 17.1356 26.6231ZM17.1356 26.6231C17.1653 27.3156 17.2345 28.0081 17.3829 28.6214C17.3631 28.196 17.3533 27.7706 17.3631 27.3452C17.2741 27.1177 17.195 26.8704 17.1356 26.6231ZM17.3829 28.6214C17.4423 28.8687 17.5214 29.1062 17.6105 29.3238C17.6105 29.769 17.6204 30.2042 17.6401 30.6197C17.4917 30.0262 17.4225 29.3436 17.3829 28.6214ZM17.6401 30.6197C17.6698 31.3617 17.749 32.0344 17.8875 32.6181C17.8677 32.2026 17.8578 31.7673 17.8578 31.3023C17.7687 31.0946 17.6995 30.8671 17.6401 30.6197ZM26.3853 30.5802C27.0877 32.4598 27.0184 34.102 25.9105 35.2693C24.8519 36.3773 22.8635 37.0698 21.2312 37.0599C20.6871 37.0599 20.1826 36.9808 19.7671 36.8126C18.4118 36.2685 18.0062 34.7846 17.8974 32.628C18.1447 33.6469 18.5997 34.3889 19.4109 34.7648C20.9542 35.4672 23.7934 34.7846 25.2476 33.2413C25.9302 32.4994 26.3062 31.5793 26.3853 30.5802ZM25.673 27.3057C25.7225 27.8399 25.7027 28.3939 25.6038 28.9182C25.9006 29.4623 26.1677 30.0064 26.3853 30.5802C26.4743 29.5315 26.227 28.3939 25.673 27.3057ZM24.6244 24.6346C25.2377 25.4458 25.5741 26.3065 25.6829 27.3057C25.4356 26.811 25.119 26.3461 24.7827 25.9009C24.7728 25.4557 24.7233 25.0402 24.6244 24.6346ZM23.3581 22.6264C23.467 22.9034 23.5362 23.2101 23.5857 23.5366C23.9616 23.8828 24.3177 24.2488 24.6244 24.6445C24.4068 23.8234 24.0209 23.1903 23.3581 22.6264ZM23.3581 22.6264C22.3788 21.7855 21.0828 21.3206 20.3409 20.7567C19.8759 20.4006 19.5395 20.084 19.5395 19.53C19.5395 19.9554 19.777 20.2423 20.1133 20.4698C20.8553 20.9743 22.4183 20.9546 23.1603 22.1911C23.2295 22.3296 23.2988 22.4681 23.3581 22.6264ZM17.1356 12.4369C16.9378 13.2481 16.8784 14.1583 16.8784 14.9497C16.8784 15.3256 16.918 15.6916 16.9674 16.0577C17.0268 16.4237 17.0664 16.7897 17.0466 17.1755C17.2148 16.5127 17.1851 15.8598 17.1653 15.197C17.1455 14.5342 17.1158 13.8714 17.1158 13.2086C17.1257 12.9612 17.1257 12.704 17.1356 12.4369ZM17.1356 12.4369C17.1653 11.7444 17.2345 11.0519 17.3829 10.4386C17.3631 10.864 17.3533 11.2894 17.3631 11.7148C17.2741 11.9423 17.195 12.1896 17.1356 12.4369ZM17.3829 10.4386C17.4423 10.1913 17.5214 9.95385 17.6105 9.73621C17.6105 9.29104 17.6204 8.85576 17.6401 8.44026C17.4917 9.04372 17.4225 9.71642 17.3829 10.4386ZM17.6401 8.44026C17.6698 7.69831 17.749 7.02561 17.8875 6.44194C17.8677 6.85743 17.8578 7.29271 17.8578 7.75767C17.7687 7.96541 17.6995 8.19295 17.6401 8.44026ZM17.0466 17.1854C16.641 18.0659 15.899 18.5111 15.1571 18.5012C14.4151 18.5111 13.6732 18.0659 13.2676 17.1854C13.7424 18.0065 14.4547 18.4121 15.1571 18.4121C15.8595 18.4121 16.5717 17.9966 17.0466 17.1854ZM13.1785 12.4369C13.1884 12.6941 13.1884 12.9612 13.1884 13.2184C13.1884 13.8813 13.1587 14.5441 13.139 15.2069C13.1192 15.8697 13.0994 16.5226 13.2577 17.1854C13.2379 16.8095 13.2775 16.4435 13.3368 16.0676C13.3962 15.7015 13.4357 15.3256 13.4357 14.9596C13.4357 14.1583 13.3764 13.2481 13.1785 12.4369ZM13.1785 12.4369C13.1192 12.1896 13.04 11.9423 12.951 11.7148C12.9609 11.2894 12.951 10.864 12.9312 10.4386C13.0796 11.0618 13.1488 11.7444 13.1785 12.4369ZM12.9312 10.4386C12.9015 9.71642 12.8224 9.03383 12.6839 8.44026C12.7037 8.85576 12.7136 9.29104 12.7136 9.73621C12.7927 9.95385 12.862 10.1913 12.9312 10.4386ZM12.674 8.44026C12.6146 8.19295 12.5454 7.96541 12.4564 7.74777C12.4564 7.28282 12.4465 6.84754 12.4267 6.43204C12.5652 7.02561 12.6443 7.69831 12.674 8.44026ZM3.92883 8.47983C4.00797 7.48067 4.3839 6.56065 5.07639 5.82859C6.53062 4.28532 9.36983 3.60273 10.9131 4.30511C11.7243 4.67114 12.1794 5.42299 12.4267 6.44194C12.3179 4.28532 11.9024 2.80141 10.5471 2.25732C10.1316 2.08914 9.62704 2.01 9.08294 2.01C7.45064 1.99021 5.4622 2.6827 4.40368 3.79069C3.2957 4.96792 3.22645 6.60022 3.92883 8.47983ZM3.92883 30.5802C3.22645 32.4598 3.2957 34.102 4.40368 35.2693C5.4622 36.3773 7.45064 37.0698 9.08294 37.0599C9.62704 37.0599 10.1316 36.9808 10.5471 36.8126C11.9024 36.2685 12.308 34.7846 12.4168 32.628C12.1695 33.6469 11.7144 34.3889 10.9032 34.7648C9.35993 35.4672 6.52072 34.7846 5.0665 33.2413C4.3839 32.4994 4.00797 31.5793 3.92883 30.5802ZM13.1785 26.6231C13.3764 25.8119 13.4357 24.9017 13.4357 24.1103C13.4357 23.7344 13.3962 23.3684 13.3368 23.0023C13.2775 22.6363 13.2379 22.2703 13.2577 21.8845C13.0895 22.5473 13.1192 23.2002 13.139 23.863C13.1587 24.5258 13.1884 25.1886 13.1884 25.8514C13.1884 26.0988 13.1884 26.3659 13.1785 26.6231ZM13.1785 26.6231C13.1488 27.3156 13.0796 28.0081 12.9312 28.6214C12.951 28.196 12.9609 27.7706 12.951 27.3452C13.04 27.1177 13.1192 26.8704 13.1785 26.6231ZM12.9312 28.6214C12.8718 28.8687 12.7927 29.1062 12.7037 29.3238C12.7037 29.769 12.6938 30.2042 12.674 30.6197C12.8224 30.0262 12.8916 29.3436 12.9312 28.6214ZM12.674 30.6197C12.6443 31.3617 12.5652 32.0344 12.4267 32.6181C12.4465 32.2026 12.4564 31.7673 12.4564 31.3023C12.5454 31.0946 12.6146 30.8671 12.674 30.6197ZM17.0466 21.8845C16.641 21.004 15.899 20.5588 15.1571 20.5687C14.4151 20.5588 13.6732 21.004 13.2676 21.8845C13.7424 21.0634 14.4547 20.6578 15.1571 20.6578C15.8595 20.6479 16.5717 21.0634 17.0466 21.8845ZM4.64111 11.7543C4.08712 10.6661 3.84969 9.52846 3.92883 8.47983C4.14647 9.06351 4.41358 9.6076 4.71036 10.1517C4.61143 10.676 4.58175 11.2201 4.64111 11.7543ZM5.68974 14.4254C5.59081 14.0296 5.54135 13.6043 5.53145 13.169C5.1951 12.7238 4.87853 12.249 4.63122 11.7642C4.74004 12.7535 5.08628 13.6142 5.68974 14.4254ZM6.956 16.4336C6.29319 15.8697 5.89748 15.2366 5.68974 14.4254C5.99641 14.8211 6.35255 15.1871 6.72847 15.5333C6.77794 15.8598 6.85708 16.1665 6.956 16.4336ZM6.956 22.6264C6.84718 22.9034 6.77794 23.2101 6.72847 23.5366C6.35255 23.8828 5.99641 24.2488 5.68974 24.6445C5.90738 23.8234 6.29319 23.1903 6.956 22.6264ZM5.68974 24.6346C5.07639 25.4458 4.74004 26.3065 4.63122 27.3057C4.87853 26.811 5.1951 26.3461 5.53145 25.9009C5.54135 25.4557 5.59081 25.0402 5.68974 24.6346ZM4.64111 27.3057C4.59164 27.8399 4.61143 28.3939 4.71036 28.9182C4.41358 29.4623 4.14647 30.0064 3.92883 30.5802C3.8398 29.5315 4.08712 28.3939 4.64111 27.3057ZM6.956 16.4336C7.93538 17.2745 9.23133 17.7394 9.97328 18.3033C10.4382 18.6594 10.7746 18.976 10.7746 19.53C10.7746 19.1046 10.5372 18.8177 10.2008 18.5902C9.45886 18.0857 7.89581 18.1054 7.15386 16.8689C7.08461 16.7304 7.01536 16.5919 6.956 16.4336ZM6.956 22.6264C7.93538 21.7855 9.23133 21.3206 9.97328 20.7567C10.4382 20.4006 10.7746 20.084 10.7746 19.53C10.7746 19.9554 10.5372 20.2423 10.2008 20.4698C9.45886 20.9743 7.89581 20.9546 7.15386 22.1911C7.08461 22.3296 7.01536 22.4681 6.956 22.6264Z" fill="#8BD0E2"/>
<path fill-rule="evenodd" clip-rule="evenodd" d="M15.1568 18.5784C16.0966 18.5784 16.7496 17.9651 17.0463 17.1737C16.6407 18.0541 15.8988 18.4894 15.1568 18.4894C14.4149 18.4894 13.6729 18.0541 13.2673 17.1737C13.5641 17.9651 14.217 18.5784 15.1568 18.5784ZM17.6102 9.73435C17.6102 9.27928 17.6201 8.85389 17.6399 8.4384C17.6993 8.19108 17.7685 7.96355 17.8575 7.74591C17.8575 8.24054 17.8575 8.73518 17.8575 9.22982C17.7685 9.3881 17.6894 9.55628 17.6102 9.73435ZM17.3629 11.7129C17.442 11.5249 17.5212 11.3568 17.6201 11.1886C17.6102 10.7038 17.6003 10.2191 17.6003 9.72445C17.5113 9.94209 17.4322 10.1795 17.3728 10.4268C17.3728 10.8621 17.3629 11.2974 17.3629 11.7129ZM17.0463 17.1737C17.2145 16.5109 17.1848 15.8579 17.1651 15.1951C17.1453 14.5323 17.1156 13.8695 17.1156 13.2067C17.1156 12.9495 17.1156 12.6824 17.1255 12.4252C17.1848 12.168 17.264 11.9305 17.353 11.703C17.3827 13.7211 17.541 15.8678 17.0463 17.1737ZM13.2673 17.1737C12.7727 15.8579 12.931 13.7211 12.9508 11.7129C13.0398 11.9404 13.1189 12.1778 13.1783 12.4351C13.1882 12.6923 13.1882 12.9594 13.1882 13.2166C13.1882 13.8794 13.1585 14.5422 13.1387 15.205C13.1189 15.8678 13.0991 16.5208 13.2673 17.1737ZM12.9508 11.7129C12.9606 11.2875 12.9508 10.8621 12.931 10.4367C12.8716 10.1894 12.7925 9.95199 12.7034 9.73435C12.7034 10.2191 12.6935 10.7038 12.6837 11.1985C12.7826 11.3568 12.8716 11.5348 12.9508 11.7129ZM12.7034 9.73435C12.6342 9.55628 12.5452 9.3881 12.4561 9.23971C12.4561 8.74507 12.4561 8.25044 12.4561 7.7558C12.5452 7.97344 12.6144 8.20097 12.6738 8.44829C12.6935 8.85389 12.7034 9.28917 12.7034 9.73435ZM25.6035 10.1399C25.9003 9.59585 26.1674 9.05175 26.3851 8.47797C26.3059 7.47881 25.9201 6.54889 25.2375 5.82672C23.7833 4.28346 20.9441 3.60086 19.4008 4.30324C18.5896 4.66927 18.1345 5.42112 17.8872 6.44007C17.8674 6.85556 17.8575 7.29084 17.8575 7.7558C18.1148 7.13256 18.4808 6.64782 19.0348 6.36093C20.4593 5.62887 23.0611 6.25211 24.4659 7.82505C25.0594 8.46808 25.4354 9.27928 25.6035 10.1399ZM24.7726 13.1671C24.7726 12.6923 24.7132 12.2174 24.5945 11.7525C24.9605 11.2183 25.3068 10.6742 25.5936 10.1498C25.6926 10.6742 25.7223 11.2183 25.6629 11.7624C25.4255 12.2471 25.1188 12.7121 24.7726 13.1671ZM23.5854 15.5315C23.9613 15.1852 24.3175 14.8192 24.6242 14.4235C24.7231 14.0278 24.7726 13.6024 24.7824 13.1671C24.4362 13.6321 24.0405 14.0772 23.6448 14.5026C23.6448 14.8588 23.625 15.205 23.5854 15.5315ZM23.5854 15.5315C23.536 15.8579 23.4667 16.1547 23.3579 16.4416C22.3785 17.2825 21.0826 17.7474 20.3406 18.3113C19.8757 18.6675 19.5393 18.984 19.5393 19.538C19.5393 18.8851 19.9449 18.529 20.4989 17.9948C21.2507 17.2825 22.5071 16.501 23.5854 15.5315ZM23.5854 23.5347C23.536 23.2082 23.4667 22.9114 23.3579 22.6246C22.3785 21.7837 21.0826 21.3187 20.3406 20.7548C19.8757 20.3987 19.5393 20.0821 19.5393 19.5281C19.5393 20.1811 19.9449 20.5372 20.4989 21.0714C21.2507 21.7837 22.5071 22.5652 23.5854 23.5347ZM23.5854 23.5248C23.9613 23.871 24.3175 24.2371 24.6242 24.6328C24.7231 25.0285 24.7726 25.4539 24.7824 25.8892C24.4362 25.4242 24.0405 24.979 23.6448 24.5536C23.6448 24.2074 23.625 23.8611 23.5854 23.5248ZM24.7726 25.8892C24.7726 26.364 24.7132 26.8389 24.5945 27.3038C24.9605 27.838 25.3068 28.3821 25.5936 28.9064C25.6926 28.3821 25.7223 27.838 25.6629 27.2939C25.4255 26.8092 25.1188 26.3442 24.7726 25.8892ZM25.6035 28.9163C25.9003 29.4604 26.1674 30.0045 26.3851 30.5783C26.3059 31.5775 25.9201 32.5074 25.2375 33.2295C23.7833 34.7728 20.9441 35.4554 19.4008 34.753C18.5896 34.387 18.1345 33.6352 17.8872 32.6162C17.8674 32.2007 17.8575 31.7654 17.8575 31.3005C18.1148 31.9237 18.4808 32.4085 19.0348 32.6953C20.4593 33.4274 23.0611 32.8042 24.4659 31.2312C25.0594 30.5882 25.4354 29.777 25.6035 28.9163ZM17.6102 29.3219C17.6102 29.777 17.6201 30.2024 17.6399 30.6179C17.6993 30.8652 17.7685 31.0927 17.8575 31.3104C17.8575 30.8157 17.8575 30.3211 17.8575 29.8265C17.7685 29.6682 17.6894 29.5 17.6102 29.3219ZM17.3629 27.3434C17.442 27.5313 17.5212 27.6995 17.6201 27.8677C17.6102 28.3524 17.6003 28.8372 17.6003 29.3318C17.5113 29.1142 17.4322 28.8768 17.3728 28.6294C17.3728 28.1942 17.3629 27.7688 17.3629 27.3434ZM17.0463 21.8826C17.2145 22.5454 17.1848 23.1983 17.1651 23.8611C17.1453 24.524 17.1156 25.1868 17.1156 25.8496C17.1156 26.1068 17.1156 26.3739 17.1255 26.6311C17.1848 26.8784 17.264 27.1257 17.353 27.3533C17.3827 25.3352 17.541 23.1983 17.0463 21.8826ZM15.1568 20.4778C16.0966 20.4778 16.7496 21.0912 17.0463 21.8826C16.6407 21.0022 15.8988 20.5669 15.1568 20.5669C14.4149 20.5669 13.6729 21.0022 13.2673 21.8826C13.5641 21.0912 14.217 20.4778 15.1568 20.4778ZM13.2673 21.8826C12.7727 23.1983 12.931 25.3352 12.9508 27.3434C13.0398 27.1159 13.1189 26.8784 13.1783 26.6212C13.1882 26.364 13.1882 26.0969 13.1882 25.8397C13.1882 25.1769 13.1585 24.5141 13.1387 23.8513C13.1189 23.1884 13.0991 22.5454 13.2673 21.8826ZM12.9508 27.3434C12.9606 27.7688 12.9508 28.1942 12.931 28.6195C12.8716 28.8669 12.7925 29.1043 12.7034 29.3219C12.7034 28.8372 12.6935 28.3524 12.6837 27.8578C12.7826 27.6995 12.8716 27.5215 12.9508 27.3434ZM12.7034 29.3219C12.6342 29.5 12.5452 29.6682 12.4561 29.8265C12.4561 30.3211 12.4561 30.8157 12.4561 31.3104C12.5452 31.0927 12.6144 30.8652 12.6738 30.6179C12.6935 30.2024 12.7034 29.777 12.7034 29.3219ZM4.71012 28.9163C4.87829 29.777 5.25422 30.5882 5.83789 31.2411C7.24265 32.8141 9.84444 33.4373 11.269 32.7052C11.823 32.4282 12.1989 31.9336 12.4462 31.3104C12.4462 31.7753 12.4363 32.2106 12.4165 32.6261C12.1692 33.645 11.7142 34.387 10.903 34.7629C9.3597 35.4653 6.52049 34.7827 5.06626 33.2394C4.37377 32.5074 3.99784 31.5874 3.9187 30.5882C4.14623 30.0045 4.41334 29.4604 4.71012 28.9163ZM5.54111 25.8892C5.20475 26.3343 4.88819 26.8092 4.64087 27.2939C4.59141 27.8281 4.61119 28.3821 4.71012 28.9064C5.0069 28.3821 5.34325 27.838 5.70928 27.3038C5.60046 26.8487 5.54111 26.364 5.54111 25.8892ZM6.72823 23.5248C6.67877 23.8513 6.66888 24.1975 6.67877 24.5536C6.27317 24.9889 5.88735 25.4341 5.54111 25.8892C5.54111 25.4539 5.59057 25.0285 5.69939 24.6328C5.99617 24.2371 6.35231 23.871 6.72823 23.5248ZM6.72823 23.5347C6.7777 23.2082 6.84695 22.9114 6.95577 22.6246C7.93514 21.7837 9.23109 21.3187 9.97304 20.7548C10.438 20.3987 10.7744 20.0821 10.7744 19.5281C10.7744 20.1811 10.3688 20.5372 9.81476 21.0714C9.06291 21.7837 7.80654 22.5652 6.72823 23.5347ZM6.72823 15.5315C6.7777 15.8579 6.84695 16.1547 6.95577 16.4416C7.93514 17.2825 9.23109 17.7474 9.97304 18.3113C10.438 18.6675 10.7744 18.984 10.7744 19.538C10.7744 18.8851 10.3688 18.529 9.81476 17.9948C9.06291 17.2825 7.80654 16.501 6.72823 15.5315ZM6.72823 15.5315C6.35231 15.1852 5.99617 14.8192 5.6895 14.4235C5.59057 14.0278 5.54111 13.6024 5.53121 13.1671C5.87746 13.6321 6.27317 14.0772 6.66888 14.5026C6.66888 14.8588 6.68866 15.205 6.72823 15.5315ZM5.54111 13.1671C5.54111 12.6923 5.60046 12.2174 5.71918 11.7525C5.34325 11.2084 5.0069 10.6742 4.71012 10.1399C4.61119 10.6643 4.58151 11.2084 4.64087 11.7525C4.88819 12.2471 5.19486 12.7121 5.54111 13.1671ZM4.71012 10.1399C4.87829 9.27928 5.25422 8.46808 5.83789 7.81516C7.25255 6.25211 9.85433 5.62887 11.2789 6.36093C11.8329 6.64782 12.2088 7.13256 12.4561 7.7558C12.4561 7.29084 12.4462 6.85556 12.4264 6.44007C12.1791 5.42112 11.7241 4.67917 10.9129 4.30324C9.36959 3.60086 6.53038 4.28346 5.07615 5.82672C4.38366 6.55878 4.00774 7.47881 3.92859 8.47797C4.14623 9.06164 4.41334 9.60574 4.71012 10.1399Z" fill="#549DBB"/>
<path fill-rule="evenodd" clip-rule="evenodd" d="M12.4564 9.24136C12.4564 9.78546 12.4564 10.3296 12.4564 10.8737C12.5455 10.9726 12.6246 11.0814 12.6939 11.2001C12.7038 10.7154 12.7137 10.2306 12.7137 9.736C12.6246 9.55793 12.5455 9.38975 12.4564 9.24136ZM13.2677 17.1753C12.6147 15.82 12.6543 13.4458 12.6939 11.1902C12.7928 11.3485 12.8818 11.5266 12.9511 11.7145C12.9313 13.7228 12.773 15.8695 13.2677 17.1753ZM17.0467 17.1753C17.6996 15.82 17.66 13.4458 17.6204 11.1902C17.5215 11.3485 17.4325 11.5266 17.3632 11.7145C17.383 13.7228 17.5413 15.8695 17.0467 17.1753ZM17.8579 9.24136C17.8579 9.78546 17.8579 10.3296 17.8579 10.8737C17.7688 10.9726 17.6897 11.0814 17.6204 11.2001C17.6106 10.7154 17.6007 10.2306 17.6007 9.736C17.6897 9.55793 17.7688 9.38975 17.8579 9.24136ZM24.6047 11.7442C24.9707 11.21 25.317 10.6659 25.6039 10.1416C25.4357 9.28093 25.0598 8.46973 24.4761 7.81681C23.0713 6.24387 20.4696 5.62063 19.045 6.35269C18.491 6.63958 18.1151 7.12432 17.8678 7.74756C17.8678 8.2422 17.8678 8.73683 17.8678 9.23147C18.0755 8.88523 18.3426 8.59834 18.679 8.41038C19.9848 7.64864 22.3492 8.21252 23.6352 9.76568C24.1002 10.3296 24.4167 11.0221 24.6047 11.7442ZM23.6352 14.5043C23.6154 14.1185 23.566 13.7129 23.467 13.3271C23.8529 12.8027 24.2387 12.2784 24.6047 11.7442C24.7234 12.2092 24.7828 12.6939 24.7828 13.1589C24.4266 13.6238 24.0309 14.069 23.6352 14.5043ZM23.6352 14.5043C22.5371 15.6815 21.35 16.7697 20.5982 17.6106C20.1332 18.125 19.5396 18.6889 19.5396 19.5298C19.5396 18.8769 19.9452 18.5207 20.4992 17.9865C21.2511 17.2841 22.5173 16.5026 23.5956 15.5331C23.6253 15.2067 23.6451 14.8604 23.6352 14.5043ZM23.6352 24.5553C22.5371 23.3781 21.35 22.2899 20.5982 21.449C20.1332 20.9346 19.5396 20.3707 19.5396 19.5298C19.5396 20.1827 19.9452 20.5388 20.4992 21.0731C21.2511 21.7754 22.5173 22.557 23.5956 23.5264C23.6253 23.8628 23.6451 24.209 23.6352 24.5553ZM23.6352 24.5553C23.6154 24.9411 23.566 25.3467 23.467 25.7325C23.8529 26.2568 24.2387 26.7812 24.6047 27.3154C24.7234 26.8504 24.7828 26.3657 24.7828 25.9007C24.4266 25.4357 24.0309 24.9906 23.6352 24.5553ZM24.6047 27.3154C24.9707 27.8496 25.317 28.3937 25.6039 28.918C25.4357 29.7786 25.0598 30.5898 24.4761 31.2428C23.0713 32.8157 20.4696 33.4389 19.045 32.7069C18.491 32.42 18.1151 31.9353 17.8678 31.312C17.8678 30.8174 17.8678 30.3227 17.8678 29.8281C18.0755 30.1744 18.3426 30.4612 18.679 30.6492C19.9848 31.4109 22.3492 30.8471 23.6352 29.2939C24.1002 28.73 24.4167 28.0375 24.6047 27.3154ZM17.8579 29.8281C17.8579 29.284 17.8579 28.7399 17.8579 28.1958C17.7688 28.0969 17.6897 27.9881 17.6204 27.8694C17.6106 28.3541 17.6007 28.8388 17.6007 29.3335C17.6897 29.5016 17.7688 29.6698 17.8579 29.8281ZM17.0467 21.8843C17.6996 23.2396 17.66 25.6138 17.6204 27.8694C17.5215 27.7111 17.4325 27.533 17.3632 27.345C17.383 25.3368 17.5413 23.2 17.0467 21.8843ZM17.0467 21.8843C16.829 20.984 16.1959 20.3905 15.1572 20.3905C14.1184 20.3905 13.4853 20.984 13.2677 21.8843C13.5644 21.0928 14.2174 20.4795 15.1572 20.4795C16.097 20.4795 16.7499 21.0928 17.0467 21.8843ZM13.2677 21.8843C12.773 23.2 12.9412 25.3368 12.9511 27.345C12.8719 27.533 12.7928 27.7111 12.6939 27.8694C12.6543 25.6138 12.6048 23.2396 13.2677 21.8843ZM12.4564 29.8281C12.5554 29.6698 12.6345 29.5016 12.7038 29.3236C12.7038 28.8388 12.6939 28.3541 12.684 27.8595C12.6147 27.9782 12.5356 28.087 12.4466 28.1859C12.4466 28.7399 12.4466 29.284 12.4564 29.8281ZM5.70961 27.3154C5.88768 28.0474 6.21414 28.73 6.6791 29.2939C7.96515 30.8471 10.3295 31.4109 11.6354 30.6492C11.9717 30.4514 12.2388 30.1744 12.4466 29.8281C12.4466 30.3227 12.4466 30.8174 12.4466 31.312C12.1893 31.9353 11.8233 32.42 11.2693 32.7069C9.84477 33.4389 7.24299 32.8157 5.83822 31.2428C5.25455 30.5898 4.87863 29.7786 4.71045 28.918C5.00723 28.3838 5.34358 27.8496 5.70961 27.3154ZM6.6791 24.5553C6.2735 24.9906 5.88768 25.4357 5.54144 25.8908C5.54144 26.3657 5.60079 26.8405 5.71951 27.3055C6.07564 26.7713 6.46146 26.2469 6.85717 25.7226C6.74835 25.3467 6.69889 24.951 6.6791 24.5553ZM6.6791 24.5553C6.65932 24.1992 6.6791 23.8529 6.72856 23.5264C7.79698 22.557 9.06325 21.7754 9.82498 21.0731C10.379 20.5388 10.7846 20.1827 10.7846 19.5298C10.7846 20.3806 10.191 20.9346 9.72606 21.449C8.96432 22.2899 7.77719 23.3781 6.6791 24.5553ZM6.6791 14.5043C7.77719 15.6815 8.96432 16.7697 9.72606 17.6106C10.191 18.125 10.7846 18.6889 10.7846 19.5298C10.7846 18.8769 10.379 18.5207 9.82498 17.9865C9.07314 17.2841 7.80687 16.5026 6.72856 15.5331C6.68899 15.2067 6.66921 14.8604 6.6791 14.5043ZM6.6791 14.5043C6.69889 14.1185 6.74835 13.7129 6.84728 13.3271C6.46146 12.8027 6.07564 12.2784 5.70961 11.7442C5.5909 12.2092 5.53154 12.6939 5.53154 13.1589C5.88768 13.6238 6.28339 14.069 6.6791 14.5043ZM5.70961 11.7442C5.34358 11.21 5.00723 10.6758 4.71045 10.1416C4.87863 9.28093 5.25455 8.46973 5.83822 7.81681C7.25288 6.25376 9.85466 5.63052 11.2792 6.36258C11.8332 6.64947 12.2091 7.13421 12.4564 7.75746C12.4564 8.25209 12.4564 8.74673 12.4564 9.24136C12.2487 8.89512 11.9816 8.60823 11.6452 8.42027C10.3394 7.65853 7.97505 8.22241 6.68899 9.77557C6.21414 10.3296 5.89758 11.0221 5.70961 11.7442ZM17.0467 17.1753C16.7499 17.9667 16.097 18.5801 15.1572 18.5801C14.2174 18.5801 13.5644 17.9667 13.2677 17.1753C13.4853 18.0756 14.1184 18.6691 15.1572 18.6691C16.1959 18.6691 16.829 18.0855 17.0467 17.1753Z" fill="#285786"/>
<path fill-rule="evenodd" clip-rule="evenodd" d="M15.1569 18.7588C16.2253 18.7588 16.9871 18.1355 17.0464 17.1858C17.7587 15.969 17.8082 13.9213 17.8379 12.6451C17.8576 12.0515 17.8576 11.458 17.8576 10.8644C17.9862 10.7061 18.1346 10.5676 18.3028 10.4588C19.4899 9.67728 21.6169 10.1818 22.715 11.6657C23.0612 12.1406 23.3085 12.7143 23.4569 13.3178C22.3786 14.7522 21.2805 16.1174 20.5682 17.176C19.5295 18.6401 19.5196 18.9665 19.5196 19.5106C19.5196 20.0547 19.5295 20.3812 20.5682 21.8453C21.2706 22.9038 22.3786 24.269 23.4569 25.7035C23.3085 26.3069 23.0612 26.8807 22.715 27.3556C21.6169 28.8395 19.4899 29.3539 18.3028 28.5625C18.1346 28.4537 17.9862 28.3152 17.8576 28.1569C17.8576 27.5633 17.8477 26.9697 17.8379 26.3762C17.8082 25.1099 17.7587 23.0621 17.0464 21.8354C16.9871 20.8758 16.2253 20.2625 15.1569 20.2625C14.0885 20.2625 13.3268 20.8857 13.2674 21.8354C12.5551 23.0522 12.5057 25.1 12.476 26.3762C12.4562 26.9697 12.4562 27.5633 12.4562 28.1569C12.3276 28.3152 12.1792 28.4537 12.011 28.5625C10.8239 29.344 8.69698 28.8395 7.59889 27.3556C7.25264 26.8807 7.00532 26.3069 6.85693 25.7035C7.93524 24.269 9.03333 22.9038 9.74561 21.8453C10.7843 20.3812 10.7942 20.0547 10.7942 19.5106C10.7942 18.9665 10.7843 18.6401 9.74561 17.176C9.04322 16.1174 7.93524 14.7522 6.85693 13.3178C7.00532 12.7143 7.25264 12.1406 7.59889 11.6657C8.69698 10.1818 10.8239 9.66738 12.011 10.4588C12.1792 10.5676 12.3276 10.7061 12.4562 10.8644C12.4562 11.458 12.4661 12.0515 12.476 12.6451C12.5057 13.9114 12.5551 15.9592 13.2674 17.1858C13.3268 18.1355 14.0885 18.7588 15.1569 18.7588Z" fill="#040D1D"/>
<path fill-rule="evenodd" clip-rule="evenodd" d="M19.5301 19.5306C19.5301 20.3814 20.1236 20.9354 20.5886 21.4498C21.3405 22.2808 22.5276 23.3789 23.6257 24.5561C23.6059 24.9419 23.5564 25.3475 23.4575 25.7333C22.3792 24.2989 21.2811 22.9337 20.5688 21.8752C19.54 20.4012 19.5301 20.0747 19.5301 19.5306ZM19.5301 19.5306C19.5301 18.6798 20.1236 18.1258 20.5886 17.6114C21.3405 16.7804 22.5276 15.6823 23.6257 14.5051C23.6059 14.1193 23.5564 13.7137 23.4575 13.3279C22.3792 14.7623 21.2811 16.1275 20.5688 17.186C19.54 18.6601 19.5301 18.9865 19.5301 19.5306ZM10.7849 19.5306C10.7849 20.3814 10.1914 20.9354 9.7264 21.4498C8.97456 22.2808 7.78743 23.3789 6.68934 24.5561C6.70913 24.9419 6.75859 25.3475 6.85752 25.7333C7.93582 24.2989 9.03391 22.9337 9.74619 21.8752C10.775 20.4012 10.7849 20.0747 10.7849 19.5306ZM10.7849 19.5306C10.7849 18.6798 10.1914 18.1258 9.7264 17.6114C8.96466 16.7705 7.77754 15.6823 6.67945 14.5051C6.69923 14.1193 6.7487 13.7137 6.84762 13.3279C7.92593 14.7623 9.02402 16.1275 9.7363 17.186C10.775 18.6601 10.7849 18.9865 10.7849 19.5306ZM17.6307 27.8603C17.6999 27.979 17.7791 28.0878 17.8681 28.1867C17.8681 27.5932 17.8582 26.9996 17.8483 26.4061C17.8186 25.1398 17.7692 23.092 17.0569 21.8752C17.7098 23.2404 17.6604 25.6146 17.6307 27.8603ZM17.8582 29.819C17.8681 29.2848 17.8681 28.7407 17.8681 28.1966C17.9967 28.3549 18.1451 28.4934 18.3133 28.6022C19.5004 29.3838 21.6273 28.8792 22.7254 27.3953C23.0717 26.9205 23.319 26.3467 23.4674 25.7432C23.8532 26.2676 24.239 26.7919 24.6051 27.3261C24.427 28.0581 24.1005 28.7407 23.6356 29.3046C22.3495 30.8578 19.9852 31.4217 18.6793 30.6599C18.3331 30.4522 18.0759 30.1752 17.8582 29.819ZM12.6843 27.8603C12.6151 27.979 12.5359 28.0878 12.4469 28.1867C12.4469 27.5932 12.4568 26.9996 12.4667 26.4061C12.4964 25.1398 12.5458 23.092 13.2581 21.8752C12.6052 23.2404 12.6546 25.6146 12.6843 27.8603ZM12.4568 29.819C12.4469 29.2848 12.4469 28.7407 12.4469 28.1966C12.3183 28.3549 12.1699 28.4934 12.0017 28.6022C10.8146 29.3838 8.68767 28.8792 7.58958 27.3953C7.24333 26.9205 6.99601 26.3467 6.84762 25.7432C6.46181 26.2676 6.07599 26.7919 5.70996 27.3261C5.88803 28.0581 6.21449 28.7407 6.67945 29.3046C7.9655 30.8578 10.3299 31.4217 11.6357 30.6599C11.9819 30.4522 12.2392 30.1752 12.4568 29.819ZM12.6843 11.2009C12.6151 11.0822 12.5359 10.9734 12.4469 10.8745C12.4469 11.468 12.4568 12.0616 12.4667 12.6552C12.4964 13.9214 12.5458 15.9692 13.2581 17.186C12.6052 15.8208 12.6546 13.4466 12.6843 11.2009ZM12.4568 9.24219C12.2392 8.88605 11.9819 8.60905 11.6456 8.4112C10.3398 7.64946 7.97539 8.21334 6.68934 9.7665C6.22438 10.3304 5.89792 11.0229 5.71985 11.745C6.07599 12.2793 6.46181 12.8036 6.85752 13.3279C7.00591 12.7244 7.25322 12.1506 7.59947 11.6758C8.69756 10.1919 10.8245 9.67747 12.0116 10.4689C12.1798 10.5777 12.3282 10.7162 12.4568 10.8745C12.4469 10.3205 12.4469 9.77639 12.4568 9.24219ZM17.6307 11.2009C17.6999 11.0822 17.7791 10.9734 17.8681 10.8745C17.8681 11.468 17.8582 12.0616 17.8483 12.6552C17.8186 13.9214 17.7692 15.9692 17.0569 17.186C17.7098 15.8208 17.6604 13.4466 17.6307 11.2009ZM17.8582 9.24219C18.0759 8.88605 18.3331 8.60905 18.6694 8.4112C19.9753 7.64946 22.3396 8.21334 23.6257 9.7665C24.0906 10.3304 24.4171 11.0229 24.5952 11.745C24.239 12.2793 23.8532 12.8036 23.4575 13.3279C23.3091 12.7244 23.0618 12.1506 22.7155 11.6758C21.6174 10.1919 19.4905 9.67747 18.3034 10.4689C18.1352 10.5777 17.9868 10.7162 17.8582 10.8745C17.8681 10.3205 17.8681 9.77639 17.8582 9.24219ZM13.268 17.186C13.4856 18.0863 14.1188 18.6798 15.1575 18.6798C16.1962 18.6798 16.8294 18.0863 17.047 17.186C16.9877 18.1456 16.2259 18.759 15.1575 18.759C14.0891 18.759 13.3274 18.1357 13.268 17.186ZM13.268 21.8851C13.4856 20.9848 14.1188 20.3913 15.1575 20.3913C16.1962 20.3913 16.8294 20.9848 17.047 21.8851C16.9877 20.9255 16.2259 20.3121 15.1575 20.3121C14.0891 20.3022 13.3274 20.9255 13.268 21.8851Z" fill="#0B335C"/>
</svg>
