<svg width="116" height="38" viewBox="0 0 116 38" fill="none" xmlns="http://www.w3.org/2000/svg">
<g clip-path="url(#clip0_1363_53821)">
<path d="M32.9594 19C32.9594 27.8351 25.6916 35 16.7297 35C7.76774 35 0.5 27.8351 0.5 19C0.5 10.1649 7.76774 3 16.7297 3C25.6916 3 32.9594 10.1649 32.9594 19Z" fill="white"/>
<path d="M24.343 17.8827C21.7639 16.154 18.4619 16.8561 16.7245 19.4572C15.2785 21.6274 13.0933 21.8986 12.2516 21.8986C9.48913 21.8986 7.6061 19.9838 7.04497 18.005C7.04497 18.005 7.03418 17.9678 7.02878 17.9465C7.02339 17.9252 7.01799 17.904 7.01259 17.8827C6.79138 17.0529 6.73742 16.6646 6.73742 15.7869C6.73742 11.0582 11.6635 5.78694 18.7532 5.78694C25.8429 5.78694 30.1755 11.2391 31.2492 14.271C31.2276 14.2125 31.2114 14.1646 31.1952 14.1114C29.1288 8.18056 23.4311 3.91992 16.7137 3.91992C8.27514 3.91992 1.42285 10.6699 1.42285 18.9997C1.42285 26.4465 6.86692 32.8135 14.426 32.8135C20.4474 32.8135 24.4994 29.4838 26.3555 24.8933C27.3752 22.3827 26.6522 19.4306 24.343 17.8827Z" fill="#003964"/>
<path d="M31.3413 14.5578C30.4456 11.6004 26.2587 5.78125 18.7536 5.78125C11.6639 5.78125 6.73779 11.0525 6.73779 15.7813C6.73779 16.6589 6.79175 17.0525 7.01296 17.877C6.92124 17.5153 6.87268 17.1536 6.87268 16.8025C6.87268 11.8717 11.8743 8.4621 17.0216 8.4621C23.9872 8.4621 29.6363 14.0259 29.6363 20.893C29.6363 26.2759 26.4961 30.9355 21.9315 33.1749C27.818 31.0791 32.0157 25.5206 32.0157 18.994C32.0157 17.4515 31.8053 16.0898 31.3467 14.5578" fill="#ED1A3B"/>
<path d="M43.427 12.6123V11.4102H45.3478V12.6123H48.0186V14.091H40.4648V12.6123H43.4324H43.427ZM47.6948 17.4633C47.6948 17.8782 47.6031 18.2665 47.4304 18.6336C47.2524 18.9953 47.015 19.3144 46.7128 19.5857C46.4107 19.8623 46.0654 20.0751 45.6715 20.2346C45.2776 20.3942 44.8514 20.474 44.3982 20.474C43.9449 20.474 43.5187 20.3942 43.1248 20.2346C42.731 20.0751 42.3802 19.857 42.0835 19.5857C41.7813 19.3144 41.5439 18.9953 41.3659 18.6336C41.1878 18.2719 41.1015 17.8836 41.1015 17.4633C41.1015 17.0431 41.1878 16.6548 41.3659 16.2878C41.5439 15.9208 41.7813 15.6016 42.0835 15.3251C42.3856 15.0485 42.731 14.8357 43.1248 14.6761C43.5187 14.5165 43.9449 14.4368 44.3982 14.4368C44.8514 14.4368 45.2776 14.5165 45.6715 14.6761C46.0654 14.8357 46.4107 15.0538 46.7128 15.3251C47.015 15.5963 47.2524 15.9208 47.4304 16.2878C47.6085 16.6548 47.6948 17.0485 47.6948 17.4633ZM46.0114 17.4474C46.0114 17.0219 45.855 16.6495 45.5366 16.3357C45.2183 16.0219 44.8406 15.8676 44.3928 15.8676C43.9449 15.8676 43.5673 16.0219 43.2597 16.3357C42.9468 16.6495 42.7903 17.0165 42.7903 17.4474C42.7903 17.8782 42.9468 18.2399 43.2597 18.5485C43.5727 18.857 43.9503 19.0112 44.3928 19.0112C44.8352 19.0112 45.2183 18.857 45.5366 18.5485C45.855 18.2399 46.0114 17.8729 46.0114 17.4474ZM52.3835 23.2506C52.3835 23.6868 52.2864 24.1016 52.0975 24.4899C51.9087 24.8782 51.6605 25.224 51.3476 25.5165C51.0238 25.8144 50.6516 26.0485 50.2307 26.224C49.8099 26.3995 49.3566 26.4899 48.8818 26.4899C48.407 26.4899 47.9484 26.3995 47.5222 26.224C47.0959 26.0485 46.7182 25.8144 46.3945 25.5165C46.0816 25.2187 45.8334 24.8782 45.6445 24.4899C45.4557 24.1016 45.3586 23.6868 45.3586 23.2506C45.3586 22.8144 45.4503 22.3942 45.6445 22.0006C45.8334 21.607 46.0816 21.2612 46.3945 20.9633C46.7182 20.6655 47.0905 20.4314 47.5222 20.2559C47.9484 20.0804 48.4016 19.9899 48.8818 19.9899C49.362 19.9899 49.8099 20.0751 50.2307 20.2559C50.6516 20.4314 51.0238 20.6655 51.3476 20.9633C51.6605 21.2612 51.9087 21.607 52.0975 22.0006C52.2864 22.3942 52.3835 22.8144 52.3835 23.2506ZM50.6138 23.2346C50.6138 22.7719 50.4411 22.3729 50.0958 22.0325C49.7505 21.6921 49.3405 21.5219 48.8602 21.5219C48.38 21.5219 47.9754 21.6921 47.6355 22.0325C47.2956 22.3729 47.1283 22.7719 47.1283 23.2346C47.1283 23.6974 47.2956 24.091 47.6355 24.4261C47.9754 24.7612 48.3854 24.9261 48.8602 24.9261C49.3351 24.9261 49.7505 24.7612 50.0958 24.4261C50.4411 24.091 50.6138 23.6921 50.6138 23.2346ZM50.5814 19.5538H48.9142V11.7293H50.5814V14.8357H52.0652V11.7133H53.7971V19.7559H52.0652V16.4527H50.5814V19.5591V19.5538Z" fill="#575756"/>
<path d="M55.901 13.6443V12.1124H64.2425V13.6443H60.6922L64.3936 18.1018L63.1256 19.123L60.1581 15.4741L57.2068 19.373L55.8903 18.3198L59.5754 13.6496H55.9064L55.901 13.6443ZM67.442 22.9847C67.442 23.4688 67.3395 23.9209 67.1399 24.3411C66.9402 24.7613 66.6705 25.1337 66.3413 25.4528C65.996 25.772 65.5914 26.022 65.1328 26.2082C64.6741 26.3943 64.1831 26.4901 63.676 26.4901C63.1688 26.4901 62.6778 26.3943 62.2084 26.2082C61.739 26.022 61.3343 25.7667 60.989 25.4528C60.6545 25.1337 60.3901 24.7667 60.1905 24.3411C59.9908 23.9209 59.8883 23.4688 59.8883 22.9847C59.8883 22.5007 59.9908 22.0486 60.1905 21.6177C60.3901 21.1922 60.6599 20.8199 60.989 20.5007C61.3343 20.1816 61.739 19.9316 62.2084 19.7454C62.6778 19.5592 63.1634 19.4635 63.676 19.4635C64.1885 19.4635 64.6741 19.5539 65.1328 19.7454C65.5914 19.9369 65.996 20.1816 66.3413 20.5007C66.6759 20.8199 66.9402 21.1922 67.1399 21.6177C67.3395 22.0433 67.442 22.5007 67.442 22.9847ZM65.6723 22.9688C65.6723 22.4316 65.4727 21.9688 65.0734 21.5805C64.6741 21.1922 64.1993 20.9954 63.6544 20.9954C63.1094 20.9954 62.64 21.1922 62.2462 21.5805C61.8523 21.9688 61.6526 22.4316 61.6526 22.9688C61.6526 23.506 61.8523 23.9688 62.2462 24.3518C62.64 24.7347 63.1094 24.9262 63.6544 24.9262C64.1993 24.9262 64.6741 24.7347 65.0734 24.3518C65.4727 23.9688 65.6723 23.506 65.6723 22.9688ZM66.8755 19.3039V16.1975H64.1724V14.6656H66.8755V11.7081H68.6776V19.3039H66.8755Z" fill="#575756"/>
<path d="M79.0531 15.7188C79.0531 16.256 78.9451 16.7614 78.7293 17.2294C78.5135 17.7028 78.2168 18.1177 77.8391 18.4794C77.4614 18.8305 77.0243 19.1124 76.528 19.3199C76.0316 19.5273 75.5028 19.6337 74.9363 19.6337C74.3698 19.6337 73.8356 19.5273 73.3446 19.3199C72.8482 19.1124 72.4112 18.8305 72.0335 18.4794C71.6558 18.1177 71.3591 17.7028 71.1432 17.2294C70.9274 16.756 70.8195 16.2507 70.8195 15.7188C70.8195 15.1869 70.9274 14.6763 71.1432 14.2082C71.3591 13.7348 71.6558 13.3199 72.0335 12.9582C72.4112 12.6071 72.8482 12.3252 73.3446 12.1177C73.841 11.9103 74.3698 11.8039 74.9363 11.8039C75.5028 11.8039 76.0316 11.9103 76.528 12.1177C77.0243 12.3252 77.4614 12.6071 77.8391 12.9582C78.2168 13.3199 78.5135 13.7348 78.7293 14.2082C78.9451 14.6816 79.0531 15.1816 79.0531 15.7188ZM73.5335 20.9635V24.1709H83.3047V25.7507H71.7314V20.9635H73.5335ZM77.3211 15.7348C77.3211 15.4156 77.2564 15.1124 77.1269 14.8305C76.9974 14.5433 76.8301 14.2933 76.6197 14.0752C76.3985 13.8677 76.1449 13.7028 75.8589 13.5752C75.5729 13.4475 75.2708 13.3837 74.9525 13.3837C74.6341 13.3837 74.3266 13.4475 74.0352 13.5752C73.7439 13.7028 73.4903 13.8677 73.2691 14.0752C73.0586 14.2933 72.886 14.5486 72.7619 14.8305C72.6324 15.1177 72.5677 15.4156 72.5677 15.7348C72.5677 16.0539 72.6324 16.3518 72.7619 16.6284C72.8914 16.9103 73.0586 17.1603 73.2691 17.3784C73.4903 17.5858 73.7493 17.756 74.0352 17.8784C74.3266 18.006 74.6287 18.0699 74.9525 18.0699C75.2762 18.0699 75.5783 18.006 75.8589 17.8784C76.1395 17.7507 76.3931 17.5858 76.6197 17.3784C76.8301 17.1603 77.0028 16.9103 77.1269 16.6284C77.2564 16.3465 77.3211 16.0486 77.3211 15.7348ZM82.9432 20.8784H81.1411V11.7028H82.9432V14.8252H85.0259V16.5858H82.9432V20.8784Z" fill="#575756"/>
<path d="M86.3201 13.6441V12.1122H94.6616V13.6441H91.1275L94.8127 19.0058L93.4422 19.91L90.5718 15.6015L87.7014 20.0271L86.2986 19.1068L89.9675 13.6494H86.3148L86.3201 13.6441ZM87.3183 25.7451V20.9579H89.1204V24.1654H99.2262V25.7451H87.3183ZM97.2946 20.8781V16.6494H94.5914V15.0696H97.2946V11.6973H99.0967V20.8728H97.2946V20.8781Z" fill="#575756"/>
<path d="M101.585 20.7667H114.928V22.3465H109.155V26.0273H107.337V22.3465H101.585V20.7667ZM104.44 13.7614H112.08V11.9528H113.866V18.8411H102.659V11.9528H104.445V13.7614H104.44ZM112.08 15.3092H104.44V17.2826H112.08V15.3092Z" fill="#575756"/>
</g>
<defs>
<clipPath id="clip0_1363_53821">
<rect width="115" height="38" fill="white" transform="translate(0.5)"/>
</clipPath>
</defs>
</svg>
