<svg width="79" height="38" viewBox="0 0 79 38" fill="none" xmlns="http://www.w3.org/2000/svg">
<g clip-path="url(#clip0_1363_53827)">
<path d="M41.5317 23.4473V19.6449H42.9775V23.4473H45.0286V19.6449H46.4913V23.4473H50.1396V24.779H38.8501V23.4473H41.5317ZM47.7018 21.2949V15.4237H39.758V14.0669H49.2317V21.2949H47.7018Z" fill="#595857"/>
<path d="M63.0185 21.9392V25.7081H61.4886V23.2374H53.259V21.9392H55.2176L55.2344 20.5154H52.6453V19.2005H63.9348V20.5154H61.3289V21.9392H63.0185ZM61.3121 15.9592C61.3121 16.3445 61.228 16.7046 61.0683 17.0396C60.9002 17.3747 60.69 17.6762 60.421 17.9442C60.1436 18.1871 59.8242 18.3881 59.4543 18.5388C59.0844 18.6896 58.6977 18.765 58.2858 18.765C57.8739 18.765 57.4788 18.6896 57.109 18.5388C56.7391 18.3881 56.4113 18.1871 56.1423 17.9442C55.8733 17.6762 55.6631 17.3747 55.495 17.0396C55.3269 16.7046 55.2512 16.3445 55.2512 15.9592C55.2512 15.574 55.3353 15.2138 55.495 14.8788C55.6631 14.5438 55.8733 14.2423 56.1423 13.9743C56.4197 13.7146 56.7391 13.5136 57.109 13.3629C57.4788 13.2121 57.8739 13.1367 58.2858 13.1367C58.6977 13.1367 59.0928 13.2121 59.4543 13.3629C59.8242 13.5136 60.1436 13.7146 60.421 13.9743C60.6816 14.2423 60.9002 14.5438 61.0683 14.8788C61.2364 15.2222 61.3121 15.574 61.3121 15.9592ZM56.6214 21.9392H59.925V20.5154H56.6382L56.6214 21.9392ZM59.8158 15.9592C59.8158 15.5488 59.6644 15.1971 59.3702 14.9123C59.076 14.6275 58.7146 14.4768 58.2858 14.4768C57.8571 14.4768 57.5041 14.6192 57.2014 14.9123C56.8988 15.1971 56.7475 15.5488 56.7475 15.9592C56.7475 16.3696 56.8988 16.7214 57.2014 17.0145C57.5041 17.3077 57.8655 17.45 58.2858 17.45C58.7061 17.45 59.0676 17.3077 59.3702 17.0145C59.6729 16.7214 59.8158 16.3696 59.8158 15.9592Z" fill="#595857"/>
<path d="M66.5746 21.1779H77.8641V22.5263H72.9801V25.6838H71.4502V22.5263H66.5746V21.1779ZM68.9872 15.1979H75.4431V13.6484H76.9562V19.5363H67.4825V13.6484H68.9872V15.1979ZM75.4431 16.5128H68.9872V18.1963H75.4431V16.5128Z" fill="#595857"/>
<path d="M32.6764 19C32.6764 27.8377 25.4723 35 16.5897 35C7.70709 35 0.5 27.8377 0.5 19C0.5 10.1623 7.70115 3 16.5897 3C25.4782 3 32.6764 10.1653 32.6764 19Z" fill="white"/>
<path d="M24.1325 17.8861C21.5746 16.1575 18.3009 16.8608 16.5808 19.4609C15.1489 21.6327 12.9832 21.9045 12.1484 21.9045C9.41231 21.9045 7.5437 19.9898 6.98816 18.0102C6.98222 17.9895 6.97628 17.9717 6.97331 17.954C6.96737 17.9333 6.9644 17.9097 6.95548 17.8861C6.73565 17.0587 6.68217 16.6657 6.68217 15.7882C6.68217 11.0576 11.5661 5.78633 18.595 5.78633C25.6238 5.78633 29.9166 11.2379 30.9831 14.2694C30.9623 14.2133 30.9445 14.1631 30.9266 14.1099C28.8827 8.17969 23.2294 3.91893 16.5748 3.91893C8.20618 3.91893 1.415 10.6676 1.415 19C1.415 26.446 6.81289 32.8164 14.3052 32.8164C20.2764 32.8164 24.2899 29.4894 26.1288 24.8947C27.1389 22.3832 26.4259 19.4343 24.1325 17.8831" fill="#003964"/>
<path d="M31.0722 14.562C30.1839 11.6042 26.0367 5.78633 18.592 5.78633C11.5631 5.78633 6.6792 11.0576 6.6792 15.7882C6.6792 16.6657 6.73565 17.0587 6.95251 17.8861C6.86042 17.5226 6.81289 17.1621 6.81289 16.8105C6.81289 11.882 11.7741 8.4663 16.8749 8.4663C23.7819 8.4663 29.3789 14.0331 29.3789 20.8999C29.3789 26.2805 26.2625 30.9431 21.741 33.1799C27.5756 31.082 31.7406 25.5241 31.7406 19C31.7406 17.4547 31.5327 16.0925 31.0752 14.562" fill="#ED1A3B"/>
</g>
<defs>
<clipPath id="clip0_1363_53827">
<rect width="78" height="38" fill="white" transform="translate(0.5)"/>
</clipPath>
</defs>
</svg>
