<svg width="95" height="38" viewBox="0 0 95 38" fill="none" xmlns="http://www.w3.org/2000/svg">
<path d="M23.5056 18.1424C20.9966 16.438 17.7782 17.1301 16.0823 19.6997C14.672 21.8454 12.5438 22.1136 11.7132 22.1136C9.02242 22.1136 7.18821 20.2188 6.64314 18.2635C6.64314 18.2635 6.64314 18.2289 6.62584 18.2116C6.62584 18.1857 6.61719 18.1683 6.60854 18.1424C6.39224 17.3291 6.34033 16.9311 6.34033 16.0659C6.34033 11.3853 11.1421 6.17684 18.0549 6.17684C24.9679 6.17684 29.19 11.567 30.2282 14.5605C30.2109 14.5086 30.1935 14.4567 30.1762 14.4048C28.1691 8.54745 22.6145 4.33398 16.0737 4.33398C7.84575 4.33398 1.1665 11.0046 1.1665 19.2412C1.1665 26.6039 6.47876 32.9025 13.8415 32.9025C19.7161 32.9025 23.6614 29.6062 25.4696 25.0726C26.4646 22.5894 25.7551 19.6738 23.5056 18.1424Z" fill="#003668"/>
<path d="M30.3321 14.8536C29.4583 11.9293 25.3746 6.17578 18.0638 6.17578C11.1509 6.17578 6.34912 11.3842 6.34912 16.0648C6.34912 16.9301 6.40103 17.3194 6.61733 18.1413C6.53081 17.7866 6.4789 17.4232 6.4789 17.0771C6.4789 12.2061 11.3585 8.8319 16.3766 8.8319C23.1683 8.8319 28.671 14.3345 28.671 21.1263C28.671 26.4471 25.6082 31.0586 21.1612 33.2649C26.8974 31.1883 30.9984 25.6944 30.9984 19.2401C30.9984 17.7087 30.7907 16.3677 30.3408 14.8536H30.3321Z" fill="#E6002D"/>
<path d="M44.7699 23.7218V18.6636H46.7951V23.7218H53.9926V25.5188H38.9985V23.7218H44.7699ZM50.7314 20.8695V13.0919H40.1585V11.2949H52.7566V20.8695H50.7314Z" fill="#595857"/>
<path d="M71.0877 17.8369V19.5768H56.0938V17.8369H59.1077V16.3156H61.1139V17.8369H66.058V16.3156H68.0642V17.8369H71.0877ZM67.6173 13.3016C67.6173 13.8055 67.5127 14.2715 67.3035 14.7278C67.0944 15.1746 66.7997 15.574 66.4384 15.9067C66.0676 16.2395 65.6302 16.5153 65.1453 16.7149C64.6604 16.9146 64.1374 17.0192 63.586 17.0192C63.0345 17.0192 62.5211 16.9241 62.0267 16.7149C61.5418 16.5153 61.1044 16.2491 60.7336 15.9067C60.3723 15.574 60.0871 15.1746 59.8684 14.7278C59.6592 14.2809 59.5546 13.8055 59.5546 13.3016C59.5546 12.7977 59.6592 12.3223 59.8684 11.8754C60.0775 11.4285 60.3723 11.0292 60.7336 10.6964C61.1044 10.3636 61.5418 10.0879 62.0267 9.88825C62.5116 9.68857 63.0345 9.58398 63.586 9.58398C64.1374 9.58398 64.6509 9.68857 65.1453 9.88825C65.6302 10.0879 66.0676 10.3541 66.4384 10.6964C66.7997 11.0292 67.0849 11.4285 67.3035 11.8754C67.5127 12.3223 67.6173 12.7977 67.6173 13.3016ZM67.6173 23.7413C67.6173 24.2453 67.5127 24.7111 67.3035 25.1676C67.0944 25.6144 66.7997 26.0137 66.4384 26.3465C66.0676 26.6793 65.6302 26.955 65.1453 27.1546C64.6604 27.3543 64.1374 27.459 63.586 27.459C63.0345 27.459 62.5211 27.3639 62.0267 27.1546C61.5322 26.9455 61.1044 26.6888 60.7336 26.3465C60.3723 26.0137 60.0871 25.6144 59.8684 25.1676C59.6592 24.7206 59.5546 24.2453 59.5546 23.7413C59.5546 23.2374 59.6592 22.762 59.8684 22.3151C60.0775 21.8682 60.3723 21.4689 60.7336 21.1361C61.1044 20.8033 61.5418 20.5276 62.0267 20.3279C62.5116 20.1283 63.0345 20.0237 63.586 20.0237C64.1374 20.0237 64.6509 20.1188 65.1453 20.3279C65.6302 20.5276 66.0676 20.7939 66.4384 21.1361C66.7997 21.4689 67.0849 21.8682 67.3035 22.3151C67.5127 22.762 67.6173 23.2374 67.6173 23.7413ZM65.6112 13.3016C65.6112 12.7406 65.4115 12.2652 65.0217 11.8849C64.6318 11.5046 64.147 11.3144 63.586 11.3144C63.025 11.3144 62.5496 11.5046 62.1502 11.8849C61.7605 12.2652 61.5608 12.7406 61.5608 13.3016C61.5608 13.8626 61.7605 14.338 62.1502 14.7183C62.5401 15.0986 63.025 15.2887 63.586 15.2887C64.147 15.2887 64.6224 15.0986 65.0217 14.7183C65.421 14.338 65.6112 13.8626 65.6112 13.3016ZM65.6112 23.7413C65.6112 23.1804 65.4115 22.705 65.0217 22.3247C64.6318 21.9443 64.147 21.7542 63.586 21.7542C63.025 21.7542 62.5496 21.9443 62.1502 22.3247C61.7605 22.705 61.5608 23.1804 61.5608 23.7413C61.5608 24.3023 61.7605 24.7777 62.1502 25.158C62.5401 25.5383 63.025 25.7285 63.586 25.7285C64.147 25.7285 64.6224 25.5383 65.0217 25.158C65.4115 24.7777 65.6112 24.3023 65.6112 23.7413Z" fill="#595857"/>
<path d="M82.1455 24.6441H73.4837V22.9612L78.1331 18.6161C79.312 17.5131 79.8921 16.5623 79.8921 15.7447C79.8921 15.1076 79.6924 14.5657 79.2836 14.1283C78.8747 13.6909 78.3138 13.4723 77.5911 13.4723C77.0682 13.4723 76.5833 13.6814 76.1269 14.1093C75.7656 14.4421 75.5184 14.9746 75.3948 15.7067C75.3663 15.8777 75.3473 16.0584 75.3187 16.2486L73.3315 15.7447C73.3696 14.5657 73.788 13.5959 74.5772 12.8162C75.3663 12.0461 76.4217 11.6562 77.7337 11.6562C78.9698 11.6562 79.9967 12.0556 80.8048 12.8543C81.613 13.6529 82.0219 14.5942 82.0219 15.6876C82.0219 16.2962 81.8697 16.9142 81.556 17.5417C81.2422 18.1691 80.7668 18.7777 80.1108 19.3767L76.4217 22.8471H82.1359V24.6441H82.1455Z" fill="#595857"/>
<path d="M92.3094 24.6459H90.2081V22.3545H84.2847V20.7381L90.3222 11.8672H92.3094V20.548H93.9923V22.345H92.3094V24.6459ZM90.2081 20.5575V15.1949L86.6427 20.5575H90.2081Z" fill="#595857"/>
</svg>
