<svg width="95" height="38" viewBox="0 0 95 38" fill="none" xmlns="http://www.w3.org/2000/svg">
<g clip-path="url(#clip0_1363_53817)">
<path d="M32.7073 18.8873C32.7073 27.6602 25.496 34.7746 16.6037 34.7746C7.71131 34.7746 0.5 27.6602 0.5 18.8873C0.5 10.1144 7.71131 3 16.6037 3C25.496 3 32.7073 10.1144 32.7073 18.8873Z" fill="white"/>
<path d="M24.158 17.7782C21.599 16.0616 18.3225 16.7588 16.5987 19.3415C15.1639 21.4965 12.9957 21.7658 12.1605 21.7658C9.4195 21.7658 7.55109 19.8644 6.99431 17.8996C6.99431 17.8996 6.98361 17.8627 6.97825 17.8415C6.9729 17.8204 6.96754 17.7993 6.96219 17.7782C6.74269 16.9542 6.68916 16.5686 6.68916 15.6972C6.68916 11.0017 11.577 5.76759 18.6116 5.76759C25.6463 5.76759 29.9452 11.1813 31.0106 14.1919C30.9892 14.1338 30.9731 14.0863 30.9571 14.0334C28.9066 8.14435 23.2532 3.91372 16.588 3.91372C8.21494 3.91372 1.41585 10.6162 1.41585 18.8873C1.41585 26.2817 6.81764 32.6039 14.318 32.6039C20.2927 32.6039 24.3132 29.2975 26.1549 24.7394C27.1667 22.2465 26.4493 19.3151 24.158 17.7782Z" fill="#003964"/>
<path d="M31.1017 14.477C30.213 11.5404 26.0586 5.76222 18.6117 5.76222C11.5771 5.76222 6.68923 10.9964 6.68923 15.6918C6.68923 16.5633 6.74276 16.9541 6.96226 17.7728C6.87125 17.4136 6.82307 17.0545 6.82307 16.7059C6.82307 11.8098 11.7859 8.42419 16.8932 8.42419C23.8047 8.42419 29.4099 13.9488 29.4099 20.7675C29.4099 26.1126 26.2941 30.7393 21.765 32.9629C27.6058 30.8819 31.7709 25.3626 31.7709 18.8819C31.7709 17.3502 31.5621 15.9981 31.107 14.477" fill="#ED1A3B"/>
<path d="M40.1412 13.6324V12.0097H48.9122V13.6324H45.1767L49.0654 18.3759L47.7484 19.471L44.5977 15.5503L41.498 19.7264L40.1299 18.6313L44.0186 13.6324H40.1412ZM52.2843 23.579C52.2843 24.0954 52.1764 24.572 51.9664 25.0259C51.7563 25.4742 51.4725 25.8713 51.1205 26.2175C50.7685 26.5579 50.3484 26.8303 49.8602 27.0288C49.372 27.2274 48.8554 27.3296 48.3104 27.3296C47.7654 27.3296 47.2602 27.2274 46.7663 27.0288C46.278 26.8303 45.8523 26.5579 45.5003 26.2175C45.1483 25.877 44.8645 25.4798 44.6544 25.0259C44.4444 24.572 44.3365 24.0954 44.3365 23.579C44.3365 23.0627 44.4444 22.5861 44.6544 22.1321C44.8645 21.6782 45.1483 21.2867 45.5003 20.9406C45.8523 20.6002 46.278 20.3278 46.7663 20.1292C47.2602 19.9306 47.7711 19.8285 48.3104 19.8285C48.8497 19.8285 49.3777 19.9306 49.8602 20.1292C50.3427 20.3278 50.7685 20.6002 51.1205 20.9406C51.4725 21.2867 51.7563 21.6782 51.9664 22.1321C52.1764 22.5804 52.2843 23.0627 52.2843 23.579ZM50.4165 23.562C50.4165 22.9889 50.2065 22.501 49.7921 22.0868C49.3777 21.6782 48.8724 21.4683 48.2934 21.4683C47.7143 21.4683 47.2318 21.6725 46.823 22.0868C46.4143 22.4953 46.2042 22.9889 46.2042 23.562C46.2042 24.1351 46.4086 24.6401 46.823 25.0429C47.2318 25.4458 47.7257 25.6501 48.2934 25.6501C48.8611 25.6501 49.3777 25.4458 49.7921 25.0429C50.2065 24.6401 50.4165 24.1408 50.4165 23.562ZM51.6825 19.6583V16.356H48.8384V14.7105H51.6825V11.5614H53.5843V19.6583H51.6825Z" fill="#58595B"/>
<path d="M55.8435 21.2187H69.8884V22.8983H63.8083V26.8361H61.9065V22.8983H55.8435V21.2187ZM58.841 13.7517H66.8739V11.8169H68.7586V19.1647H56.9733V11.8169H58.841V13.7517ZM66.8739 15.3972H58.841V17.5022H66.8739V15.3972Z" fill="#58595B"/>
<path d="M82.0664 27.0232H72.4553V24.8784L77.9393 19.7774C78.0187 19.698 78.1152 19.6072 78.2174 19.5164C79.0236 18.7561 80.2498 17.6043 80.2498 16.2084C80.2498 14.8126 79.4948 13.082 77.3773 13.082C75.6855 13.082 74.5501 14.1658 74.3344 15.9701L74.2833 16.3389L72.461 16.0666L72.5178 15.6808C73.1366 11.8224 76.0772 11.4082 77.3091 11.4082C80.1987 11.4082 82.0607 13.3317 82.0607 16.3106C82.0607 18.2114 80.7834 19.471 79.7616 20.4753L79.5913 20.6455L74.5388 25.355H82.0607V27.0232H82.0664Z" fill="#58595B"/>
<path d="M93.5456 22.4725H91.8425V11.6237H90.2303L83.1795 22.2172V24.1407H90.1281V27.0231H91.8425V24.1407H93.8408V22.4725H93.5399H93.5456ZM85.0529 22.4725L90.1338 14.6934V22.4725H85.0529Z" fill="#58595B"/>
</g>
<defs>
<clipPath id="clip0_1363_53817">
<rect width="94" height="38" fill="white" transform="translate(0.5)"/>
</clipPath>
</defs>
</svg>
