<svg width="100" height="38" viewBox="0 0 100 38" fill="none" xmlns="http://www.w3.org/2000/svg">
<g clip-path="url(#clip0_1363_53823)">
<path d="M43.1505 23.2823V19.5357H44.6093V23.2823H49.9142V24.5942H38.8477V23.2823H43.1534H43.1505ZM47.5241 21.1578V15.3665H39.7377V14.028H49.0242V21.1578H47.5241Z" fill="#575756"/>
<path d="M53.5569 19.0334V17.9106H54.9332V19.0334H58.2517V17.9106H59.628V19.0334H62.1243V20.3039H51.0577V19.0334H53.5569ZM59.4541 23.4034C59.4541 23.7639 59.3775 24.1067 59.2243 24.4258C59.071 24.7449 58.8647 25.0226 58.6024 25.259C58.3519 25.5013 58.0513 25.6963 57.7065 25.8411C57.3587 25.9859 56.9933 26.0568 56.6072 26.0568C56.2211 26.0568 55.8527 25.9829 55.4991 25.8411C55.1483 25.6963 54.8418 25.5013 54.5825 25.259C54.332 25.0256 54.1286 24.7479 53.9754 24.4258C53.8221 24.1067 53.7455 23.7639 53.7455 23.4034C53.7455 23.043 53.8221 22.7032 53.9754 22.3811C54.1286 22.062 54.332 21.7783 54.5825 21.536C54.8448 21.2937 55.1483 21.1017 55.4991 20.9599C55.8498 20.821 56.2182 20.7501 56.6072 20.7501C56.9962 20.7501 57.3617 20.821 57.7065 20.9599C58.0513 21.0987 58.3519 21.2908 58.6024 21.536C58.8618 21.7783 59.071 22.062 59.2243 22.3811C59.3775 22.7002 59.4541 23.043 59.4541 23.4034ZM59.4276 15.4345C59.4276 15.795 59.351 16.1347 59.1977 16.448C59.0445 16.7641 58.8382 17.0448 58.5759 17.2871C58.3342 17.5205 58.0395 17.7126 57.6976 17.8544C57.3558 17.9992 56.9933 18.0701 56.6042 18.0701C56.2152 18.0701 55.8498 17.9992 55.505 17.8544C55.1572 17.7096 54.8625 17.5205 54.6208 17.2871C54.3615 17.0448 54.1522 16.7641 53.999 16.448C53.8457 16.1318 53.7691 15.795 53.7691 15.4345C53.7691 15.074 53.8457 14.746 53.999 14.4269C54.1522 14.1078 54.3585 13.8241 54.6208 13.5818C54.8625 13.3484 55.1601 13.1593 55.505 13.0145C55.8498 12.8697 56.2182 12.7988 56.6042 12.7988C56.9903 12.7988 57.3558 12.8727 57.6976 13.0145C58.0395 13.1593 58.3313 13.3484 58.5759 13.5818C58.8382 13.8241 59.0445 14.1078 59.1977 14.4269C59.351 14.746 59.4276 15.0829 59.4276 15.4345ZM57.9982 23.3769C57.9982 22.9986 57.8627 22.6736 57.5886 22.4106C57.3145 22.1447 56.9844 22.0118 56.5954 22.0118C56.2064 22.0118 55.8792 22.1447 55.611 22.4106C55.3399 22.6766 55.2073 22.9986 55.2073 23.3769C55.2073 23.7551 55.3429 24.0801 55.611 24.3519C55.8822 24.6238 56.2093 24.7567 56.5954 24.7567C56.9815 24.7567 57.3116 24.6208 57.5886 24.3519C57.8627 24.0801 57.9982 23.758 57.9982 23.3769ZM57.9717 15.4345C57.9717 15.074 57.8362 14.7578 57.568 14.486C57.2998 14.2142 56.9726 14.0812 56.5954 14.0812C56.2182 14.0812 55.8969 14.2171 55.6317 14.486C55.3664 14.7578 55.2338 15.074 55.2338 15.4345C55.2338 15.795 55.3664 16.1259 55.6317 16.3948C55.8969 16.6666 56.2182 16.7996 56.5954 16.7996C56.9726 16.7996 57.2968 16.6636 57.568 16.3948C57.8391 16.1259 57.9717 15.8038 57.9717 15.4345Z" fill="#575756"/>
<path d="M74.4286 23.2705V24.5972H63.3621V23.2705H68.1394V20.363H64.2521V13.9364H65.7492V19.0363H73.7124V20.363H69.6365V23.2705H74.4286Z" fill="#575756"/>
<path d="M80.6058 18.7911V17.6683H76.7185V13.5552H86.0168V14.8258H78.2039V16.4095H86.0463V17.6683H82.1059V18.7911H86.898V20.0616H75.8315V18.7911H80.6088H80.6058ZM84.3163 23.2025C84.3163 23.5807 84.2367 23.9412 84.0805 24.2781C83.9214 24.6149 83.7121 24.9074 83.4528 25.1497C83.1728 25.4009 82.8575 25.6018 82.5008 25.7525C82.1442 25.9002 81.7641 25.977 81.3603 25.977C80.9565 25.977 80.5764 25.9032 80.2198 25.7525C79.8632 25.6047 79.5478 25.4038 79.2678 25.1497C79.0085 24.9074 78.7963 24.6149 78.6401 24.2781C78.4809 23.9412 78.4043 23.5807 78.4043 23.2025C78.4043 22.8243 78.4839 22.4638 78.6401 22.127C78.7963 21.7901 79.0055 21.4976 79.2678 21.2553C79.5478 21.0042 79.8632 20.8033 80.2198 20.6526C80.5764 20.5048 80.9536 20.428 81.3603 20.428C81.767 20.428 82.1442 20.5019 82.5008 20.6526C82.8575 20.8003 83.1728 21.0012 83.4528 21.2553C83.7151 21.4976 83.9243 21.7901 84.0805 22.127C84.2367 22.4638 84.3163 22.8243 84.3163 23.2025ZM82.8722 23.1759C82.8722 22.7623 82.7248 22.4077 82.4272 22.1152C82.1295 21.8227 81.7758 21.6749 81.3603 21.6749C80.9447 21.6749 80.5911 21.8227 80.2934 22.1152C79.9958 22.4077 79.8484 22.7623 79.8484 23.1759C79.8484 23.5896 79.9958 23.9442 80.2934 24.2308C80.5911 24.5174 80.9447 24.6622 81.3603 24.6622C81.7758 24.6622 82.1295 24.5174 82.4272 24.2308C82.7248 23.9412 82.8722 23.5896 82.8722 23.1759Z" fill="#575756"/>
<path d="M88.4335 21.0426H99.5V22.3693H94.7079V25.4806H93.2108V22.3693H88.4335V21.0426ZM90.7941 15.1449H97.1246V13.6173H98.61V19.4234H89.3235V13.6173H90.7941V15.1449ZM97.1246 16.445H90.7941V18.1085H97.1246V16.445Z" fill="#575756"/>
<path d="M32.4206 19C32.4206 27.8377 25.2737 35 16.4618 35C7.64978 35 0.5 27.8377 0.5 19C0.5 10.1623 7.64389 3 16.4618 3C25.2796 3 32.4206 10.1653 32.4206 19Z" fill="white"/>
<path d="M23.9446 17.8861C21.4071 16.1575 18.1593 16.8608 16.4529 19.4609C15.0324 21.6327 12.8839 21.9045 12.0558 21.9045C9.34145 21.9045 7.48769 19.9898 6.93658 18.0102C6.93068 17.9895 6.92479 17.9717 6.92184 17.954C6.91595 17.9333 6.913 17.9097 6.90416 17.8861C6.68607 17.0587 6.63302 16.6657 6.63302 15.7882C6.63302 11.0576 11.4781 5.78633 18.4511 5.78633C25.4241 5.78633 29.6827 11.2379 30.7407 14.2694C30.7201 14.2133 30.7024 14.1631 30.6847 14.1099C28.6571 8.17969 23.0486 3.91893 16.447 3.91893C8.14491 3.91893 1.40772 10.6676 1.40772 19C1.40772 26.446 6.76269 32.8164 14.1954 32.8164C20.1192 32.8164 24.1008 29.4894 25.9251 24.8947C26.9271 22.3832 26.2198 19.4343 23.9446 17.8831" fill="#003964"/>
<path d="M30.8291 14.562C29.9479 11.6042 25.8337 5.78633 18.4481 5.78633C11.4752 5.78633 6.63007 11.0576 6.63007 15.7882C6.63007 16.6657 6.68607 17.0587 6.90121 17.8861C6.80985 17.5226 6.76269 17.1621 6.76269 16.8105C6.76269 11.882 11.6844 8.4663 16.7447 8.4663C23.5968 8.4663 29.1492 14.0331 29.1492 20.8999C29.1492 26.2805 26.0577 30.9431 21.5721 33.1799C27.3603 31.082 31.4922 25.5241 31.4922 19C31.4922 17.4547 31.2859 16.0925 30.8321 14.562" fill="#ED1A3B"/>
</g>
<defs>
<clipPath id="clip0_1363_53823">
<rect width="99" height="38" fill="white" transform="translate(0.5)"/>
</clipPath>
</defs>
</svg>
