<svg width="200" height="48" viewBox="0 0 200 48" fill="none" xmlns="http://www.w3.org/2000/svg">
<g clip-path="url(#clip0_831_106745)">
<path d="M48.2745 23.8054C48.2745 36.9543 37.4695 47.6108 24.1373 47.6108C10.805 47.6108 0 36.9543 0 23.8054C0 10.6564 10.805 0 24.1373 0C37.4695 0 48.2745 10.6564 48.2745 23.8054Z" fill="white"/>
<path d="M35.4862 22.1492C31.6424 19.5746 26.7241 20.6269 24.1439 24.4924C21.995 27.7312 18.7414 28.1341 17.4854 28.1341C13.3692 28.1341 10.5696 25.2835 9.72968 22.3358C9.72968 22.3358 9.71454 22.2761 9.70698 22.2537C9.69941 22.2238 9.69184 22.1865 9.68428 22.1567C9.35892 20.9254 9.27568 20.3358 9.27568 19.0299C9.27568 11.9778 16.6152 4.12726 27.1705 4.12726C37.7259 4.12726 44.1801 12.2465 45.7767 16.7613C45.7464 16.6792 45.7161 16.5971 45.6934 16.5225C42.6139 7.68688 34.1242 1.34375 24.1288 1.34375C11.5532 1.34375 1.35352 11.3957 1.35352 23.8059C1.35352 34.8952 9.46485 44.3875 20.7163 44.3875C29.6902 44.3875 35.7207 39.4249 38.4825 32.5892C40.0034 28.8505 38.929 24.4551 35.4862 22.1492Z" fill="#003964"/>
<path d="M45.9065 17.1934C44.5748 12.7906 38.3399 4.11914 27.1566 4.11914C16.5937 4.11914 9.26172 11.9697 9.26172 19.0218C9.26172 20.3277 9.34495 20.9172 9.67031 22.1485C9.53411 21.6112 9.46602 21.0739 9.46602 20.5441C9.46602 13.201 16.9191 8.11904 24.5764 8.11904C34.9501 8.11904 43.3565 16.4099 43.3565 26.641C43.3565 34.6557 38.6804 41.6033 31.8857 44.939C40.6477 41.8122 46.9053 33.5363 46.9053 23.8127C46.9053 21.5142 46.595 19.4844 45.9065 17.2009" fill="#ED1A3B"/>
<path d="M62.3023 16.4916H69.0441V14.0215H59.4648V32.0136H69.3241V29.5659H62.3023V16.4916Z" fill="white"/>
<path d="M76.733 21.8808H73.6913V12.6348H71.043V34.985H73.6913V24.2763H76.733V35.1118H79.4418V12.6348H76.733V21.8808Z" fill="white"/>
<path d="M86.8631 27.8281H84.0332V34.6563H102.405V32.2161H86.8631V27.8281Z" fill="white"/>
<path d="M101.914 12.6348H99.0762V27.0225H101.914V21.2017H105.182V18.7615H101.914V12.6348Z" fill="white"/>
<path d="M96.7753 14.3214H91.3879V12.1797H88.3688V14.3214H83.0117V16.7169H96.7753V14.3214Z" fill="white"/>
<path d="M91.9411 17.6634C91.298 17.4023 90.617 17.2754 89.883 17.2754C89.1491 17.2754 88.4605 17.4097 87.8249 17.6634C87.1818 17.9246 86.6294 18.2754 86.1527 18.7082C85.676 19.141 85.2977 19.6559 85.0177 20.2455C84.7378 20.835 84.6016 21.4619 84.6016 22.1335C84.6016 22.8051 84.7378 23.4245 85.0177 23.9991C85.2977 24.5737 85.676 25.0812 86.1527 25.5364C86.6294 25.9692 87.1893 26.3199 87.8249 26.5662C88.4605 26.8199 89.1491 26.9468 89.883 26.9468C90.617 26.9468 91.298 26.8199 91.9411 26.5662C92.5767 26.3125 93.1442 25.9692 93.6436 25.5364C94.1051 25.0812 94.4759 24.5737 94.7483 23.9991C95.0283 23.4245 95.172 22.8051 95.172 22.1335C95.172 21.4619 95.0283 20.835 94.7483 20.2455C94.4683 19.6559 94.0976 19.141 93.6436 18.7082C93.1518 18.2679 92.5843 17.9246 91.9411 17.6634ZM91.699 23.8648C91.2072 24.3424 90.6094 24.5812 89.9133 24.5812C89.2172 24.5812 88.6194 24.3424 88.1276 23.8648C87.6357 23.3872 87.386 22.8051 87.386 22.1111C87.386 21.4171 87.6357 20.835 88.1276 20.335C88.6194 19.835 89.2172 19.5888 89.9133 19.5888C90.6094 19.5888 91.2072 19.835 91.699 20.335C92.1908 20.835 92.4405 21.4245 92.4405 22.1111C92.4405 22.7976 92.1908 23.3797 91.699 23.8648Z" fill="white"/>
<path d="M119.877 13.418H108.148V24.8356H119.877V13.418ZM117.092 22.4401H110.963V15.8358H117.092V22.4401Z" fill="white"/>
<path d="M127.285 12.6348H124.447V27.0225H127.285V12.6348Z" fill="white"/>
<path d="M111.622 27.1484H108.814V34.6557H127.489V32.1856H111.622V27.1484Z" fill="white"/>
<path d="M147.283 19.7912H150.12V13.0898H132.543V15.5599H147.283V19.7912Z" fill="white"/>
<path d="M130.855 24.0223H139.928V27.3282H132.286V29.7684H147.282V35.1638H150.12V27.3282H142.735V24.0223H151.807V21.582H130.855V24.0223Z" fill="white"/>
<path d="M171.866 17.0973H167.621V19.4928H171.866V24.5524H174.703V12.6348H171.866V17.0973Z" fill="white"/>
<path d="M171.019 26.4468C170.489 25.9393 169.861 25.5438 169.142 25.2528C168.416 24.9618 167.644 24.8125 166.827 24.8125C166.01 24.8125 165.26 24.9618 164.526 25.2528C163.793 25.5438 163.164 25.9468 162.635 26.4468C162.105 26.9542 161.689 27.5363 161.371 28.2005C161.053 28.8646 160.895 29.5736 160.895 30.3273C160.895 31.081 161.053 31.7899 161.371 32.4541C161.689 33.1183 162.105 33.7003 162.635 34.2078C163.164 34.7152 163.793 35.1107 164.526 35.4018C165.253 35.6928 166.025 35.8421 166.827 35.8421C167.629 35.8421 168.416 35.6928 169.142 35.4018C169.861 35.1107 170.489 34.7078 171.019 34.2078C171.548 33.7078 171.972 33.1183 172.282 32.4541C172.6 31.7899 172.751 31.081 172.751 30.3273C172.751 29.5736 172.592 28.8572 172.282 28.2005C171.972 27.5363 171.548 26.9542 171.019 26.4468ZM169.044 32.4839C168.423 33.0809 167.674 33.3794 166.804 33.3794C165.934 33.3794 165.223 33.0809 164.61 32.4839C163.997 31.8869 163.687 31.1631 163.687 30.3049C163.687 29.4467 163.997 28.7452 164.61 28.1408C165.223 27.5363 165.957 27.2304 166.804 27.2304C167.651 27.2304 168.416 27.5288 169.044 28.1408C169.664 28.7452 169.974 29.4691 169.974 30.3049C169.974 31.1407 169.664 31.8869 169.044 32.4839Z" fill="white"/>
<path d="M165.988 24.1045L167.955 22.4851L162.182 15.5077H167.728V13.0898H154.698V15.5077H160.404L154.615 22.8657L156.666 24.4776L161.289 18.3584L165.988 24.1045Z" fill="white"/>
<path d="M177.852 26.8359V29.2986H186.894V35.0969H189.731V29.2986H198.803V26.8359H177.852Z" fill="white"/>
<path d="M197.116 13H194.301V15.8432H182.324V13H179.539V23.8057H197.116V13ZM182.324 18.2685H194.301V21.3655H182.324V18.2685Z" fill="white"/>
<path d="M24.1366 46.268C36.7151 46.268 46.9119 36.2114 46.9119 23.8059C46.9119 11.4004 36.7151 1.34375 24.1366 1.34375C11.5582 1.34375 1.36133 11.4004 1.36133 23.8059C1.36133 36.2114 11.5582 46.268 24.1366 46.268Z" stroke="#00AEEF" stroke-width="0.25" stroke-miterlimit="10"/>
</g>
<defs>
<clipPath id="clip0_831_106745">
<rect width="200" height="47.76" fill="white"/>
</clipPath>
</defs>
</svg>
