<svg width="192" height="100" viewBox="0 0 192 100" fill="none" xmlns="http://www.w3.org/2000/svg">
<path fill-rule="evenodd" clip-rule="evenodd" d="M34 24C15.2223 24 0 39.2223 0 58C0 76.7777 15.2223 92 34 92H34.5938L41.1795 98.5858C41.9606 99.3668 43.2269 99.3668 44.008 98.5858L50.5938 92H90C108.778 92 124 76.7777 124 58C124 39.2223 108.778 24 90 24H34Z" fill="#98ACC5"/>
<path fill-rule="evenodd" clip-rule="evenodd" d="M158 0C176.778 0 192 15.2223 192 34C192 52.7777 176.778 68 158 68H157.406L150.82 74.5858C150.039 75.3668 148.773 75.3668 147.992 74.5858L141.406 68H102C83.2223 68 68 52.7777 68 34C68 15.2223 83.2223 0 102 0H158Z" fill="#256EF4"/>
<mask id="mask0_1991_62513" style="mask-type:alpha" maskUnits="userSpaceOnUse" x="68" y="24" width="56" height="44">
<path fill-rule="evenodd" clip-rule="evenodd" d="M122.506 68C123.477 64.8383 124 61.4802 124 58C124 39.2223 108.778 24 90 24H69.4944C68.5229 27.1617 68 30.5198 68 34C68 52.7777 83.2223 68 102 68H122.506Z" fill="#E5ECF9"/>
</mask>
<g mask="url(#mask0_1991_62513)">
<rect width="157" height="68" transform="translate(37 14)" fill="white"/>
<path d="M73.6455 28V22.6973H74.4854V28H73.6455ZM74.0654 21.8184C73.7432 21.8184 73.4795 21.5742 73.4795 21.2617C73.4795 20.9492 73.7432 20.7051 74.0654 20.7051C74.3877 20.7051 74.6611 20.9492 74.6611 21.2617C74.6611 21.5742 74.3877 21.8184 74.0654 21.8184ZM78.1963 22.6973V23.4004H77.0244V28H76.1748V23.4004H75.3252V22.6973H76.1748V21.9746C76.1748 21.1152 76.751 20.5977 77.6885 20.5977C77.8936 20.5977 78.1377 20.627 78.3135 20.6562V21.4082C78.1377 21.3789 77.9814 21.3691 77.874 21.3691C77.2881 21.3691 77.0244 21.6133 77.0244 22.1602V22.6973H78.1963ZM81.9658 24.6602C81.9756 22.8145 82.4736 21.2812 83.3721 19.9727H84.1143C83.4502 20.9395 82.835 22.9219 82.835 24.6602C82.835 26.3984 83.4502 28.3711 84.1143 29.3379H83.3721C82.4736 28.0391 81.9756 26.5059 81.9658 24.6602ZM88.3037 25.8223V22.6973H89.1338V28H88.3037V27.1016H88.2451C87.9912 27.6387 87.4736 28.0684 86.6729 28.0684C85.667 28.0684 84.9541 27.4141 84.9541 26.0664V22.6973H85.7939V26.0078C85.7939 26.7695 86.2725 27.2578 86.9463 27.2578C87.542 27.2578 88.3037 26.8086 88.3037 25.8223ZM93.4307 24.0742C93.3135 23.6348 92.9814 23.3418 92.3564 23.3418C91.7021 23.3418 91.2334 23.6934 91.2334 24.1426C91.2334 24.4941 91.5166 24.7383 92.1416 24.8848L92.9326 25.0801C93.8799 25.3047 94.3486 25.7734 94.3486 26.5156C94.3486 27.4336 93.5967 28.1074 92.2686 28.1074C91.0771 28.1074 90.3643 27.5801 90.2275 26.6133H91.1064C91.2041 27.1309 91.585 27.375 92.249 27.375C93.001 27.375 93.4795 27.0625 93.4795 26.5645C93.4795 26.1934 93.2158 25.9395 92.6104 25.8027L91.8096 25.6172C90.8818 25.4023 90.3936 24.8945 90.3936 24.1914C90.3936 23.2832 91.1846 22.6289 92.3564 22.6289C93.4502 22.6289 94.1436 23.2148 94.251 24.0742H93.4307ZM97.6689 28.1074C96.1357 28.1074 95.1885 27.0234 95.1885 25.3926C95.1885 23.7617 96.1455 22.6289 97.5908 22.6289C98.7041 22.6289 99.876 23.3125 99.876 25.2754V25.627H96.0283C96.0674 26.75 96.7217 27.3652 97.6689 27.3652C98.3037 27.3652 98.7041 27.0918 98.8994 26.7598H99.7979C99.5439 27.5605 98.7627 28.1074 97.6689 28.1074ZM96.0381 24.9141H99.0264C99.0264 24.0254 98.46 23.3711 97.5908 23.3711C96.6729 23.3711 96.0869 24.0938 96.0381 24.9141ZM100.97 28V22.6973H101.78V23.5078H101.839C102.034 22.9707 102.581 22.6094 103.206 22.6094C103.333 22.6094 103.548 22.6191 103.646 22.6289V23.4785C103.587 23.459 103.353 23.4199 103.138 23.4199C102.376 23.4199 101.81 23.9473 101.81 24.6602V28H100.97ZM105.228 28.0586C104.886 28.0586 104.593 27.7754 104.603 27.4238C104.593 27.082 104.886 26.7988 105.228 26.7988C105.569 26.7988 105.853 27.082 105.853 27.4238C105.853 27.7754 105.569 28.0586 105.228 28.0586ZM109.72 22.6973V23.4004H108.548V28H107.698V23.4004H106.849V22.6973H107.698V21.9746C107.698 21.1152 108.274 20.5977 109.212 20.5977C109.417 20.5977 109.661 20.627 109.837 20.6562V21.4082C109.661 21.3789 109.505 21.3691 109.397 21.3691C108.812 21.3691 108.548 21.6133 108.548 22.1602V22.6973H109.72ZM110.716 28V22.6973H111.556V28H110.716ZM111.136 21.8184C110.813 21.8184 110.55 21.5742 110.55 21.2617C110.55 20.9492 110.813 20.7051 111.136 20.7051C111.458 20.7051 111.731 20.9492 111.731 21.2617C111.731 21.5742 111.458 21.8184 111.136 21.8184ZM112.894 28V22.6973H113.704V23.5078H113.763C113.958 22.9707 114.505 22.6094 115.13 22.6094C115.257 22.6094 115.472 22.6191 115.569 22.6289V23.4785C115.511 23.459 115.276 23.4199 115.062 23.4199C114.3 23.4199 113.733 23.9473 113.733 24.6602V28H112.894ZM119.339 24.0742C119.222 23.6348 118.89 23.3418 118.265 23.3418C117.61 23.3418 117.142 23.6934 117.142 24.1426C117.142 24.4941 117.425 24.7383 118.05 24.8848L118.841 25.0801C119.788 25.3047 120.257 25.7734 120.257 26.5156C120.257 27.4336 119.505 28.1074 118.177 28.1074C116.985 28.1074 116.272 27.5801 116.136 26.6133H117.015C117.112 27.1309 117.493 27.375 118.157 27.375C118.909 27.375 119.388 27.0625 119.388 26.5645C119.388 26.1934 119.124 25.9395 118.519 25.8027L117.718 25.6172C116.79 25.4023 116.302 24.8945 116.302 24.1914C116.302 23.2832 117.093 22.6289 118.265 22.6289C119.358 22.6289 120.052 23.2148 120.159 24.0742H119.339ZM123.665 22.6973V23.4004H122.552V26.4766C122.552 27.1602 122.884 27.2676 123.245 27.2676C123.401 27.2676 123.616 27.2578 123.743 27.248V28.0293C123.616 28.0488 123.401 28.0684 123.157 28.0684C122.454 28.0684 121.702 27.6289 121.702 26.6914V23.4004H120.901V22.6973H121.702V21.4277H122.552V22.6973H123.665ZM125.081 20.9297L127.161 26.8574H127.239L129.329 20.9297H130.257L127.669 28H126.741L124.153 20.9297H125.081ZM131.106 28V22.6973H131.946V28H131.106ZM131.526 21.8184C131.204 21.8184 130.94 21.5742 130.94 21.2617C130.94 20.9492 131.204 20.7051 131.526 20.7051C131.849 20.7051 132.122 20.9492 132.122 21.2617C132.122 21.5742 131.849 21.8184 131.526 21.8184ZM136.233 24.0742C136.116 23.6348 135.784 23.3418 135.159 23.3418C134.505 23.3418 134.036 23.6934 134.036 24.1426C134.036 24.4941 134.319 24.7383 134.944 24.8848L135.735 25.0801C136.683 25.3047 137.151 25.7734 137.151 26.5156C137.151 27.4336 136.399 28.1074 135.071 28.1074C133.88 28.1074 133.167 27.5801 133.03 26.6133H133.909C134.007 27.1309 134.388 27.375 135.052 27.375C135.804 27.375 136.282 27.0625 136.282 26.5645C136.282 26.1934 136.019 25.9395 135.413 25.8027L134.612 25.6172C133.685 25.4023 133.196 24.8945 133.196 24.1914C133.196 23.2832 133.987 22.6289 135.159 22.6289C136.253 22.6289 136.946 23.2148 137.054 24.0742H136.233ZM138.245 28V22.6973H139.085V28H138.245ZM138.665 21.8184C138.343 21.8184 138.079 21.5742 138.079 21.2617C138.079 20.9492 138.343 20.7051 138.665 20.7051C138.987 20.7051 139.261 20.9492 139.261 21.2617C139.261 21.5742 138.987 21.8184 138.665 21.8184ZM142.737 22.6973V23.4004H141.624V26.4766C141.624 27.1602 141.956 27.2676 142.317 27.2676C142.474 27.2676 142.688 27.2578 142.815 27.248V28.0293C142.688 28.0488 142.474 28.0684 142.229 28.0684C141.526 28.0684 140.774 27.6289 140.774 26.6914V23.4004H139.974V22.6973H140.774V21.4277H141.624V22.6973H142.737ZM145.462 24.6602C145.452 26.5059 144.954 28.0391 144.056 29.3379H143.313C143.978 28.3711 144.593 26.3984 144.593 24.6602C144.593 22.9219 143.978 20.9395 143.313 19.9727H144.056C144.954 21.2812 145.452 22.8145 145.462 24.6602Z" fill="#61758F"/>
<path d="M71.1758 37.5762L71.9375 34.9199H72.6602L72.123 37.5762H71.1758ZM73.0312 37.5762L73.793 34.9199H74.5156L73.9785 37.5762H73.0312ZM76.7031 38.8164V42H75.8633V34.9297H76.7031V37.5273H76.7715C77.0156 36.9805 77.4941 36.6289 78.334 36.6289C79.418 36.6289 80.1406 37.2734 80.1406 38.6309V42H79.3008V38.6895C79.3008 37.8594 78.8418 37.3809 78.0801 37.3809C77.2891 37.3809 76.7031 37.8984 76.7031 38.8164ZM83.7148 42.1074C82.1816 42.1074 81.2344 41.0234 81.2344 39.3926C81.2344 37.7617 82.1914 36.6289 83.6367 36.6289C84.75 36.6289 85.9219 37.3125 85.9219 39.2754V39.627H82.0742C82.1133 40.75 82.7676 41.3652 83.7148 41.3652C84.3496 41.3652 84.75 41.0918 84.9453 40.7598H85.8438C85.5898 41.5605 84.8086 42.1074 83.7148 42.1074ZM82.084 38.9141H85.0723C85.0723 38.0254 84.5059 37.3711 83.6367 37.3711C82.7188 37.3711 82.1328 38.0938 82.084 38.9141ZM87.8555 40.3887C87.8555 40.9258 88.0801 41.2285 88.5684 41.2285H88.7246V42H88.5488C87.5234 42 87.0156 41.3848 87.0156 40.3887V34.9297H87.8555V40.3887ZM90.2383 40.3887C90.2383 40.9258 90.4629 41.2285 90.9512 41.2285H91.1074V42H90.9316C89.9062 42 89.3984 41.3848 89.3984 40.3887V34.9297H90.2383V40.3887ZM94.1152 42.1074C92.6699 42.1074 91.6934 41.0234 91.6934 39.373C91.6934 37.7227 92.6699 36.6289 94.1152 36.6289C95.5508 36.6289 96.5176 37.7227 96.5176 39.373C96.5176 41.0234 95.5508 42.1074 94.1152 42.1074ZM94.1152 41.3652C95.1797 41.3652 95.6777 40.4277 95.6777 39.373C95.6777 38.3184 95.1797 37.3711 94.1152 37.3711C93.0312 37.3711 92.5332 38.3184 92.5332 39.373C92.5332 40.4277 93.0312 41.3652 94.1152 41.3652ZM100.951 34.9395L100.189 37.5957H99.4668L100.004 34.9395H100.951ZM99.0957 34.9395L98.334 37.5957H97.6113L98.1484 34.9395H99.0957Z" fill="#D65C66"/>
<path d="M103.295 40.3594L102.533 43.0156H101.811L102.348 40.3594H103.295ZM102.787 37.1367C102.445 37.1367 102.152 36.8535 102.162 36.502C102.152 36.1602 102.445 35.877 102.787 35.877C103.129 35.877 103.412 36.1602 103.412 36.502C103.412 36.8535 103.129 37.1367 102.787 37.1367ZM107.777 42V36.6973H108.588V37.5273H108.656C108.881 36.9609 109.389 36.6289 110.082 36.6289C110.775 36.6289 111.244 36.9609 111.498 37.5273H111.557C111.83 36.9805 112.387 36.6289 113.148 36.6289C114.096 36.6289 114.77 37.2051 114.77 38.4551V42H113.93V38.4648C113.93 37.6836 113.432 37.3809 112.855 37.3809C112.113 37.3809 111.693 37.8789 111.693 38.5527V42H110.844V38.377C110.844 37.7812 110.414 37.3809 109.809 37.3809C109.174 37.3809 108.617 37.918 108.617 38.6895V42H107.777ZM118.344 42.1074C116.811 42.1074 115.863 41.0234 115.863 39.3926C115.863 37.7617 116.82 36.6289 118.266 36.6289C119.379 36.6289 120.551 37.3125 120.551 39.2754V39.627H116.703C116.742 40.75 117.396 41.3652 118.344 41.3652C118.979 41.3652 119.379 41.0918 119.574 40.7598H120.473C120.219 41.5605 119.438 42.1074 118.344 42.1074ZM116.713 38.9141H119.701C119.701 38.0254 119.135 37.3711 118.266 37.3711C117.348 37.3711 116.762 38.0938 116.713 38.9141ZM124.594 38.0742C124.477 37.6348 124.145 37.3418 123.52 37.3418C122.865 37.3418 122.396 37.6934 122.396 38.1426C122.396 38.4941 122.68 38.7383 123.305 38.8848L124.096 39.0801C125.043 39.3047 125.512 39.7734 125.512 40.5156C125.512 41.4336 124.76 42.1074 123.432 42.1074C122.24 42.1074 121.527 41.5801 121.391 40.6133H122.27C122.367 41.1309 122.748 41.375 123.412 41.375C124.164 41.375 124.643 41.0625 124.643 40.5645C124.643 40.1934 124.379 39.9395 123.773 39.8027L122.973 39.6172C122.045 39.4023 121.557 38.8945 121.557 38.1914C121.557 37.2832 122.348 36.6289 123.52 36.6289C124.613 36.6289 125.307 37.2148 125.414 38.0742H124.594ZM129.555 38.0742C129.438 37.6348 129.105 37.3418 128.48 37.3418C127.826 37.3418 127.357 37.6934 127.357 38.1426C127.357 38.4941 127.641 38.7383 128.266 38.8848L129.057 39.0801C130.004 39.3047 130.473 39.7734 130.473 40.5156C130.473 41.4336 129.721 42.1074 128.393 42.1074C127.201 42.1074 126.488 41.5801 126.352 40.6133H127.23C127.328 41.1309 127.709 41.375 128.373 41.375C129.125 41.375 129.604 41.0625 129.604 40.5645C129.604 40.1934 129.34 39.9395 128.734 39.8027L127.934 39.6172C127.006 39.4023 126.518 38.8945 126.518 38.1914C126.518 37.2832 127.309 36.6289 128.48 36.6289C129.574 36.6289 130.268 37.2148 130.375 38.0742H129.555ZM131.312 40.4961C131.312 39.2754 132.387 39.002 133.305 38.9336C133.642 38.9092 134.501 38.8652 134.74 38.8555V38.4258C134.74 37.752 134.34 37.3613 133.539 37.3613C132.865 37.3613 132.465 37.6738 132.348 38.0742H131.469C131.576 37.2246 132.406 36.6289 133.578 36.6289C134.271 36.6289 135.57 36.834 135.57 38.5039V42H134.74V41.2773H134.701C134.525 41.6387 134.037 42.127 133.119 42.127C132.113 42.127 131.312 41.5312 131.312 40.4961ZM132.152 40.5352C132.152 41.0918 132.621 41.375 133.266 41.375C134.213 41.375 134.74 40.7402 134.74 40.0762V39.5391L133.402 39.6367C132.641 39.6855 132.152 39.959 132.152 40.5352ZM139.066 44.0996C137.787 44.0996 136.918 43.543 136.82 42.5566H137.699C137.816 43.0938 138.314 43.3672 139.066 43.3672C139.975 43.3672 140.531 42.9766 140.531 42.0977V41.0234H140.463C140.287 41.3164 139.945 41.9219 138.92 41.9219C137.631 41.9219 136.664 40.9453 136.664 39.2754C136.664 37.6445 137.602 36.6289 138.93 36.6289C139.955 36.6289 140.287 37.2539 140.482 37.5371H140.551V36.6973H141.371V42.1465C141.371 43.5137 140.355 44.0996 139.066 44.0996ZM139.037 41.1699C140.004 41.1699 140.551 40.4766 140.551 39.3047C140.551 38.1719 140.023 37.3809 139.037 37.3809C138.021 37.3809 137.514 38.2402 137.514 39.3047C137.514 40.4082 138.031 41.1699 139.037 41.1699ZM144.936 42.1074C143.402 42.1074 142.455 41.0234 142.455 39.3926C142.455 37.7617 143.412 36.6289 144.857 36.6289C145.971 36.6289 147.143 37.3125 147.143 39.2754V39.627H143.295C143.334 40.75 143.988 41.3652 144.936 41.3652C145.57 41.3652 145.971 41.0918 146.166 40.7598H147.064C146.811 41.5605 146.029 42.1074 144.936 42.1074ZM143.305 38.9141H146.293C146.293 38.0254 145.727 37.3711 144.857 37.3711C143.939 37.3711 143.354 38.0938 143.305 38.9141ZM151.186 37.8105V37.0488H155.453V37.8105H151.186ZM151.186 39.8711V39.1094H155.453V39.8711H151.186Z" fill="#61758F"/>
<path d="M35.8223 58.0996C34.543 58.0996 33.6738 57.543 33.5762 56.5566H34.4551C34.5723 57.0938 35.0703 57.3672 35.8223 57.3672C36.7305 57.3672 37.2871 56.9766 37.2871 56.0977V55.0234H37.2188C37.043 55.3164 36.7012 55.9219 35.6758 55.9219C34.3867 55.9219 33.4199 54.9453 33.4199 53.2754C33.4199 51.6445 34.3574 50.6289 35.6855 50.6289C36.7109 50.6289 37.043 51.2539 37.2383 51.5371H37.3066V50.6973H38.127V56.1465C38.127 57.5137 37.1113 58.0996 35.8223 58.0996ZM35.793 55.1699C36.7598 55.1699 37.3066 54.4766 37.3066 53.3047C37.3066 52.1719 36.7793 51.3809 35.793 51.3809C34.7773 51.3809 34.2695 52.2402 34.2695 53.3047C34.2695 54.4082 34.7871 55.1699 35.793 55.1699ZM39.4648 56V50.6973H40.2754V51.5078H40.334C40.5293 50.9707 41.0762 50.6094 41.7012 50.6094C41.8281 50.6094 42.043 50.6191 42.1406 50.6289V51.4785C42.082 51.459 41.8477 51.4199 41.6328 51.4199C40.8711 51.4199 40.3047 51.9473 40.3047 52.6602V56H39.4648ZM45.0117 56.1074C43.4785 56.1074 42.5312 55.0234 42.5312 53.3926C42.5312 51.7617 43.4883 50.6289 44.9336 50.6289C46.0469 50.6289 47.2188 51.3125 47.2188 53.2754V53.627H43.3711C43.4102 54.75 44.0645 55.3652 45.0117 55.3652C45.6465 55.3652 46.0469 55.0918 46.2422 54.7598H47.1406C46.8867 55.5605 46.1055 56.1074 45.0117 56.1074ZM43.3809 52.9141H46.3691C46.3691 52.0254 45.8027 51.3711 44.9336 51.3711C44.0156 51.3711 43.4297 52.0938 43.3809 52.9141ZM50.5391 56.1074C49.0059 56.1074 48.0586 55.0234 48.0586 53.3926C48.0586 51.7617 49.0156 50.6289 50.4609 50.6289C51.5742 50.6289 52.7461 51.3125 52.7461 53.2754V53.627H48.8984C48.9375 54.75 49.5918 55.3652 50.5391 55.3652C51.1738 55.3652 51.5742 55.0918 51.7695 54.7598H52.668C52.4141 55.5605 51.6328 56.1074 50.5391 56.1074ZM48.9082 52.9141H51.8965C51.8965 52.0254 51.3301 51.3711 50.4609 51.3711C49.543 51.3711 48.957 52.0938 48.9082 52.9141ZM56.1543 50.6973V51.4004H55.041V54.4766C55.041 55.1602 55.373 55.2676 55.7344 55.2676C55.8906 55.2676 56.1055 55.2578 56.2324 55.248V56.0293C56.1055 56.0488 55.8906 56.0684 55.6465 56.0684C54.9434 56.0684 54.1914 55.6289 54.1914 54.6914V51.4004H53.3906V50.6973H54.1914V49.4277H55.041V50.6973H56.1543ZM57.2383 56V50.6973H58.0781V56H57.2383ZM57.6582 49.8184C57.3359 49.8184 57.0723 49.5742 57.0723 49.2617C57.0723 48.9492 57.3359 48.7051 57.6582 48.7051C57.9805 48.7051 58.2539 48.9492 58.2539 49.2617C58.2539 49.5742 57.9805 49.8184 57.6582 49.8184ZM60.2559 52.8164V56H59.416V50.6973H60.2266V51.5273H60.2949C60.5488 50.9902 61.0371 50.6289 61.8477 50.6289C62.9219 50.6289 63.6348 51.2832 63.6348 52.6309V56H62.7949V52.6895C62.7949 51.8691 62.3457 51.3809 61.5938 51.3809C60.8223 51.3809 60.2559 51.8984 60.2559 52.8164ZM67.1309 58.0996C65.8516 58.0996 64.9824 57.543 64.8848 56.5566H65.7637C65.8809 57.0938 66.3789 57.3672 67.1309 57.3672C68.0391 57.3672 68.5957 56.9766 68.5957 56.0977V55.0234H68.5273C68.3516 55.3164 68.0098 55.9219 66.9844 55.9219C65.6953 55.9219 64.7285 54.9453 64.7285 53.2754C64.7285 51.6445 65.666 50.6289 66.9941 50.6289C68.0195 50.6289 68.3516 51.2539 68.5469 51.5371H68.6152V50.6973H69.4355V56.1465C69.4355 57.5137 68.4199 58.0996 67.1309 58.0996ZM67.1016 55.1699C68.0684 55.1699 68.6152 54.4766 68.6152 53.3047C68.6152 52.1719 68.0879 51.3809 67.1016 51.3809C66.0859 51.3809 65.5781 52.2402 65.5781 53.3047C65.5781 54.4082 66.0957 55.1699 67.1016 55.1699ZM75.7148 54.7598V52.8652H73.8301V52.0742H75.7148V50.1895H76.5059V52.0742H78.4004V52.8652H76.5059V54.7598H75.7148Z" fill="#61758F"/>
<path d="M82.5117 51.5762L83.2734 48.9199H83.9961L83.459 51.5762H82.5117ZM84.3672 51.5762L85.1289 48.9199H85.8516L85.3145 51.5762H84.3672ZM88.459 55.3457L87.6973 58.002H86.9746L87.5117 55.3457H88.459ZM94.2305 56L92.541 50.6973H93.4297L94.6309 54.7402H94.6895L95.7246 51.2441H96.623L97.6582 54.7207H97.7168L98.9277 50.6973H99.8066L98.1172 56H97.3164L96.2129 52.4355H96.1348L95.0312 56H94.2305ZM102.785 56.1074C101.252 56.1074 100.305 55.0234 100.305 53.3926C100.305 51.7617 101.262 50.6289 102.707 50.6289C103.82 50.6289 104.992 51.3125 104.992 53.2754V53.627H101.145C101.184 54.75 101.838 55.3652 102.785 55.3652C103.42 55.3652 103.82 55.0918 104.016 54.7598H104.914C104.66 55.5605 103.879 56.1074 102.785 56.1074ZM101.154 52.9141H104.143C104.143 52.0254 103.576 51.3711 102.707 51.3711C101.789 51.3711 101.203 52.0938 101.154 52.9141ZM106.926 54.3887C106.926 54.9258 107.15 55.2285 107.639 55.2285H107.795V56H107.619C106.594 56 106.086 55.3848 106.086 54.3887V48.9297H106.926V54.3887ZM110.803 56.1074C109.299 56.1074 108.381 54.9648 108.381 53.373C108.381 51.7617 109.338 50.6289 110.783 50.6289C111.916 50.6289 112.756 51.293 112.893 52.2988H112.053C111.936 51.8105 111.506 51.3711 110.803 51.3711C109.855 51.3711 109.221 52.1523 109.221 53.3438C109.221 54.5742 109.836 55.3555 110.803 55.3555C111.428 55.3555 111.906 55.0234 112.053 54.4375H112.893C112.756 55.3848 111.984 56.1074 110.803 56.1074ZM116.096 56.1074C114.65 56.1074 113.674 55.0234 113.674 53.373C113.674 51.7227 114.65 50.6289 116.096 50.6289C117.531 50.6289 118.498 51.7227 118.498 53.373C118.498 55.0234 117.531 56.1074 116.096 56.1074ZM116.096 55.3652C117.16 55.3652 117.658 54.4277 117.658 53.373C117.658 52.3184 117.16 51.3711 116.096 51.3711C115.012 51.3711 114.514 52.3184 114.514 53.373C114.514 54.4277 115.012 55.3652 116.096 55.3652ZM119.602 56V50.6973H120.412V51.5273H120.48C120.705 50.9609 121.213 50.6289 121.906 50.6289C122.6 50.6289 123.068 50.9609 123.322 51.5273H123.381C123.654 50.9805 124.211 50.6289 124.973 50.6289C125.92 50.6289 126.594 51.2051 126.594 52.4551V56H125.754V52.4648C125.754 51.6836 125.256 51.3809 124.68 51.3809C123.938 51.3809 123.518 51.8789 123.518 52.5527V56H122.668V52.377C122.668 51.7812 122.238 51.3809 121.633 51.3809C120.998 51.3809 120.441 51.918 120.441 52.6895V56H119.602ZM130.168 56.1074C128.635 56.1074 127.688 55.0234 127.688 53.3926C127.688 51.7617 128.645 50.6289 130.09 50.6289C131.203 50.6289 132.375 51.3125 132.375 53.2754V53.627H128.527C128.566 54.75 129.221 55.3652 130.168 55.3652C130.803 55.3652 131.203 55.0918 131.398 54.7598H132.297C132.043 55.5605 131.262 56.1074 130.168 56.1074ZM128.537 52.9141H131.525C131.525 52.0254 130.959 51.3711 130.09 51.3711C129.172 51.3711 128.586 52.0938 128.537 52.9141Z" fill="#D65C66"/>
<path d="M74.2803 70V64.6973H75.0908V65.5078H75.1494C75.3447 64.9707 75.8916 64.6094 76.5166 64.6094C76.6436 64.6094 76.8584 64.6191 76.9561 64.6289V65.4785C76.8975 65.459 76.6631 65.4199 76.4482 65.4199C75.6865 65.4199 75.1201 65.9473 75.1201 66.6602V70H74.2803ZM79.8271 70.1074C78.2939 70.1074 77.3467 69.0234 77.3467 67.3926C77.3467 65.7617 78.3037 64.6289 79.749 64.6289C80.8623 64.6289 82.0342 65.3125 82.0342 67.2754V67.627H78.1865C78.2256 68.75 78.8799 69.3652 79.8271 69.3652C80.4619 69.3652 80.8623 69.0918 81.0576 68.7598H81.9561C81.7021 69.5605 80.9209 70.1074 79.8271 70.1074ZM78.1963 66.9141H81.1846C81.1846 66.0254 80.6182 65.3711 79.749 65.3711C78.8311 65.3711 78.2451 66.0938 78.1963 66.9141ZM85.1299 70.1074C83.8115 70.1074 82.874 69.043 82.874 67.3633C82.874 65.6836 83.8115 64.6289 85.1396 64.6289C86.165 64.6289 86.4971 65.2539 86.6729 65.5371H86.7314V62.9297H87.5811V70H86.7607V69.1895H86.6729C86.4873 69.4824 86.1455 70.1074 85.1299 70.1074ZM85.2471 69.3555C86.2139 69.3555 86.7607 68.5352 86.7607 67.3438C86.7607 66.1719 86.2334 65.3809 85.2471 65.3809C84.2314 65.3809 83.7236 66.2402 83.7236 67.3438C83.7236 68.4766 84.2412 69.3555 85.2471 69.3555ZM89.0361 70V64.6973H89.876V70H89.0361ZM89.4561 63.8184C89.1338 63.8184 88.8701 63.5742 88.8701 63.2617C88.8701 62.9492 89.1338 62.7051 89.4561 62.7051C89.7783 62.7051 90.0518 62.9492 90.0518 63.2617C90.0518 63.5742 89.7783 63.8184 89.4561 63.8184ZM91.2139 70V64.6973H92.0244V65.5078H92.083C92.2783 64.9707 92.8252 64.6094 93.4502 64.6094C93.5771 64.6094 93.792 64.6191 93.8896 64.6289V65.4785C93.8311 65.459 93.5967 65.4199 93.3818 65.4199C92.6201 65.4199 92.0537 65.9473 92.0537 66.6602V70H91.2139ZM96.7607 70.1074C95.2275 70.1074 94.2803 69.0234 94.2803 67.3926C94.2803 65.7617 95.2373 64.6289 96.6826 64.6289C97.7959 64.6289 98.9678 65.3125 98.9678 67.2754V67.627H95.1201C95.1592 68.75 95.8135 69.3652 96.7607 69.3652C97.3955 69.3652 97.7959 69.0918 97.9912 68.7598H98.8896C98.6357 69.5605 97.8545 70.1074 96.7607 70.1074ZM95.1299 66.9141H98.1182C98.1182 66.0254 97.5518 65.3711 96.6826 65.3711C95.7646 65.3711 95.1787 66.0938 95.1299 66.9141ZM102.229 70.1074C100.726 70.1074 99.8076 68.9648 99.8076 67.373C99.8076 65.7617 100.765 64.6289 102.21 64.6289C103.343 64.6289 104.183 65.293 104.319 66.2988H103.479C103.362 65.8105 102.933 65.3711 102.229 65.3711C101.282 65.3711 100.647 66.1523 100.647 67.3438C100.647 68.5742 101.263 69.3555 102.229 69.3555C102.854 69.3555 103.333 69.0234 103.479 68.4375H104.319C104.183 69.3848 103.411 70.1074 102.229 70.1074ZM107.669 64.6973V65.4004H106.556V68.4766C106.556 69.1602 106.888 69.2676 107.249 69.2676C107.405 69.2676 107.62 69.2578 107.747 69.248V70.0293C107.62 70.0488 107.405 70.0684 107.161 70.0684C106.458 70.0684 105.706 69.6289 105.706 68.6914V65.4004H104.905V64.6973H105.706V63.4277H106.556V64.6973H107.669ZM108.138 63.7109V62.9297H113.47V63.7109H111.253V70H110.364V63.7109H108.138ZM115.931 70.1074C114.485 70.1074 113.509 69.0234 113.509 67.373C113.509 65.7227 114.485 64.6289 115.931 64.6289C117.366 64.6289 118.333 65.7227 118.333 67.373C118.333 69.0234 117.366 70.1074 115.931 70.1074ZM115.931 69.3652C116.995 69.3652 117.493 68.4277 117.493 67.373C117.493 66.3184 116.995 65.3711 115.931 65.3711C114.847 65.3711 114.349 66.3184 114.349 67.373C114.349 68.4277 114.847 69.3652 115.931 69.3652ZM119.329 66.6602C119.339 64.8145 119.837 63.2812 120.735 61.9727H121.478C120.813 62.9395 120.198 64.9219 120.198 66.6602C120.198 68.3984 120.813 70.3711 121.478 71.3379H120.735C119.837 70.0391 119.339 68.5059 119.329 66.6602ZM122.024 65.5762L122.786 62.9199H123.509L122.972 65.5762H122.024ZM123.88 65.5762L124.642 62.9199H125.364L124.827 65.5762H123.88ZM126.712 70V62.9297H127.552V67.041H127.649L129.944 64.6973H130.979L128.743 66.9629L131.146 70H130.081L128.118 67.5L127.552 68.0176V70H126.712ZM131.878 70V64.6973H132.688V65.5078H132.747C132.942 64.9707 133.489 64.6094 134.114 64.6094C134.241 64.6094 134.456 64.6191 134.554 64.6289V65.4785C134.495 65.459 134.261 65.4199 134.046 65.4199C133.284 65.4199 132.718 65.9473 132.718 66.6602V70H131.878ZM137.2 70.1074C135.882 70.1074 134.944 69.043 134.944 67.3633C134.944 65.6836 135.882 64.6289 137.21 64.6289C138.235 64.6289 138.567 65.2539 138.743 65.5371H138.802V62.9297H139.651V70H138.831V69.1895H138.743C138.558 69.4824 138.216 70.1074 137.2 70.1074ZM137.317 69.3555C138.284 69.3555 138.831 68.5352 138.831 67.3438C138.831 66.1719 138.304 65.3809 137.317 65.3809C136.302 65.3809 135.794 66.2402 135.794 67.3438C135.794 68.4766 136.312 69.3555 137.317 69.3555ZM144.056 66.0742C143.938 65.6348 143.606 65.3418 142.981 65.3418C142.327 65.3418 141.858 65.6934 141.858 66.1426C141.858 66.4941 142.142 66.7383 142.767 66.8848L143.558 67.0801C144.505 67.3047 144.974 67.7734 144.974 68.5156C144.974 69.4336 144.222 70.1074 142.894 70.1074C141.702 70.1074 140.989 69.5801 140.853 68.6133H141.731C141.829 69.1309 142.21 69.375 142.874 69.375C143.626 69.375 144.104 69.0625 144.104 68.5645C144.104 68.1934 143.841 67.9395 143.235 67.8027L142.435 67.6172C141.507 67.4023 141.019 66.8945 141.019 66.1914C141.019 65.2832 141.81 64.6289 142.981 64.6289C144.075 64.6289 144.769 65.2148 144.876 66.0742H144.056Z" fill="#61758F"/>
</g>
</svg>
