<svg width="48" height="48" viewBox="0 0 48 48" fill="none" xmlns="http://www.w3.org/2000/svg">
<path d="M31 38.3924C31 35.3328 32.9211 32.68 34.992 30.4278C37.6623 27.5238 39 23.4766 39 19C39 10.1634 32.8366 4 24 4C15.1634 4 9 10.1634 9 19C9 23.4766 10.3377 27.5238 13.008 30.4278C15.0789 32.68 17 35.3328 17 38.3924V41H31V38.3924Z" fill="#D3E1FB"/>
<path d="M22.1777 23.8789C22.2002 21.0938 22.9414 20.2178 24.2891 19.3867C25.2549 18.7578 25.9961 18.0615 25.9961 17.0283C25.9961 15.9053 25.1201 15.1641 24.042 15.1641C22.9863 15.1641 22.0205 15.8604 21.9756 17.1855H18.7861C18.8535 14.0186 21.1895 12.5137 24.0645 12.5137C27.1865 12.5137 29.4102 14.1533 29.4102 16.916C29.4102 18.7578 28.4668 19.9482 26.9844 20.8242C25.7266 21.5879 25.165 22.3066 25.1426 23.8789V24.126H22.1777V23.8789ZM23.7275 29.2021C22.6719 29.2021 21.8184 28.3486 21.8408 27.3154C21.8184 26.2822 22.6719 25.4512 23.7275 25.4512C24.7158 25.4512 25.5918 26.2822 25.5918 27.3154C25.5918 28.3486 24.7158 29.2021 23.7275 29.2021Z" fill="#246BEB"/>
<path d="M17 37H31V42C31 43.1046 30.1046 44 29 44H19C17.8954 44 17 43.1046 17 42V37Z" fill="#246BEB"/>
<circle cx="36" cy="10" r="4" fill="#E71825"/>
</svg>
