<svg width="20" height="20" viewBox="0 0 20 20" fill="none" xmlns="http://www.w3.org/2000/svg">
<path fill-rule="evenodd" clip-rule="evenodd" d="M1.66602 9.99935C1.66602 14.6017 5.39697 18.3327 9.99935 18.3327C14.6017 18.3327 18.3327 14.6017 18.3327 9.99935C18.3327 5.39701 14.6017 1.66602 9.99935 1.66602C5.39697 1.66602 1.66602 5.39701 1.66602 9.99935ZM9.99935 16.9993C6.13335 16.9993 2.99935 13.8653 2.99935 9.99935C2.99935 6.13339 6.13336 2.99935 9.99935 2.99935C13.8653 2.99935 16.9993 6.13339 16.9993 9.99935C16.9993 13.8653 13.8653 16.9993 9.99935 16.9993ZM8.5286 12.3563C8.26825 12.6166 8.26825 13.0388 8.5286 13.2991C8.78895 13.5595 9.21106 13.5595 9.47141 13.2991L12.2998 10.4707C12.5602 10.2103 12.5602 9.78822 12.2998 9.52787L9.47141 6.69944C9.21106 6.43909 8.78895 6.43909 8.5286 6.69944C8.26825 6.95979 8.26825 7.3819 8.5286 7.64225L10.8856 9.99927L8.5286 12.3563Z" fill="#F4F5F6"/>
</svg>
