<svg width="20" height="20" viewBox="0 0 20 20" fill="none" xmlns="http://www.w3.org/2000/svg">
<path fill-rule="evenodd" clip-rule="evenodd" d="M1.66602 10.0003C1.66602 14.6027 5.39697 18.3337 9.99935 18.3337C14.6017 18.3337 18.3327 14.6027 18.3327 10.0003C18.3327 5.39799 14.6017 1.66699 9.99935 1.66699C5.39697 1.66699 1.66602 5.39799 1.66602 10.0003ZM9.99935 17.0003C6.13335 17.0003 2.99935 13.8663 2.99935 10.0003C2.99935 6.13437 6.13336 3.00033 9.99935 3.00033C13.8653 3.00033 16.9993 6.13437 16.9993 10.0003C16.9993 13.8663 13.8653 17.0003 9.99935 17.0003ZM8.5286 12.3573C8.26825 12.6176 8.26825 13.0397 8.5286 13.3001C8.78895 13.5604 9.21106 13.5604 9.47141 13.3001L12.2998 10.4717C12.5602 10.2113 12.5602 9.78919 12.2998 9.52884L9.47141 6.70042C9.21106 6.44007 8.78895 6.44007 8.5286 6.70042C8.26825 6.96077 8.26825 7.38288 8.5286 7.64323L10.8856 10.0002L8.5286 12.3573Z" fill="#33363D"/>
</svg>
